{
.appVersion = "3227";
.formatVersion = 3;
DisplayStrings = (
"eœ",
"/Dcroat.ss01",
"/Eth.ss01",
"",
"œ̨/tildecomb.case Ů",
"œ",
"/VTF ıi/VTF2",
"/A.ss01/Aacute.ss01/Abreve.ss01/Acircumflex.ss01/Adieresis.ss01/Agrave.ss01/A.ss01/Aogonek.ss01 Ħ/Atilde.ss01/C.ss01/Cacute.ss01/Ccaron.ss01/Ccedilla.ss01/Cdotaccent.ss01/D.ss01/Dcaron.ss01/Dcroat.ss01/Eth.ss01/Schwa.ss01/G.ss01/J.ss01/K.ss01/Kcommaaccent.ss01/M.ss01/N.ss01/Nacute.ss01/Ncaron.ss01/Ncommaaccent.ss01/Ntilde.ss01/O.ss01/Oacute.ss01/Ocircumflex.ss01/Odieresis.ss01/Ograve.ss01/Otilde.ss01/Q.ss01/V.ss01/W.ss01/Wacute.ss01/Wcircumflex.ss01/Wdieresis.ss01/Wgrave.ss01/zero.ss01/one.ss01/two.ss01/four.ss01/five.ss01/six.ss01/seven.ss01/nine.ss01",

glyphs = (
{
glyphname = A;
kernLeft = A;
kernRight = A;
lastChange = "2023-12-13 13:48:03 +0000";
layers = (
{
anchors = (
{
name = bottom;
pos = (345,0);
},
{
name = ogonek;
pos = (680,0);
},
{
name = top;
pos = (345,706);
}
);
layerId = "C63D24B8-ED3A-4149-AD3E-D94B7A9D4395";
shapes = (
{
closed = 1;
nodes = (
(181,0,l),
(345,399,l),
(511,0,l),
(680,0,l),
(346,749,l),
(344,749,l),
(10,0,l)
);
},
{
closed = 1;
nodes = (
(488,97,l),
(438,247,l),
(253,247,l),
(203,97,l)
);
}
);
width = 690;
},
{
associatedMasterId = "FDB3DCA5-8B9B-4CD6-9F94-BF1B4F24E2DE";
hints = (
{
horizontal = 1;
place = (0,21);
target = up;
type = BottomGhost;
},
{
horizontal = 1;
place = (213.01,76.01);
type = Stem;
},
{
horizontal = 1;
place = (748.28,-20);
target = down;
type = TopGhost;
}
);
layerId = "C839DD54-2E64-4B54-9498-1A69A058689D";
shapes = (
{
closed = 1;
nodes = (
(380,330,l),
(144,330,l),
(144,307,l),
(380,307,l)
);
},
{
alignment = -1;
pos = (0,642);
ref = V;
scale = (1,-1);
}
);
width = 524;
},
{
anchors = (
{
name = bottom;
pos = (284,0);
},
{
name = ogonek;
pos = (538,0);
},
{
name = top;
pos = (284,706);
}
);
layerId = "FDB3DCA5-8B9B-4CD6-9F94-BF1B4F24E2DE";
shapes = (
{
closed = 1;
nodes = (
(72,0,l),
(284,633,l),
(496,0,l),
(538,0,l),
(285,757,l),
(283,757,l),
(30,0,l)
);
},
{
closed = 1;
nodes = (
(420,274,l),
(406,317,l),
(162,317,l),
(148,274,l)
);
}
);
width = 568;
},
{
associatedMasterId = "C63D24B8-ED3A-4149-AD3E-D94B7A9D4395";
hints = (
{
horizontal = 1;
place = (0,21);
target = up;
type = BottomGhost;
},
{
horizontal = 1;
place = (234,84);
type = Stem;
},
{
horizontal = 1;
place = (823,-20);
target = down;
type = TopGhost;
}
);
layerId = "34A7FB7D-455B-4F7D-A3FB-2A5EA6BF3D69";
name = "Apr 13 20, 11:56";
shapes = (
{
closed = 1;
nodes = (
(418,307,l),
(158,307,l),
(158,147,l),
(418,147,l)
);
},
{
closed = 1;
nodes = (
(444,0,l),
(613,0,l),
(292,918,l),
(285,918,l),
(-37,0,l),
(134,0,l),
(288,439,l)
);
}
);
width = 576;
}
);
metricLeft = V;
metricRight = V;
note = A;
unicode = 65;
},
{
glyphname = AE;
kernLeft = A;
kernRight = E;
lastChange = "2023-12-12 19:26:00 +0000";
layers = (
{
layerId = "C63D24B8-ED3A-4149-AD3E-D94B7A9D4395";
shapes = (
{
closed = 1;
nodes = (
(177,0,l),
(397,454,l),
(397,706,l),
(355,706,l),
(10,0,l)
);
},
{
closed = 1;
nodes = (
(397,59,l),
(397,225,l),
(238,225,l),
(155,59,l)
);
},
{
alignment = -1;
pos = (325,0);
ref = E;
}
);
width = 685;
},
{
associatedMasterId = "FDB3DCA5-8B9B-4CD6-9F94-BF1B4F24E2DE";
hints = (
{
horizontal = 1;
place = (0,76.01);
type = Stem;
},
{
horizontal = 1;
place = (213,75.98);
type = Stem;
},
{
horizontal = 1;
place = (318.98,76.02);
type = Stem;
},
{
horizontal = 1;
place = (566.99,76.01);
type = Stem;
},
{
horizontal = 1;
place = (747.5,-20);
target = down;
type = TopGhost;
}
);
layerId = "C839DD54-2E64-4B54-9498-1A69A058689D";
shapes = (
{
closed = 1;
nodes = (
(378,289,l),
(235,289,l),
(244,266,l),
(378,266,l)
);
},
{
closed = 1;
nodes = (
(378,642,l),
(341,642,l),
(28,0,l),
(51,0,l),
(378,668,l)
);
},
{
alignment = -1;
pos = (314,0);
ref = E;
}
);
width = 646.5;
},
{
layerId = "FDB3DCA5-8B9B-4CD6-9F94-BF1B4F24E2DE";
shapes = (
{
closed = 1;
nodes = (
(72,0,l),
(416,702,l),
(416,706,l),
(375,706,l),
(30,0,l)
);
},
{
closed = 1;
nodes = (
(409,255,l),
(409,295,l),
(183,295,l),
(171,255,l)
);
},
{
alignment = -1;
pos = (286,0);
ref = E;
}
);
width = 696;
}
);
metricLeft = A;
metricRight = E;
note = AE;
unicode = 198;
},
{
glyphname = B;
kernRight = B;
lastChange = "2023-12-13 13:58:21 +0000";
layers = (
{
anchors = (
{
name = top;
pos = (123,706);
}
);
layerId = "C63D24B8-ED3A-4149-AD3E-D94B7A9D4395";
shapes = (
{
closed = 1;
nodes = (
(239,0,ls),
(351,0,o),
(436,86,o),
(436,199,cs),
(436,263,o),
(407,319,o),
(352,354,c),
(407,391,o),
(436,446,o),
(436,510,cs),
(436,622,o),
(351,706,o),
(239,706,cs),
(200,706,l),
(200,553,l),
(217,553,ls),
(252,553,o),
(278,527,o),
(278,492,cs),
(278,455,o),
(252,426,o),
(217,426,cs),
(200,426,l),
(200,280,l),
(217,280,ls),
(252,280,o),
(278,255,o),
(278,218,cs),
(278,184,o),
(252,156,o),
(217,156,cs),
(200,156,l),
(200,0,l)
);
},
{
closed = 1;
nodes = (
(200,0,l),
(200,706,l),
(40,706,l),
(40,0,l)
);
}
);
width = 456;
},
{
associatedMasterId = "FDB3DCA5-8B9B-4CD6-9F94-BF1B4F24E2DE";
layerId = "C839DD54-2E64-4B54-9498-1A69A058689D";
width = 155.4;
},
{
anchors = (
{
name = top;
pos = (121,706);
}
);
layerId = "FDB3DCA5-8B9B-4CD6-9F94-BF1B4F24E2DE";
shapes = (
{
closed = 1;
nodes = (
(159,0,ls),
(262,0,o),
(345,83,o),
(345,188,cs),
(345,260,o),
(304,322,o),
(243,353,c),
(304,384,o),
(345,447,o),
(345,520,cs),
(345,623,o),
(262,706,o),
(159,706,cs),
(100,706,l),
(100,665,l),
(159,665,ls),
(239,665,o),
(305,601,o),
(305,520,cs),
(305,438,o),
(239,373,o),
(159,373,cs),
(100,373,l),
(100,332,l),
(159,332,ls),
(239,332,o),
(305,268,o),
(305,188,cs),
(305,105,o),
(239,40,o),
(159,40,cs),
(100,40,l),
(100,0,l)
);
},
{
closed = 1;
nodes = (
(140,0,l),
(140,706,l),
(100,706,l),
(100,0,l)
);
}
);
width = 395;
},
{
associatedMasterId = "FDB3DCA5-8B9B-4CD6-9F94-BF1B4F24E2DE";
hints = (
{
horizontal = 1;
place = (0,21);
target = up;
type = BottomGhost;
},
{
horizontal = 1;
place = (706,-20);
target = down;
type = TopGhost;
}
);
layerId = "0270274E-6724-46BC-8701-54C86E44A2FD";
name = "Apr 23 20, 16:03";
shapes = (
{
closed = 1;
nodes = (
(308,389,o),
(337,444,o),
(337,509,cs),
(337,620,o),
(252,706,o),
(140,706,cs),
(100,706,l),
(100,0,l),
(140,0,l),
(252,-1,o),
(337,85,o),
(337,198,cs),
(337,262,o),
(308,318,o),
(263,353,c)
);
},
{
closed = 1;
nodes = (
(227,664,o),
(295,596,o),
(295,509,cs),
(295,421,o),
(227,354,o),
(140,354,c),
(140,664,l)
);
},
{
closed = 1;
nodes = (
(140,353,l),
(227,353,o),
(295,285,o),
(295,199,cs),
(295,110,o),
(227,41,o),
(140,41,c)
);
}
);
width = 357;
}
);
metricLeft = H;
metricRight = R;
note = B;
unicode = 66;
},
{
glyphname = C;
kernLeft = O;
kernRight = C;
lastChange = "2023-12-13 14:23:24 +0000";
layers = (
{
anchors = (
{
name = bottom;
pos = (250,48);
},
{
name = top;
pos = (309,706);
}
);
background = {
shapes = (
{
attr = {
strokePos = "1";
};
closed = 1;
nodes = (
(393,720,l),
(184,720,o),
(25,561,o),
(25,353,cs),
(25,145,o),
(184,-14,o),
(393,-14,c),
(393,148,l),
(276,148,o),
(187,237,o),
(187,353,cs),
(187,469,o),
(276,558,o),
(393,558,c)
);
}
);
};
layerId = "C63D24B8-ED3A-4149-AD3E-D94B7A9D4395";
shapes = (
{
attr = {
strokePos = "1";
};
closed = 1;
nodes = (
(393,148,l),
(276,148,o),
(187,237,o),
(187,353,cs),
(187,469,o),
(276,558,o),
(393,558,c),
(393,720,l),
(184,720,o),
(25,561,o),
(25,353,cs),
(25,145,o),
(184,-14,o),
(393,-14,c)
);
}
);
width = 423;
},
{
associatedMasterId = "FDB3DCA5-8B9B-4CD6-9F94-BF1B4F24E2DE";
hints = (
{
horizontal = 1;
place = (0,70.97);
type = Stem;
},
{
horizontal = 1;
place = (566.99,71.02);
type = Stem;
}
);
layerId = "C839DD54-2E64-4B54-9498-1A69A058689D";
shapes = (
{
closed = 1;
nodes = (
(347,0,l),
(164,0,o),
(25,139,o),
(25,321,cs),
(25,503,o),
(164,642,o),
(347,642,c),
(347,619,l),
(177,619,o),
(48,491,o),
(48,321,cs),
(48,152,o),
(177,22,o),
(347,22,c)
);
}
);
width = 382;
},
{
anchors = (
{
name = bottom;
pos = (278,10);
},
{
name = top;
pos = (330,706);
}
);
layerId = "FDB3DCA5-8B9B-4CD6-9F94-BF1B4F24E2DE";
shapes = (
{
attr = {
strokePos = "1";
};
closed = 1;
nodes = (
(414,26,l),
(227,26,o),
(86,167,o),
(86,353,cs),
(86,539,o),
(227,680,o),
(414,680,c),
(414,720,l),
(205,720,o),
(46,561,o),
(46,353,cs),
(46,145,o),
(205,-14,o),
(414,-14,c)
);
}
);
width = 464;
}
);
metricLeft = O;
note = C;
unicode = 67;
},
{
glyphname = D;
kernRight = O;
lastChange = "2023-12-12 19:26:00 +0000";
layers = (
{
anchors = (
{
name = bottom;
pos = (206,0);
},
{
name = center;
pos = (291,353);
},
{
name = top;
pos = (206,707);
}
);
layerId = "C63D24B8-ED3A-4149-AD3E-D94B7A9D4395";
shapes = (
{
closed = 1;
nodes = (
(206,0,ls),
(405,0,o),
(557,154,o),
(557,354,cs),
(557,553,o),
(405,707,o),
(206,707,cs),
(40,707,l),
(40,0,l)
);
},
{
closed = 1;
nodes = (
(206,540,l),
(310,539,o),
(390,460,o),
(390,354,cs),
(390,249,o),
(310,168,o),
(206,167,c)
);
}
);
width = 582;
},
{
associatedMasterId = "FDB3DCA5-8B9B-4CD6-9F94-BF1B4F24E2DE";
hints = (
{
horizontal = 1;
place = (0,76.01);
type = Stem;
},
{
horizontal = 1;
place = (567.03,75.98);
type = Stem;
}
);
layerId = "C839DD54-2E64-4B54-9498-1A69A058689D";
shapes = (
{
closed = 1;
nodes = (
(65,643,l),
(65,0,l),
(89,0,ls),
(270,2,o),
(408,140,o),
(408,322,cs),
(408,503,o),
(270,641,o),
(89,643,cs)
);
},
{
closed = 1;
nodes = (
(89,620,l),
(255,619,o),
(384,489,o),
(384,322,cs),
(384,153,o),
(255,24,o),
(89,23,c)
);
}
);
width = 432.5;
},
{
anchors = (
{
name = bottom;
pos = (143,0);
},
{
name = center;
pos = (272,353);
},
{
name = top;
pos = (203,707);
}
);
layerId = "FDB3DCA5-8B9B-4CD6-9F94-BF1B4F24E2DE";
shapes = (
{
closed = 1;
nodes = (
(143,0,ls),
(342,2,o),
(494,154,o),
(494,354,cs),
(494,553,o),
(342,706,o),
(143,707,cs),
(100,707,l),
(100,0,l)
);
},
{
closed = 1;
nodes = (
(143,666,l),
(317,664,o),
(451,529,o),
(451,354,cs),
(451,178,o),
(317,43,o),
(143,42,c)
);
}
);
width = 540;
}
);
metricLeft = H;
metricRight = O;
note = D;
unicode = 68;
},
{
glyphname = Eth;
kernRight = O;
lastChange = "2023-12-12 19:26:00 +0000";
layers = (
{
layerId = "C63D24B8-ED3A-4149-AD3E-D94B7A9D4395";
shapes = (
{
closed = 1;
nodes = (
(282,292,l),
(282,416,l),
(1,416,l),
(1,292,l)
);
},
{
alignment = -1;
pos = (11,0);
ref = D;
}
);
width = 593;
},
{
associatedMasterId = "FDB3DCA5-8B9B-4CD6-9F94-BF1B4F24E2DE";
layerId = "C839DD54-2E64-4B54-9498-1A69A058689D";
shapes = (
{
closed = 1;
nodes = (
(10,284,l),
(256,284,l),
(256,360,l),
(10,360,l)
);
},
{
alignment = -1;
pos = (10,0);
ref = D;
}
);
width = 442.5;
},
{
layerId = "FDB3DCA5-8B9B-4CD6-9F94-BF1B4F24E2DE";
shapes = (
{
closed = 1;
nodes = (
(261,334,l),
(261,374,l),
(50,374,l),
(50,334,l)
);
},
{
alignment = -1;
pos = (11,0);
ref = D;
}
);
width = 551;
}
);
metricRight = O;
unicode = 208;
},
{
glyphname = E;
kernLeft = H;
kernRight = E;
lastChange = "2023-12-12 19:53:02 +0000";
layers = (
{
anchors = (
{
name = bottom;
pos = (185,0);
},
{
name = ogonek;
pos = (330,0);
},
{
name = top;
pos = (185,706);
},
{
name = topleft;
pos = (20,706);
}
);
guides = (
{
angle = 90;
pos = (185,706);
},
{
angle = 180;
pos = (265,446);
}
);
layerId = "C63D24B8-ED3A-4149-AD3E-D94B7A9D4395";
shapes = (
{
closed = 1;
nodes = (
(330,0,l),
(330,160,l),
(200,160,l),
(200,286,l),
(330,286,l),
(330,446,l),
(200,446,l),
(200,546,l),
(330,546,l),
(330,706,l),
(40,706,l),
(40,0,l)
);
}
);
width = 360;
},
{
anchors = (
{
name = top;
pos = (193,642);
}
);
associatedMasterId = "FDB3DCA5-8B9B-4CD6-9F94-BF1B4F24E2DE";
hints = (
{
horizontal = 1;
place = (0,76.01);
type = Stem;
},
{
horizontal = 1;
place = (318.98,76.02);
type = Stem;
},
{
horizontal = 1;
place = (566.99,76.02);
type = Stem;
}
);
layerId = "C839DD54-2E64-4B54-9498-1A69A058689D";
shapes = (
{
closed = 1;
nodes = (
(65,0,l),
(291,0,l),
(291,24,l),
(89,24,l),
(89,362,l),
(291,362,l),
(291,386,l),
(89,386,l),
(89,619,l),
(291,619,l),
(291,642,l),
(65,642,l)
);
}
);
width = 333;
},
{
anchors = (
{
name = bottom;
pos = (215,0);
},
{
name = ogonek;
pos = (330,0);
},
{
name = top;
pos = (215,706);
},
{
name = topleft;
pos = (10,706);
}
);
guides = (
{
pos = (235,374);
}
);
layerId = "FDB3DCA5-8B9B-4CD6-9F94-BF1B4F24E2DE";
shapes = (
{
closed = 1;
nodes = (
(330,0,l),
(330,40,l),
(140,40,l),
(140,374,l),
(330,374,l),
(330,414,l),
(140,414,l),
(140,666,l),
(330,666,l),
(330,706,l),
(100,706,l),
(100,0,l)
);
}
);
width = 410;
}
);
metricLeft = H;
note = E;
unicode = 69;
},
{
glyphname = Schwa;
kernLeft = O;
kernRight = O;
lastChange = "2023-12-12 19:26:00 +0000";
layers = (
{
guides = (
{
pos = (231,374);
}
);
layerId = "FDB3DCA5-8B9B-4CD6-9F94-BF1B4F24E2DE";
shapes = (
{
closed = 1;
nodes = (
(598,0,o),
(751,153,o),
(751,353,cs),
(751,553,o),
(598,706,o),
(397,706,cs),
(211,706,o),
(66,574,o),
(46,394,c),
(88,394,l),
(107,550,o),
(235,664,o),
(397,664,cs),
(573,664,o),
(708,529,o),
(708,353,cs),
(708,177,o),
(573,42,o),
(397,42,cs),
(242,42,o),
(118,146,o),
(91,292,c),
(49,292,l),
(77,122,o),
(218,0,o),
(397,0,cs)
);
},
{
closed = 1;
nodes = (
(732,374,l),
(732,414,l),
(71,414,l),
(46,394,l),
(46,374,l)
);
}
);
width = 797;
},
{
guides = (
{
angle = 180;
pos = (265,446);
}
);
layerId = "C63D24B8-ED3A-4149-AD3E-D94B7A9D4395";
shapes = (
{
closed = 1;
nodes = (
(579,0,o),
(731,153,o),
(731,353,cs),
(731,553,o),
(579,706,o),
(377,706,cs),
(188,706,o),
(41,569,o),
(25,385,c),
(187,385,l),
(202,479,o),
(279,545,o),
(377,545,cs),
(486,545,o),
(570,463,o),
(570,353,cs),
(570,243,o),
(486,161,o),
(377,161,cs),
(301,161,o),
(238,200,o),
(206,262,c),
(35,262,l),
(74,108,o),
(209,0,o),
(377,0,cs)
);
},
{
closed = 1;
nodes = (
(611,302,l),
(611,446,l),
(80,446,l),
(25,385,l),
(25,302,l)
);
}
);
width = 756;
}
);
metricLeft = O;
metricRight = O;
unicode = 399;
},
{
glyphname = F;
kernRight = F;
lastChange = "2023-12-12 19:26:00 +0000";
layers = (
{
layerId = "C63D24B8-ED3A-4149-AD3E-D94B7A9D4395";
shapes = (
{
closed = 1;
nodes = (
(200,0,l),
(200,290,l),
(360,290,l),
(360,449,l),
(200,449,l),
(200,546,l),
(360,546,l),
(360,706,l),
(40,706,l),
(40,0,l)
);
}
);
width = 380;
},
{
associatedMasterId = "FDB3DCA5-8B9B-4CD6-9F94-BF1B4F24E2DE";
hints = (
{
horizontal = 1;
place = (0,21);
target = up;
type = BottomGhost;
},
{
horizontal = 1;
place = (318.98,76.02);
type = Stem;
},
{
horizontal = 1;
place = (566.99,76.01);
type = Stem;
}
);
layerId = "C839DD54-2E64-4B54-9498-1A69A058689D";
shapes = (
{
closed = 1;
nodes = (
(65,642,l),
(65,0,l),
(88,0,l),
(88,362,l),
(291,362,l),
(291,386,l),
(88,386,l),
(88,619,l),
(291,619,l),
(291,642,l)
);
}
);
width = 323;
},
{
layerId = "FDB3DCA5-8B9B-4CD6-9F94-BF1B4F24E2DE";
shapes = (
{
closed = 1;
nodes = (
(140,0,l),
(140,378,l),
(330,378,l),
(330,418,l),
(140,418,l),
(140,666,l),
(330,666,l),
(330,706,l),
(100,706,l),
(100,0,l)
);
}
);
width = 400;
}
);
metricLeft = H;
note = F;
unicode = 70;
},
{
glyphname = G;
kernLeft = O;
kernRight = G;
lastChange = "2023-12-12 19:30:42 +0000";
layers = (
{
anchors = (
{
name = bottom;
pos = (379,0);
},
{
name = top;
pos = (315,706);
}
);
background = {
anchors = (
{
name = bottom;
pos = (393,0);
},
{
name = center;
pos = (393,353);
},
{
name = ogonek;
pos = (723,10);
},
{
name = top;
pos = (393,706);
},
{
name = topleft;
pos = (-1,706);
},
{
name = topright;
pos = (786,706);
}
);
};
guides = (
{
angle = 90;
pos = (437,198);
}
);
layerId = "C63D24B8-ED3A-4149-AD3E-D94B7A9D4395";
shapes = (
{
attr = {
strokePos = "1";
};
closed = 1;
nodes = (
(379,160,l),
(270,160,o),
(187,245,o),
(187,353,cs),
(187,484,o),
(299,579,o),
(437,554,c),
(437,718,l),
(207,741,o),
(25,576,o),
(25,353,cs),
(25,153,o),
(177,0,o),
(379,0,c)
);
},
{
closed = 1;
nodes = (
(437,395,l),
(287,395,l),
(287,11,l),
(340,-3,o),
(381,-2,o),
(437,0,c)
);
}
);
width = 477;
},
{
associatedMasterId = "FDB3DCA5-8B9B-4CD6-9F94-BF1B4F24E2DE";
hints = (
{
horizontal = 1;
place = (0,75);
type = Stem;
},
{
horizontal = 1;
place = (568,71);
type = Stem;
}
);
layerId = "C839DD54-2E64-4B54-9498-1A69A058689D";
shapes = (
{
closed = 1;
nodes = (
(346,359,l),
(365,359,l),
(365,0,l),
(346,0,l)
);
},
{
closed = 1;
nodes = (
(347,619,l),
(333,619,l),
(333,642,l),
(347,642,l)
);
},
{
alignment = -1;
ref = C;
}
);
width = 405.75;
},
{
anchors = (
{
name = bottom;
pos = (400,0);
},
{
name = top;
pos = (341,706);
}
);
guides = (
{
angle = 270;
pos = (440,198);
}
);
layerId = "FDB3DCA5-8B9B-4CD6-9F94-BF1B4F24E2DE";
shapes = (
{
closed = 1;
nodes = (
(400,41,l),
(223,41,o),
(88,177,o),
(88,353,cs),
(88,548,o),
(240,693,o),
(440,680,c),
(440,719,l),
(218,733,o),
(46,570,o),
(46,353,cs),
(46,153,o),
(199,0,o),
(400,0,c)
);
},
{
closed = 1;
nodes = (
(440,395,l),
(400,395,l),
(400,0,l),
(413,0,o),
(427,0,o),
(440,0,c)
);
}
);
width = 510;
},
{
anchors = (
{
name = bottom;
pos = (379,0);
},
{
name = top;
pos = (315,706);
}
);
associatedMasterId = "C63D24B8-ED3A-4149-AD3E-D94B7A9D4395";
background = {
anchors = (
{
name = bottom;
pos = (393,0);
},
{
name = center;
pos = (393,353);
},
{
name = ogonek;
pos = (723,10);
},
{
name = top;
pos = (393,706);
},
{
name = topleft;
pos = (-1,706);
},
{
name = topright;
pos = (786,706);
}
);
};
layerId = "7176AA4E-8D6E-47B5-A589-670447DE756D";
name = "12 déc. 23 à 11:48";
shapes = (
{
closed = 1;
nodes = (
(379,160,l),
(270,160,o),
(186,245,o),
(186,353,cs),
(186,463,o),
(270,545,o),
(379,545,c),
(379,706,l),
(177,706,o),
(25,553,o),
(25,353,cs),
(25,153,o),
(177,0,o),
(379,0,c)
);
},
{
closed = 1;
nodes = (
(330,0,o),
(381,-2,o),
(437,0,c),
(437,395,l),
(277,395,l),
(277,14,l)
);
}
);
width = 477;
}
);
metricLeft = O;
note = G;
unicode = 71;
},
{
glyphname = H;
lastChange = "2023-12-12 19:27:03 +0000";
layers = (
{
anchors = (
{
name = bottom;
pos = (277,0);
},
{
name = center;
pos = (277,353);
},
{
name = top;
pos = (277,706);
},
{
name = topleft;
pos = (20,706);
}
);
layerId = "C63D24B8-ED3A-4149-AD3E-D94B7A9D4395";
shapes = (
{
closed = 1;
nodes = (
(40,1,l),
(206,1,l),
(206,272,l),
(346,271,l),
(346,0,l),
(513,0,l),
(513,706,l),
(346,706,l),
(346,437,l),
(206,438,l),
(206,707,l),
(40,707,l)
);
}
);
width = 553;
},
{
associatedMasterId = "FDB3DCA5-8B9B-4CD6-9F94-BF1B4F24E2DE";
hints = (
{
horizontal = 1;
place = (0,21);
target = up;
type = BottomGhost;
},
{
horizontal = 1;
place = (283,75.98);
type = Stem;
},
{
horizontal = 1;
place = (641.99,-20);
target = down;
type = TopGhost;
}
);
layerId = "C839DD54-2E64-4B54-9498-1A69A058689D";
shapes = (
{
closed = 1;
nodes = (
(89,332,l),
(349,332,l),
(349,642,l),
(373,642,l),
(373,0,l),
(349,0,l),
(349,309,l),
(89,309,l),
(89,0,l),
(65,0,l),
(65,642,l),
(89,642,l)
);
}
);
width = 437.5;
},
{
anchors = (
{
name = bottom;
pos = (275,0);
},
{
name = center;
pos = (275,353);
},
{
name = top;
pos = (275,706);
},
{
name = topleft;
pos = (20,706);
}
);
layerId = "FDB3DCA5-8B9B-4CD6-9F94-BF1B4F24E2DE";
shapes = (
{
closed = 1;
nodes = (
(100,0,l),
(140,0,l),
(140,332,l),
(410,332,l),
(410,0,l),
(450,0,l),
(450,706,l),
(410,706,l),
(410,372,l),
(140,372,l),
(140,706,l),
(100,706,l)
);
}
);
width = 550;
}
);
note = H;
unicode = 72;
},
{
glyphname = Hbar;
lastChange = "2023-12-12 20:22:29 +0000";
layers = (
{
layerId = "FDB3DCA5-8B9B-4CD6-9F94-BF1B4F24E2DE";
shapes = (
{
closed = 1;
nodes = (
(80,0,l),
(120,0,l),
(120,332,l),
(400,332,l),
(400,0,l),
(440,0,l),
(440,706,l),
(400,706,l),
(400,372,l),
(120,372,l),
(120,706,l),
(80,706,l)
);
},
{
closed = 1;
nodes = (
(500,552,l),
(500,585,l),
(20,585,l),
(20,552,l)
);
}
);
width = 520;
},
{
layerId = "C63D24B8-ED3A-4149-AD3E-D94B7A9D4395";
shapes = (
{
closed = 1;
nodes = (
(68,1,l),
(234,1,l),
(234,272,l),
(394,271,l),
(394,0,l),
(561,0,l),
(561,706,l),
(394,706,l),
(394,437,l),
(234,438,l),
(234,707,l),
(68,707,l)
);
},
{
closed = 1;
nodes = (
(618,538,l),
(618,631,l),
(10,631,l),
(10,538,l)
);
}
);
width = 628;
}
);
unicode = 294;
},
{
glyphname = I;
lastChange = "2023-12-12 19:26:00 +0000";
layers = (
{
anchors = (
{
name = bottom;
pos = (120,0);
},
{
name = ogonek;
pos = (200,0);
},
{
name = top;
pos = (123,706);
},
{
name = topleft;
pos = (20,706);
}
);
layerId = "C63D24B8-ED3A-4149-AD3E-D94B7A9D4395";
shapes = (
{
closed = 1;
nodes = (
(200,0,l),
(200,706,l),
(40,706,l),
(40,0,l)
);
}
);
width = 240;
},
{
anchors = (
{
name = top;
pos = (76,642);
}
);
associatedMasterId = "FDB3DCA5-8B9B-4CD6-9F94-BF1B4F24E2DE";
hints = (
{
horizontal = 1;
place = (0,21);
target = up;
type = BottomGhost;
},
{
horizontal = 1;
place = (642.03,-20);
target = down;
type = TopGhost;
}
);
layerId = "C839DD54-2E64-4B54-9498-1A69A058689D";
shapes = (
{
closed = 1;
nodes = (
(65,0,l),
(89,0,l),
(89,642,l),
(65,642,l)
);
}
);
width = 153.5;
},
{
anchors = (
{
name = bottom;
pos = (120,0);
},
{
name = ogonek;
pos = (140,0);
},
{
name = top;
pos = (121,706);
},
{
name = topleft;
pos = (10,706);
}
);
layerId = "FDB3DCA5-8B9B-4CD6-9F94-BF1B4F24E2DE";
shapes = (
{
closed = 1;
nodes = (
(140,0,l),
(140,706,l),
(100,706,l),
(100,0,l)
);
}
);
width = 240;
}
);
metricLeft = H;
metricRight = H;
note = I;
unicode = 73;
},
{
glyphname = IJ;
kernLeft = U;
kernRight = U;
lastChange = "2023-12-12 19:26:00 +0000";
layers = (
{
anchors = (
{
name = bottom;
pos = (296,0);
},
{
name = top;
pos = (401,706);
}
);
layerId = "FDB3DCA5-8B9B-4CD6-9F94-BF1B4F24E2DE";
shapes = (
{
closed = 1;
nodes = (
(130,300,l),
(130,706,l),
(90,706,l),
(90,300,l)
);
},
{
pos = (60,0);
ref = J;
}
);
width = 513;
},
{
anchors = (
{
name = bottom;
pos = (286,0);
},
{
name = top;
pos = (425,706);
}
);
guides = (
{
angle = 90;
pos = (36,351);
}
);
layerId = "C63D24B8-ED3A-4149-AD3E-D94B7A9D4395";
shapes = (
{
closed = 1;
nodes = (
(194,370,l),
(194,706,l),
(36,706,l),
(36,370,l)
);
},
{
pos = (1,0);
ref = J;
}
);
width = 505;
}
);
metricLeft = U;
metricRight = U;
unicode = 306;
},
{
glyphname = J;
kernLeft = J;
kernRight = U;
lastChange = "2023-12-13 13:48:57 +0000";
layers = (
{
associatedMasterId = "FDB3DCA5-8B9B-4CD6-9F94-BF1B4F24E2DE";
hints = (
{
horizontal = 1;
place = (0,75);
type = Stem;
},
{
horizontal = 1;
place = (641.99,-20);
target = down;
type = TopGhost;
}
);
layerId = "C839DD54-2E64-4B54-9498-1A69A058689D";
shapes = (
{
closed = 1;
nodes = (
(281,149,ls),
(281,80,o),
(227,24,o),
(157,24,cs),
(87,24,o),
(33,80,o),
(33,149,cs),
(33,192,l),
(8,192,l),
(8,150,ls),
(7,70,o),
(75,0,o),
(156,0,cs),
(239,0,o),
(306,70,o),
(305,150,cs),
(305,642,l),
(281,642,l)
);
}
);
width = 360.25;
},
{
associatedMasterId = "FDB3DCA5-8B9B-4CD6-9F94-BF1B4F24E2DE";
hints = (
{
horizontal = 1;
place = (0,83);
type = Stem;
},
{
horizontal = 1;
place = (706,-20);
target = down;
type = TopGhost;
}
);
layerId = "10E62B44-F507-4463-B447-930CB5DBAC53";
name = "Apr 13 20, 11:25";
shapes = (
{
closed = 1;
nodes = (
(309,168,ls),
(309,99,o),
(255,43,o),
(185,43,cs),
(114,43,o),
(59,99,o),
(59,168,cs),
(59,219,l),
(17,219,l),
(17,169,ls),
(15,78,o),
(91,0,o),
(184,0,cs),
(277,0,o),
(353,78,o),
(352,169,cs),
(352,706,l),
(309,706,l)
);
}
);
width = 392;
},
{
associatedMasterId = "C63D24B8-ED3A-4149-AD3E-D94B7A9D4395";
hints = (
{
horizontal = 1;
place = (0,83);
type = Stem;
},
{
horizontal = 1;
place = (706,-20);
target = down;
type = TopGhost;
}
);
layerId = "22B6E87E-6A7C-4918-8156-BB5836295D4E";
name = "Apr 23 20, 18:28";
shapes = (
{
closed = 1;
nodes = (
(239,201,ls),
(239,182,o),
(222,165,o),
(201,165,cs),
(181,165,o),
(165,182,o),
(165,201,cs),
(165,348,l),
(0,348,l),
(0,199,ls),
(0,85,o),
(88,0,o),
(204,0,cs),
(316,0,o),
(403,85,o),
(405,199,cs),
(405,706,l),
(239,706,l)
);
}
);
width = 425;
},
{
anchors = (
{
name = bottom;
pos = (269,0);
},
{
name = top;
pos = (408,706);
}
);
associatedMasterId = "C63D24B8-ED3A-4149-AD3E-D94B7A9D4395";
layerId = "F62172A0-F78C-4F28-BDB4-E1FE55BEE8E6";
name = "12 déc. 23 à 14:00";
shapes = (
{
closed = 1;
nodes = (
(328,224,ls),
(328,183,o),
(295,150,o),
(254,150,cs),
(212,150,o),
(180,182,o),
(180,224,cs),
(180,328,l),
(20,328,l),
(20,224,ls),
(20,94,o),
(124,-10,o),
(254,-10,cs),
(384,-10,o),
(488,94,o),
(488,224,cs),
(488,706,l),
(328,706,l)
);
}
);
width = 524;
},
{
anchors = (
{
name = bottom;
pos = (269,0);
},
{
name = top;
pos = (408,706);
}
);
associatedMasterId = "C63D24B8-ED3A-4149-AD3E-D94B7A9D4395";
layerId = "47C51602-9B0C-41AE-8F23-644113A67601";
name = "12 déc. 23 à 14:01";
shapes = (
{
closed = 1;
nodes = (
(328,224,ls),
(328,183,o),
(295,150,o),
(254,150,cs),
(212,150,o),
(180,182,o),
(180,224,cs),
(180,328,l),
(20,328,l),
(20,224,ls),
(20,94,o),
(124,-10,o),
(254,-10,cs),
(384,-10,o),
(488,94,o),
(488,224,cs),
(488,706,l),
(328,706,l)
);
}
);
width = 524;
},
{
anchors = (
{
name = bottom;
pos = (45,0);
},
{
name = top;
pos = (184,706);
}
);
associatedMasterId = "C63D24B8-ED3A-4149-AD3E-D94B7A9D4395";
layerId = "F9BE9A8E-36D4-4DF9-ADEE-3423586D21C0";
name = "12 déc. 23 à 14:01";
shapes = (
{
closed = 1;
nodes = (
(104,124,ls),
(104,83,o),
(71,50,o),
(30,50,cs),
(0,50,l),
(0,-110,l),
(30,-110,ls),
(160,-110,o),
(264,-6,o),
(264,124,cs),
(264,706,l),
(104,706,l)
);
}
);
width = 300;
},
{
anchors = (
{
name = bottom;
pos = (249,0);
},
{
name = top;
pos = (388,706);
}
);
layerId = "C63D24B8-ED3A-4149-AD3E-D94B7A9D4395";
name = Black;
shapes = (
{
closed = 1;
nodes = (
(372,-10,o),
(468,86,o),
(468,207,cs),
(468,706,l),
(310,706,l),
(310,207,ls),
(310,175,o),
(283,148,o),
(251,148,cs),
(219,148,o),
(193,174,o),
(193,207,cs),
(193,276,l),
(35,276,l),
(35,207,ls),
(35,86,o),
(131,-10,o),
(251,-10,cs)
);
}
);
width = 504;
},
{
anchors = (
{
name = bottom;
pos = (54,0);
},
{
name = top;
pos = (159,706);
}
);
associatedMasterId = "FDB3DCA5-8B9B-4CD6-9F94-BF1B4F24E2DE";
layerId = "F9310308-204D-4F35-BBD4-E44125C4C486";
name = "12 déc. 23 à 14:02";
shapes = (
{
closed = 1;
nodes = (
(139,157,ls),
(139,87,o),
(84,31,o),
(13,31,cs),
(0,31,l),
(0,-10,l),
(13,-10,ls),
(105,-10,o),
(180,67,o),
(180,158,cs),
(180,706,l),
(139,706,l)
);
}
);
width = 270;
},
{
anchors = (
{
name = bottom;
pos = (237,0);
},
{
name = top;
pos = (342,706);
}
);
layerId = "FDB3DCA5-8B9B-4CD6-9F94-BF1B4F24E2DE";
name = Thin;
shapes = (
{
closed = 1;
nodes = (
(288,-10,o),
(363,67,o),
(363,158,cs),
(363,706,l),
(322,706,l),
(322,157,ls),
(322,87,o),
(267,31,o),
(197,31,cs),
(126,31,o),
(70,88,o),
(70,157,cs),
(70,217,l),
(30,217,l),
(30,158,ls),
(30,68,o),
(103,-10,o),
(196,-10,cs)
);
}
);
width = 453;
}
);
metricRight = U;
note = J;
unicode = 74;
},
{
glyphname = K;
kernRight = X;
lastChange = "2023-12-12 19:26:00 +0000";
layers = (
{
anchors = (
{
name = bottom;
pos = (376,0);
},
{
name = top;
pos = (376,706);
}
);
background = {
shapes = (
{
closed = 1;
nodes = (
(714,-5,l),
(714,160,l),
(202,364,l),
(714,548,l),
(714,712,l),
(190,515,l),
(190,706,l),
(54,706,l),
(54,0,l),
(190,0,l),
(190,213,l)
);
}
);
};
guides = (
{
pos = (30,711);
}
);
layerId = "C63D24B8-ED3A-4149-AD3E-D94B7A9D4395";
shapes = (
{
closed = 1;
nodes = (
(681,-21,l),
(681,161,l),
(100,409,l),
(100,238,l),
(679,-23,l)
);
},
{
closed = 1;
nodes = (
(200,0,l),
(200,706,l),
(40,706,l),
(40,0,l)
);
},
{
closed = 1;
nodes = (
(681,548,l),
(681,729,l),
(679,730,l),
(100,499,l),
(100,328,l)
);
}
);
width = 711;
},
{
associatedMasterId = "FDB3DCA5-8B9B-4CD6-9F94-BF1B4F24E2DE";
hints = (
{
horizontal = 1;
place = (0,21);
target = up;
type = BottomGhost;
},
{
horizontal = 1;
place = (643.01,-20);
target = down;
type = TopGhost;
}
);
layerId = "C839DD54-2E64-4B54-9498-1A69A058689D";
shapes = (
{
closed = 1;
nodes = (
(578,0,l),
(578,25,l),
(131,290,l),
(131,252,l),
(573,0,l)
);
},
{
closed = 1;
nodes = (
(131,392,l),
(131,355,l),
(578,618,l),
(578,644,l),
(573,644,l)
);
},
{
alignment = -1;
pos = (-7,0);
ref = I;
}
);
width = 612.8;
},
{
anchors = (
{
name = bottom;
pos = (339,0);
},
{
name = top;
pos = (339,706);
}
);
guides = (
{
pos = (0,660);
}
);
layerId = "FDB3DCA5-8B9B-4CD6-9F94-BF1B4F24E2DE";
shapes = (
{
closed = 1;
nodes = (
(677,-18,l),
(677,29,l),
(120,373,l),
(120,324,l),
(676,-19,l)
);
},
{
closed = 1;
nodes = (
(140,0,l),
(140,706,l),
(100,706,l),
(100,0,l)
);
},
{
closed = 1;
nodes = (
(677,677,l),
(677,725,l),
(676,726,l),
(120,386,l),
(120,337,l)
);
}
);
width = 687;
}
);
metricLeft = H;
note = K;
unicode = 75;
},
{
glyphname = L;
kernLeft = H;
kernRight = L;
lastChange = "2023-12-12 20:27:49 +0000";
layers = (
{
anchors = (
{
name = bottom;
pos = (180,0);
},
{
name = center;
pos = (180,353);
},
{
name = top;
pos = (120,706);
},
{
name = topright;
pos = (224,706);
}
);
layerId = "C63D24B8-ED3A-4149-AD3E-D94B7A9D4395";
shapes = (
{
closed = 1;
nodes = (
(330,0,l),
(330,160,l),
(200,160,l),
(200,706,l),
(40,706,l),
(40,0,l)
);
}
);
width = 350;
},
{
associatedMasterId = "FDB3DCA5-8B9B-4CD6-9F94-BF1B4F24E2DE";
hints = (
{
horizontal = 1;
place = (0,75.97);
type = Stem;
},
{
horizontal = 1;
place = (642.97,-20);
target = down;
type = TopGhost;
}
);
layerId = "C839DD54-2E64-4B54-9498-1A69A058689D";
shapes = (
{
closed = 1;
nodes = (
(65,642,l),
(65,0,l),
(317,0,l),
(317,24,l),
(89,24,l),
(89,642,l)
);
}
);
width = 347;
},
{
anchors = (
{
name = bottom;
pos = (210,0);
},
{
name = center;
pos = (160,353);
},
{
name = top;
pos = (120,706);
},
{
name = topright;
pos = (210,706);
}
);
layerId = "FDB3DCA5-8B9B-4CD6-9F94-BF1B4F24E2DE";
shapes = (
{
closed = 1;
nodes = (
(310,0,l),
(310,40,l),
(140,40,l),
(140,706,l),
(100,706,l),
(100,0,l)
);
}
);
width = 340;
}
);
metricLeft = H;
note = L;
unicode = 76;
},
{
glyphname = Lslash;
lastChange = "2023-12-12 19:26:00 +0000";
layers = (
{
layerId = "FDB3DCA5-8B9B-4CD6-9F94-BF1B4F24E2DE";
shapes = (
{
closed = 1;
nodes = (
(252,387,l),
(231,420,l),
(10,257,l),
(32,224,l)
);
},
{
pos = (-40,0);
ref = L;
}
);
width = 300;
},
{
layerId = "C63D24B8-ED3A-4149-AD3E-D94B7A9D4395";
shapes = (
{
closed = 1;
nodes = (
(297,475,l),
(254,538,l),
(-19,336,l),
(23,274,l)
);
},
{
pos = (10,0);
ref = L;
}
);
width = 360;
}
);
metricRight = L;
unicode = 321;
},
{
glyphname = M;
lastChange = "2023-12-12 19:26:00 +0000";
layers = (
{
anchors = (
{
name = bottom;
pos = (409,0);
},
{
name = top;
pos = (409,706);
}
);
layerId = "C63D24B8-ED3A-4149-AD3E-D94B7A9D4395";
shapes = (
{
closed = 1;
nodes = (
(414,-20,l),
(622,434,l),
(622,0,l),
(778,0,l),
(778,707,l),
(599,707,l),
(413,324,l),
(229,707,l),
(40,707,l),
(40,0,l),
(196,0,l),
(196,415,l),
(411,-20,l)
);
}
);
width = 818;
},
{
associatedMasterId = "FDB3DCA5-8B9B-4CD6-9F94-BF1B4F24E2DE";
hints = (
{
horizontal = 1;
place = (0,21);
target = up;
type = BottomGhost;
},
{
horizontal = 1;
place = (643.01,-20);
target = down;
type = TopGhost;
}
);
layerId = "C839DD54-2E64-4B54-9498-1A69A058689D";
shapes = (
{
alignment = -1;
pos = (19,-1);
ref = V;
},
{
alignment = -1;
pos = (411,0);
ref = I;
},
{
alignment = -1;
ref = I;
}
);
width = 564;
},
{
anchors = (
{
name = bottom;
pos = (394,0);
},
{
name = top;
pos = (394,706);
}
);
layerId = "FDB3DCA5-8B9B-4CD6-9F94-BF1B4F24E2DE";
shapes = (
{
closed = 1;
nodes = (
(395,-38,l),
(647,602,l),
(647,0,l),
(687,0,l),
(687,706,l),
(645,706,l),
(393,70,l),
(142,706,l),
(100,706,l),
(100,0,l),
(140,0,l),
(140,602,l),
(393,-38,l)
);
}
);
width = 787;
}
);
metricLeft = H;
metricRight = H;
note = M;
unicode = 77;
},
{
glyphname = N;
kernLeft = A;
kernRight = V;
lastChange = "2023-12-12 21:07:47 +0000";
layers = (
{
anchors = (
{
name = bottom;
pos = (320,0);
},
{
name = top;
pos = (552,706);
}
);
guides = (
{
angle = 250.6825;
pos = (449,483);
}
);
layerId = "C63D24B8-ED3A-4149-AD3E-D94B7A9D4395";
shapes = (
{
closed = 1;
nodes = (
(176,0,l),
(289,329,l),
(457,0,l),
(614,0,l),
(847,706,l),
(694,706,l),
(531,241,l),
(267,769,l),
(265,769,l),
(10,0,l)
);
}
);
width = 857;
},
{
anchors = (
{
name = top;
pos = (497,642);
}
);
associatedMasterId = "FDB3DCA5-8B9B-4CD6-9F94-BF1B4F24E2DE";
hints = (
{
horizontal = 1;
place = (0,21);
target = up;
type = BottomGhost;
},
{
horizontal = 1;
place = (621.49,21);
target = up;
type = BottomGhost;
},
{
horizontal = 1;
place = (643.01,21);
target = up;
type = BottomGhost;
}
);
layerId = "C839DD54-2E64-4B54-9498-1A69A058689D";
shapes = (
{
closed = 1;
nodes = (
(498,0,l),
(712,642,l),
(680,642,l),
(482,54,l),
(287,642,l),
(211,642,l),
(422,0,l)
);
},
{
alignment = -1;
pos = (0,642);
ref = V;
scale = (1,-1);
}
);
width = 739.4;
},
{
anchors = (
{
name = bottom;
pos = (290,0);
},
{
name = top;
pos = (537,706);
}
);
background = {
shapes = (
{
closed = 1;
nodes = (
(72,0,l),
(284,633,l),
(496,0,l),
(538,0,l),
(285,757,l),
(283,757,l),
(30,0,l)
);
}
);
};
guides = (
{
angle = 252.1952;
pos = (416,392);
}
);
layerId = "FDB3DCA5-8B9B-4CD6-9F94-BF1B4F24E2DE";
shapes = (
{
closed = 1;
nodes = (
(72,0,l),
(284,634,l),
(496,0,l),
(546,0,l),
(774,706,l),
(735,706,l),
(524,49,l),
(285,757,l),
(283,757,l),
(30,0,l)
);
}
);
width = 804;
},
{
anchors = (
{
name = top;
pos = (547,706);
}
);
associatedMasterId = "C63D24B8-ED3A-4149-AD3E-D94B7A9D4395";
hints = (
{
horizontal = 1;
place = (0,21);
target = up;
type = BottomGhost;
},
{
horizontal = 1;
place = (684,21);
target = up;
type = BottomGhost;
},
{
horizontal = 1;
place = (707,21);
target = up;
type = BottomGhost;
}
);
layerId = "90486CB6-9845-44E0-ACBB-2B84FB8EBB82";
name = "Apr 13 20, 11:53";
shapes = (
{
closed = 1;
nodes = (
(693,706,l),
(534,225,l),
(292,918,l),
(285,918,l),
(-37,0,l),
(134,0,l),
(288,439,l),
(444,0,l),
(613,0,l),
(846,706,l)
);
}
);
width = 809;
}
);
metricLeft = A;
metricRight = A;
note = N;
unicode = 78;
},
{
glyphname = O;
kernLeft = O;
kernRight = O;
lastChange = "2023-12-13 14:35:16 +0000";
layers = (
{
anchors = (
{
name = bottom;
pos = (393,0);
},
{
name = center;
pos = (393,353);
},
{
name = ogonek;
pos = (723,10);
},
{
name = top;
pos = (393,706);
},
{
name = topleft;
pos = (-1,706);
},
{
name = topright;
pos = (786,706);
}
);
layerId = "C63D24B8-ED3A-4149-AD3E-D94B7A9D4395";
shapes = (
{
attr = {
strokePos = "1";
};
closed = 1;
nodes = (
(601,-14,o),
(760,145,o),
(760,353,cs),
(760,561,o),
(601,720,o),
(393,720,cs),
(184,720,o),
(25,561,o),
(25,353,cs),
(25,145,o),
(184,-14,o),
(393,-14,cs)
);
},
{
attr = {
strokePos = "1";
};
closed = 1;
nodes = (
(276,148,o),
(187,237,o),
(187,353,cs),
(187,469,o),
(276,558,o),
(393,558,cs),
(509,558,o),
(598,469,o),
(598,353,cs),
(598,237,o),
(509,148,o),
(393,148,cs)
);
}
);
width = 785;
},
{
anchors = (
{
name = top;
pos = (347,642);
}
);
associatedMasterId = "FDB3DCA5-8B9B-4CD6-9F94-BF1B4F24E2DE";
hints = (
{
horizontal = 1;
place = (0,75);
type = Stem;
},
{
horizontal = 1;
place = (566.02,75.98);
type = Stem;
}
);
layerId = "C839DD54-2E64-4B54-9498-1A69A058689D";
shapes = (
{
closed = 1;
nodes = (
(515,619,o),
(645,489,o),
(645,321,cs),
(645,152,o),
(515,23,o),
(347,23,cs),
(178,23,o),
(49,152,o),
(49,321,cs),
(49,489,o),
(178,619,o),
(347,619,cs)
);
},
{
closed = 1;
nodes = (
(164,642,o),
(25,503,o),
(25,321,cs),
(25,139,o),
(164,0,o),
(347,0,cs),
(529,0,o),
(668,139,o),
(668,321,cs),
(668,503,o),
(529,642,o),
(347,642,cs)
);
}
);
width = 693;
},
{
anchors = (
{
name = bottom;
pos = (414,0);
},
{
name = center;
pos = (414,353);
},
{
name = ogonek;
pos = (744,10);
},
{
name = top;
pos = (414,706);
},
{
name = topleft;
pos = (20,706);
},
{
name = topright;
pos = (807,706);
}
);
layerId = "FDB3DCA5-8B9B-4CD6-9F94-BF1B4F24E2DE";
shapes = (
{
attr = {
strokePos = 1;
};
closed = 1;
nodes = (
(622,-14,o),
(781,145,o),
(781,353,cs),
(781,561,o),
(622,720,o),
(414,720,cs),
(205,720,o),
(46,561,o),
(46,353,cs),
(46,145,o),
(205,-14,o),
(414,-14,cs)
);
},
{
attr = {
strokePos = 1;
};
closed = 1;
nodes = (
(227,26,o),
(86,167,o),
(86,353,cs),
(86,539,o),
(227,680,o),
(414,680,cs),
(600,680,o),
(741,539,o),
(741,353,cs),
(741,167,o),
(600,26,o),
(414,26,cs)
);
}
);
width = 827;
},
{
anchors = (
{
name = top;
pos = (379,706);
}
);
associatedMasterId = "C63D24B8-ED3A-4149-AD3E-D94B7A9D4395";
layerId = "14476F24-3225-45B1-990F-3C2C69A1BC69";
name = "12 déc. 23 à 11:38";
shapes = (
{
closed = 1;
nodes = (
(488,545,o),
(571,463,o),
(571,353,cs),
(571,245,o),
(488,160,o),
(379,160,cs),
(270,160,o),
(186,245,o),
(186,353,cs),
(186,463,o),
(270,545,o),
(379,545,cs)
);
},
{
closed = 1;
nodes = (
(177,706,o),
(25,553,o),
(25,353,cs),
(25,153,o),
(177,0,o),
(379,0,cs),
(579,0,o),
(732,153,o),
(732,353,cs),
(732,553,o),
(579,706,o),
(379,706,cs)
);
}
);
width = 757;
}
);
note = O;
unicode = 79;
},
{
glyphname = Oslash;
kernLeft = O;
kernRight = O;
lastChange = "2023-12-12 20:28:38 +0000";
layers = (
{
anchors = (
{
name = top;
pos = (414,706);
}
);
layerId = "FDB3DCA5-8B9B-4CD6-9F94-BF1B4F24E2DE";
shapes = (
{
closed = 1;
nodes = (
(743,660,l),
(716,689,l),
(85,46,l),
(113,18,l)
);
},
{
ref = O;
}
);
width = 827;
},
{
anchors = (
{
name = top;
pos = (380,706);
}
);
layerId = "C63D24B8-ED3A-4149-AD3E-D94B7A9D4395";
shapes = (
{
closed = 1;
nodes = (
(718,633,l),
(620,731,l),
(31,85,l),
(131,-12,l)
);
},
{
ref = O;
}
);
width = 759;
}
);
unicode = 216;
},
{
glyphname = P;
kernRight = P;
lastChange = "2023-12-13 13:12:42 +0000";
layers = (
{
anchors = (
{
name = top;
pos = (123,706);
}
);
layerId = "C63D24B8-ED3A-4149-AD3E-D94B7A9D4395";
shapes = (
{
closed = 1;
nodes = (
(240,255,ls),
(365,255,o),
(463,354,o),
(463,481,cs),
(463,607,o),
(365,706,o),
(240,706,cs),
(177,706,l),
(177,541,l),
(240,541,ls),
(279,541,o),
(299,511,o),
(299,481,cs),
(299,451,o),
(279,421,o),
(240,421,cs),
(174,421,l),
(174,255,l)
);
},
{
closed = 1;
nodes = (
(200,0,l),
(200,706,l),
(40,706,l),
(40,0,l)
);
}
);
width = 473;
},
{
associatedMasterId = "FDB3DCA5-8B9B-4CD6-9F94-BF1B4F24E2DE";
hints = (
{
horizontal = 1;
place = (283.01,75.98);
type = Stem;
},
{
horizontal = 1;
place = (566.02,75.98);
type = Stem;
},
{
horizontal = 1;
place = (0,21);
target = up;
type = BottomGhost;
}
);
layerId = "C839DD54-2E64-4B54-9498-1A69A058689D";
shapes = (
{
closed = 1;
nodes = (
(81,618,l),
(154,618,o),
(216,555,o),
(216,480,cs),
(216,404,o),
(154,342,o),
(81,342,c),
(81,319,l),
(171,319,o),
(242,391,o),
(242,480,cs),
(242,569,o),
(168,642,o),
(81,642,c)
);
},
{
alignment = -1;
ref = I;
}
);
width = 239;
},
{
anchors = (
{
name = top;
pos = (121,706);
}
);
layerId = "FDB3DCA5-8B9B-4CD6-9F94-BF1B4F24E2DE";
shapes = (
{
closed = 1;
nodes = (
(141,311,ls),
(247,313,o),
(336,399,o),
(336,508,cs),
(336,617,o),
(247,705,o),
(141,705.997,cs),
(129,706,l),
(129,667,l),
(140,667,ls),
(223,667,o),
(296,595,o),
(296,508,cs),
(296,422,o),
(223,351,o),
(140,351,cs),
(109,351,l),
(109,311,l)
);
},
{
closed = 1;
nodes = (
(140,0,l),
(140,706,l),
(100,706,l),
(100,0,l)
);
}
);
width = 376;
}
);
metricLeft = H;
note = P;
unicode = 80;
},
{
glyphname = Thorn;
lastChange = "2023-12-13 13:13:58 +0000";
layers = (
{
layerId = "C63D24B8-ED3A-4149-AD3E-D94B7A9D4395";
shapes = (
{
closed = 1;
nodes = (
(343,98,o),
(449,206,o),
(449,344,cs),
(449,483,o),
(343,591,o),
(206,591,c),
(206,424,l),
(250,422,o),
(283,388,o),
(283,344,cs),
(283,300,o),
(250,265,o),
(206,264,c),
(206,97,l)
);
},
{
closed = 1;
nodes = (
(206,0,l),
(206,706,l),
(40,706,l),
(40,0,l)
);
}
);
width = 459;
},
{
anchors = (
{
name = _top;
pos = (51,641);
}
);
associatedMasterId = "FDB3DCA5-8B9B-4CD6-9F94-BF1B4F24E2DE";
hints = (
{
horizontal = 1;
place = (0,21);
target = up;
type = BottomGhost;
},
{
horizontal = 1;
place = (642.056,-20);
target = down;
type = TopGhost;
}
);
layerId = "C839DD54-2E64-4B54-9498-1A69A058689D";
shapes = (
{
closed = 1;
nodes = (
(65,642,l),
(65,640,l),
(65,3,l),
(65,0,l),
(67,0,l),
(51,0,l),
(86,0,l),
(89,0,l),
(89,3,l),
(89,640,l),
(89,642,l),
(86,642,l),
(67,642,l)
);
},
{
closed = 1;
nodes = (
(89,438,l),
(157,437,o),
(210,382,o),
(210,313,cs),
(210,242,o),
(157,188,o),
(89,187,c)
);
},
{
closed = 1;
nodes = (
(89,165,l),
(171,166,o),
(235,229,o),
(235,313,cs),
(235,397,o),
(171,461,o),
(89,461,c)
);
}
);
width = 232.2;
},
{
layerId = "FDB3DCA5-8B9B-4CD6-9F94-BF1B4F24E2DE";
shapes = (
{
closed = 1;
nodes = (
(280,98,o),
(386,206,o),
(386,344,cs),
(386,483,o),
(280,591,o),
(143,591,c),
(143,547,l),
(261,542,o),
(342,459,o),
(342,344,cs),
(342,227,o),
(261,144,o),
(143,141,c),
(143,97,l)
);
},
{
closed = 1;
nodes = (
(143,0,l),
(143,706,l),
(100,706,l),
(100,0,l)
);
}
);
width = 426;
},
{
anchors = (
{
name = _top;
pos = (112,705);
}
);
associatedMasterId = "FDB3DCA5-8B9B-4CD6-9F94-BF1B4F24E2DE";
hints = (
{
horizontal = 1;
place = (0,21);
target = up;
type = BottomGhost;
},
{
horizontal = 1;
place = (706,-20);
target = down;
type = TopGhost;
}
);
layerId = "4F49D032-3799-49C8-8DE0-156577A0812F";
name = "8 juil. 23 à 08:43";
shapes = (
{
closed = 1;
nodes = (
(292,123,o),
(362,234,o),
(362,344,cs),
(362,455,o),
(292,565,o),
(152,565,c),
(152,522,l),
(263,522,o),
(318,433,o),
(318,344,cs),
(318,255,o),
(263,166,o),
(152,166,c),
(152,123,l)
);
},
{
closed = 1;
nodes = (
(112,0,l),
(111,0,l),
(150,0,l),
(153,0,l),
(153,3,l),
(153,704,l),
(153,706,l),
(150,706,l),
(112,706,l),
(110,706,l),
(110,704,l),
(110,3,l),
(110,0,l)
);
}
);
width = 363;
}
);
metricLeft = H;
metricRight = P;
unicode = 222;
},
{
glyphname = Q;
kernLeft = O;
kernRight = O;
lastChange = "2023-12-12 19:26:00 +0000";
layers = (
{
guides = (
{
pos = (493,-20);
}
);
layerId = "C63D24B8-ED3A-4149-AD3E-D94B7A9D4395";
shapes = (
{
closed = 1;
nodes = (
(734,-38,l),
(734,144,l),
(411,408,l),
(317,292,l),
(731,-40,l)
);
},
{
alignment = -1;
ref = O;
}
);
width = 795;
},
{
associatedMasterId = "FDB3DCA5-8B9B-4CD6-9F94-BF1B4F24E2DE";
hints = (
{
horizontal = 1;
place = (0,75.97);
type = Stem;
},
{
horizontal = 1;
place = (566.99,76.02);
type = Stem;
}
);
layerId = "C839DD54-2E64-4B54-9498-1A69A058689D";
shapes = (
{
closed = 1;
nodes = (
(667,36,l),
(309,281,l),
(306,281,l),
(306,246,l),
(661,0,l),
(664,0,l)
);
},
{
alignment = -1;
ref = O;
}
);
width = 693;
},
{
layerId = "FDB3DCA5-8B9B-4CD6-9F94-BF1B4F24E2DE";
shapes = (
{
closed = 1;
nodes = (
(735,-29,l),
(735,20,l),
(397,369,l),
(369,338,l),
(734,-30,l)
);
},
{
alignment = -1;
ref = O;
}
);
width = 837;
},
{
associatedMasterId = "FDB3DCA5-8B9B-4CD6-9F94-BF1B4F24E2DE";
hints = (
{
horizontal = 1;
place = (0,84);
type = Stem;
},
{
horizontal = 1;
place = (624,84);
type = Stem;
}
);
layerId = "883F2D1D-8530-42C3-A148-2C9A77A7DEE4";
name = "11 déc. 23 à 17:02";
shapes = (
{
closed = 1;
nodes = (
(735,39,l),
(377,312,l),
(377,263,l),
(735,-10,l)
);
},
{
alignment = -1;
ref = O;
}
);
width = 837;
},
{
associatedMasterId = "C63D24B8-ED3A-4149-AD3E-D94B7A9D4395";
guides = (
{
pos = (493,-20);
}
);
hints = (
{
horizontal = 1;
place = (0,84);
type = Stem;
},
{
horizontal = 1;
place = (624,84);
type = Stem;
}
);
layerId = "D2230A85-D2C3-487B-B06E-9C89850ECCE4";
name = "11 déc. 23 à 17:02";
shapes = (
{
closed = 1;
nodes = (
(734,160,l),
(337,432,l),
(337,252,l),
(730,-20,l)
);
},
{
alignment = -1;
ref = O;
}
);
width = 769;
}
);
metricLeft = O;
metricRight = "=O+10";
note = Q;
unicode = 81;
},
{
glyphname = R;
kernRight = R;
lastChange = "2023-12-13 13:45:33 +0000";
layers = (
{
anchors = (
{
name = bottom;
pos = (242,0);
},
{
name = top;
pos = (222,706);
}
);
layerId = "C63D24B8-ED3A-4149-AD3E-D94B7A9D4395";
shapes = (
{
closed = 1;
nodes = (
(200,0,l),
(200,706,l),
(40,706,l),
(40,0,l)
);
},
{
closed = 1;
nodes = (
(455,-1,l),
(331,343,l),
(189,309,l),
(289,-1,l)
);
},
{
closed = 1;
nodes = (
(240,265,ls),
(365,265,o),
(463,354,o),
(463,481,cs),
(463,607,o),
(365,706,o),
(240,706,cs),
(177,706,l),
(177,541,l),
(240,541,ls),
(279,541,o),
(299,511,o),
(299,481,cs),
(299,451,o),
(279,421,o),
(240,421,cs),
(174,421,l),
(174,265,l)
);
}
);
width = 483;
},
{
associatedMasterId = "FDB3DCA5-8B9B-4CD6-9F94-BF1B4F24E2DE";
hints = (
{
horizontal = 1;
place = (0,21);
target = up;
type = BottomGhost;
},
{
horizontal = 1;
place = (283,76.02);
type = Stem;
},
{
horizontal = 1;
place = (566.01,76.02);
type = Stem;
}
);
layerId = "C839DD54-2E64-4B54-9498-1A69A058689D";
shapes = (
{
closed = 1;
nodes = (
(117,318,l),
(236,0,l),
(260,0,l),
(140,349,l)
);
},
{
alignment = -1;
ref = P;
}
);
width = 267.4;
},
{
anchors = (
{
name = bottom;
pos = (196,0);
},
{
name = top;
pos = (196,706);
}
);
layerId = "FDB3DCA5-8B9B-4CD6-9F94-BF1B4F24E2DE";
shapes = (
{
closed = 1;
nodes = (
(140,0,l),
(140,706,l),
(100,706,l),
(100,0,l)
);
},
{
closed = 1;
nodes = (
(341,0,l),
(217,361,l),
(184,342,l),
(298,0,l)
);
},
{
closed = 1;
nodes = (
(141,311,ls),
(247,313,o),
(336,399,o),
(336,508,cs),
(336,617,o),
(247,705,o),
(141,705.997,cs),
(129,706,l),
(129,667,l),
(140,667,ls),
(223,667,o),
(296,595,o),
(296,508,cs),
(296,422,o),
(223,351,o),
(140,351,cs),
(109,351,l),
(109,311,l)
);
}
);
width = 391;
},
{
anchors = (
{
name = top;
pos = (123,706);
}
);
associatedMasterId = "C63D24B8-ED3A-4149-AD3E-D94B7A9D4395";
hints = (
{
horizontal = 1;
place = (0,21);
target = up;
type = BottomGhost;
},
{
horizontal = 1;
place = (311,84);
type = Stem;
},
{
horizontal = 1;
place = (623,84);
type = Stem;
},
{
horizontal = 1;
place = (311,84);
type = Stem;
},
{
horizontal = 1;
place = (623,84);
type = Stem;
},
{
horizontal = 1;
place = (0,21);
target = up;
type = BottomGhost;
},
{
horizontal = 1;
place = (0,21);
target = up;
type = BottomGhost;
},
{
horizontal = 1;
place = (706,-20);
target = down;
type = TopGhost;
}
);
layerId = "9F67575B-7E38-400F-A268-401655C0F45D";
name = "Apr 23 20, 18:33";
shapes = (
{
closed = 1;
nodes = (
(183,309,l),
(279,-1,l),
(445,-1,l),
(325,343,l)
);
},
{
closed = 1;
nodes = (
(200,544,l),
(232,544,o),
(259,517,o),
(259,484,cs),
(259,452,o),
(232,427,o),
(200,427,c),
(200,264,l),
(316,265,o),
(418,362,o),
(418,486,cs),
(418,607,o),
(320,706,o),
(200,706,c)
);
},
{
closed = 1;
nodes = (
(40,0,l),
(200,0,l),
(200,706,l),
(40,706,l)
);
}
);
width = 465;
}
);
metricLeft = H;
note = R;
unicode = 82;
},
{
glyphname = S;
kernLeft = S;
kernRight = S;
lastChange = "2023-12-13 13:46:53 +0000";
layers = (
{
anchors = (
{
name = bottom;
pos = (254,0);
},
{
name = top;
pos = (254,706);
}
);
layerId = "C63D24B8-ED3A-4149-AD3E-D94B7A9D4395";
shapes = (
{
closed = 1;
nodes = (
(380,-19,o),
(479,80,o),
(479,206,cs),
(479,337,o),
(380,434,o),
(254,434,cs),
(222,434,o),
(194,463,o),
(194,500,cs),
(194,533,o),
(222,560,o),
(254,560,cs),
(291,560,o),
(321,533,o),
(321,500,cs),
(321,491,l),
(483,491,l),
(483,501,ls),
(483,628,o),
(386,724,o),
(253,724,cs),
(127,724,o),
(30,628,o),
(30,501,cs),
(30,369,o),
(127,272,o),
(253,272,cs),
(288,272,o),
(315,245,o),
(315,207,cs),
(315,172,o),
(288,145,o),
(253,145,cs),
(217,145,o),
(188,172,o),
(188,208,cs),
(188,215,l),
(25,215,l),
(25,207,ls),
(25,80,o),
(120,-19,o),
(254,-19,cs)
);
}
);
width = 508;
},
{
associatedMasterId = "FDB3DCA5-8B9B-4CD6-9F94-BF1B4F24E2DE";
hints = (
{
horizontal = 1;
place = (0,75);
type = Stem;
},
{
horizontal = 1;
place = (283.01,76.02);
type = Stem;
},
{
horizontal = 1;
place = (566.02,76.01);
type = Stem;
}
);
layerId = "C839DD54-2E64-4B54-9498-1A69A058689D";
shapes = (
{
closed = 1;
nodes = (
(110,642,o),
(37,570,o),
(37,474,cs),
(37,381,o),
(110,309,o),
(205,309,cs),
(286,309,o),
(350,246,o),
(350,169,cs),
(350,87,o),
(286,23,o),
(205,23,cs),
(128,23,o),
(67,86,o),
(65,163,cs),
(65,211,l),
(40,211,l),
(40,164,ls),
(42,70,o),
(115,1,o),
(204,1,cs),
(302,1,o),
(372,71,o),
(372,170,cs),
(372,261,o),
(302,334,o),
(204,334,cs),
(123,334,o),
(61,395,o),
(61,475,cs),
(61,555,o),
(123,618,o),
(204,618,cs),
(284,618,o),
(346,555,o),
(346,475,cs),
(346,432,l),
(370,432,l),
(370,474,ls),
(370,570,o),
(299,642,o),
(205,642,cs)
);
}
);
width = 410.125;
},
{
anchors = (
{
name = bottom;
pos = (248,0);
},
{
name = top;
pos = (248,706);
}
);
associatedMasterId = "FDB3DCA5-8B9B-4CD6-9F94-BF1B4F24E2DE";
hints = (
{
horizontal = 1;
place = (0,83);
type = Stem;
},
{
horizontal = 1;
place = (311,84);
type = Stem;
},
{
horizontal = 1;
place = (623,84);
type = Stem;
}
);
layerId = "C6FD2334-8023-4351-A859-6BC98E822312";
name = "4 déc. 23 à 17:15";
shapes = (
{
closed = 1;
nodes = (
(143,706,o),
(60,624,o),
(60,519,cs),
(60,414,o),
(143,332,o),
(248,332,cs),
(330,332,o),
(395,268,o),
(395,187,cs),
(395,105,o),
(330,41,o),
(248,41,cs),
(170,41,o),
(106,105,o),
(106,187,cs),
(106,234,l),
(62,234,l),
(62,187,ls),
(62,77,o),
(146,0,o),
(248,0,cs),
(353,0,o),
(436,82,o),
(436,187,cs),
(436,292,o),
(353,375,o),
(248,375,cs),
(166,375,o),
(102,438,o),
(102,519,cs),
(102,600,o),
(166,663,o),
(248,663,cs),
(329,663,o),
(392,600,o),
(392,519,cs),
(392,473,l),
(435,473,l),
(435,519,ls),
(435,624,o),
(353,706,o),
(248,706,cs)
);
}
);
width = 496;
},
{
anchors = (
{
name = bottom;
pos = (248,0);
},
{
name = top;
pos = (248,706);
}
);
associatedMasterId = "FDB3DCA5-8B9B-4CD6-9F94-BF1B4F24E2DE";
hints = (
{
horizontal = 1;
place = (0,83);
type = Stem;
},
{
horizontal = 1;
place = (311,84);
type = Stem;
},
{
horizontal = 1;
place = (623,84);
type = Stem;
}
);
layerId = "B46A98CD-EE06-4B3C-AD28-25D74A1D0D7D";
name = "4 déc. 23 à 17:15";
shapes = (
{
closed = 1;
nodes = (
(143,706,o),
(60,624,o),
(60,519,cs),
(60,414,o),
(127,332,o),
(242,332,cs),
(258,332,ls),
(348,332,o),
(395,266,o),
(395,187,cs),
(395,105,o),
(330,41,o),
(248,41,cs),
(170,41,o),
(106,105,o),
(106,187,cs),
(106,234,l),
(62,234,l),
(62,187,ls),
(62,77,o),
(146,0,o),
(248,0,cs),
(353,0,o),
(436,82,o),
(436,187,cs),
(436,290,o),
(370,375,o),
(258,375,cs),
(242,375,ls),
(150,375,o),
(102,438,o),
(102,519,cs),
(102,600,o),
(166,663,o),
(248,663,cs),
(329,663,o),
(392,600,o),
(392,519,cs),
(392,473,l),
(435,473,l),
(435,519,ls),
(435,624,o),
(353,706,o),
(248,706,cs)
);
}
);
width = 496;
},
{
anchors = (
{
name = bottom;
pos = (241,0);
},
{
name = top;
pos = (241,706);
}
);
layerId = "FDB3DCA5-8B9B-4CD6-9F94-BF1B4F24E2DE";
name = Thin;
shapes = (
{
closed = 1;
nodes = (
(350,-16,o),
(436,69,o),
(436,178,cs),
(436,288,o),
(350,374,o),
(241,374,cs),
(154,374,o),
(86,441,o),
(86,528,cs),
(86,613,o),
(154,681,o),
(241,681,cs),
(327,681,o),
(394,613,o),
(394,528,cs),
(394,502,l),
(435,502,l),
(435,528,ls),
(435,637,o),
(350,722,o),
(241,722,cs),
(132,722,o),
(46,637,o),
(46,528,cs),
(46,418,o),
(132,333,o),
(241,333,cs),
(328,333,o),
(397,265,o),
(397,178,cs),
(397,91,o),
(328,23,o),
(241,23,cs),
(158,23,o),
(90,91,o),
(90,178,cs),
(90,205,l),
(48,205,l),
(48,178,ls),
(48,64,o),
(135,-16,o),
(241,-16,cs)
);
}
);
width = 482;
}
);
metricLeft = O;
metricRight = O;
note = S;
unicode = 83;
},
{
glyphname = Germandbls;
kernLeft = H;
kernRight = B;
lastChange = "2023-12-12 19:45:14 +0000";
layers = (
{
layerId = "FDB3DCA5-8B9B-4CD6-9F94-BF1B4F24E2DE";
shapes = (
{
closed = 1;
nodes = (
(143,0,l),
(143,666,l),
(387,666,l),
(257,393,l),
(260,393,ls),
(371,393,o),
(447,318,o),
(447,217,cs),
(447,117,o),
(370,40,o),
(260,40,cs),
(230,40,l),
(230,0,l),
(260,0,ls),
(392,0,o),
(488,94,o),
(488,217,cs),
(488,319,o),
(422,410,o),
(319,426,c),
(450,706,l),
(100,706,l),
(100,0,l)
);
}
);
width = 538;
},
{
layerId = "C63D24B8-ED3A-4149-AD3E-D94B7A9D4395";
shapes = (
{
closed = 1;
nodes = (
(206,0,l),
(206,541,l),
(371,541,l),
(267,265,l),
(407,265,ls),
(433,265,o),
(455,243,o),
(455,217,cs),
(455,189,o),
(435,168,o),
(407,168,cs),
(273,168,l),
(273,0,l),
(407,0,ls),
(529,0,o),
(625,94,o),
(625,217,cs),
(625,319,o),
(559,400,o),
(466,426,c),
(587,706,l),
(40,706,l),
(40,0,l)
);
}
);
width = 645;
}
);
metricLeft = H;
metricRight = three;
unicode = 7838;
},
{
glyphname = T;
kernLeft = T;
kernRight = T;
lastChange = "2023-12-13 14:33:37 +0000";
layers = (
{
anchors = (
{
name = bottom;
pos = (228,0);
},
{
name = center;
pos = (228,353);
},
{
name = top;
pos = (228,706);
}
);
layerId = "C63D24B8-ED3A-4149-AD3E-D94B7A9D4395";
shapes = (
{
closed = 1;
nodes = (
(308,0,l),
(308,706,l),
(148,706,l),
(148,0,l)
);
},
{
closed = 1;
nodes = (
(416,546,l),
(416,706,l),
(40,706,l),
(40,546,l)
);
}
);
width = 456;
},
{
associatedMasterId = "FDB3DCA5-8B9B-4CD6-9F94-BF1B4F24E2DE";
hints = (
{
horizontal = 1;
place = (0,21);
target = up;
type = BottomGhost;
},
{
horizontal = 1;
place = (567,76.01);
type = Stem;
}
);
layerId = "C839DD54-2E64-4B54-9498-1A69A058689D";
shapes = (
{
closed = 1;
nodes = (
(5,642,l),
(5,619,l),
(365,619,l),
(365,642,l)
);
},
{
alignment = -1;
pos = (106,0);
ref = I;
}
);
width = 370;
},
{
anchors = (
{
name = bottom;
pos = (168,0);
},
{
name = center;
pos = (168,353);
},
{
name = top;
pos = (168,706);
}
);
layerId = "FDB3DCA5-8B9B-4CD6-9F94-BF1B4F24E2DE";
shapes = (
{
closed = 1;
nodes = (
(188,0,l),
(188,706,l),
(148,706,l),
(148,0,l)
);
},
{
closed = 1;
nodes = (
(326,666,l),
(326,706,l),
(10,706,l),
(10,666,l)
);
}
);
width = 336;
}
);
note = T;
unicode = 84;
},
{
glyphname = U;
kernLeft = U;
kernRight = U;
lastChange = "2023-12-12 19:26:00 +0000";
layers = (
{
anchors = (
{
name = bottom;
pos = (283,0);
},
{
name = ogonek;
pos = (420,40);
},
{
name = top;
pos = (284,706);
},
{
name = topright;
pos = (549,706);
}
);
layerId = "C63D24B8-ED3A-4149-AD3E-D94B7A9D4395";
shapes = (
{
closed = 1;
nodes = (
(422,0,o),
(529,106,o),
(529,243,cs),
(529,706,l),
(361,706,l),
(361,246,ls),
(361,204,o),
(325,168,o),
(284,168,cs),
(239,168,o),
(204,204,o),
(204,246,cs),
(204,706,l),
(36,706,l),
(36,243,ls),
(36,106,o),
(142,0,o),
(284,0,cs)
);
}
);
width = 565;
},
{
anchors = (
{
name = top;
pos = (196,642);
}
);
associatedMasterId = "FDB3DCA5-8B9B-4CD6-9F94-BF1B4F24E2DE";
hints = (
{
horizontal = 1;
place = (0,75);
type = Stem;
},
{
horizontal = 1;
place = (641.99,-20);
target = down;
type = TopGhost;
}
);
layerId = "C839DD54-2E64-4B54-9498-1A69A058689D";
shapes = (
{
closed = 1;
nodes = (
(55,642,l),
(55,146,ls),
(57,62,o),
(120,0,o),
(203,0,cs),
(285,0,o),
(349,62,o),
(351,146,cs),
(351,642,l),
(329,642,l),
(329,148,ls),
(329,76,o),
(276,20,o),
(203,20,cs),
(131,20,o),
(75,76,o),
(75,148,cs),
(75,642,l)
);
}
);
width = 406;
},
{
anchors = (
{
name = bottom;
pos = (263,0);
},
{
name = ogonek;
pos = (373,38);
},
{
name = top;
pos = (267,706);
},
{
name = topright;
pos = (525,706);
}
);
layerId = "FDB3DCA5-8B9B-4CD6-9F94-BF1B4F24E2DE";
shapes = (
{
closed = 1;
nodes = (
(360,-10,o),
(435,63,o),
(435,161,cs),
(435,706,l),
(395,706,l),
(395,163,ls),
(395,88,o),
(339,30,o),
(263,30,cs),
(188,30,o),
(130,88,o),
(130,163,cs),
(130,706,l),
(90,706,l),
(90,161,ls),
(90,63,o),
(166,-10,o),
(263,-10,cs)
);
}
);
width = 525;
}
);
metricLeft = "=H*0.9";
metricRight = "=H*0.9";
note = U;
unicode = 85;
},
{
glyphname = V;
kernLeft = V;
kernRight = V;
lastChange = "2023-12-13 13:53:55 +0000";
layers = (
{
guides = (
{
pos = (460,-69);
}
);
layerId = "C63D24B8-ED3A-4149-AD3E-D94B7A9D4395";
shapes = (
{
closed = 1;
nodes = (
(620,706,l),
(451,706,l),
(315,359,l),
(181,706,l),
(10,706,l),
(316,-60,l)
);
}
);
width = 630;
},
{
associatedMasterId = "FDB3DCA5-8B9B-4CD6-9F94-BF1B4F24E2DE";
layerId = "C839DD54-2E64-4B54-9498-1A69A058689D";
shapes = (
{
closed = 1;
nodes = (
(42,642,l),
(28,642,l),
(259,-71,l),
(265,-71,l),
(497,642,l),
(481,642,l),
(262,2,l)
);
}
);
width = 524;
},
{
guides = (
{
pos = (420,-61);
}
);
layerId = "FDB3DCA5-8B9B-4CD6-9F94-BF1B4F24E2DE";
shapes = (
{
closed = 1;
nodes = (
(537,706,l),
(495,706,l),
(283,59,l),
(72,706,l),
(30,706,l),
(284,-61,l)
);
}
);
width = 567;
}
);
note = V;
unicode = 86;
},
{
glyphname = W;
kernLeft = V;
kernRight = V;
lastChange = "2023-12-12 19:26:00 +0000";
layers = (
{
anchors = (
{
name = top;
pos = (486,706);
}
);
layerId = "C63D24B8-ED3A-4149-AD3E-D94B7A9D4395";
shapes = (
{
closed = 1;
nodes = (
(289,-40,l),
(486,362,l),
(683,-40,l),
(686,-40,l),
(962,706,l),
(794,706,l),
(652,348,l),
(492,677,l),
(480,677,l),
(320,348,l),
(178,706,l),
(10,706,l),
(286,-40,l)
);
}
);
width = 972;
},
{
anchors = (
{
name = top;
pos = (447,580);
}
);
guides = (
{
pos = (420,-61);
}
);
layerId = "FDB3DCA5-8B9B-4CD6-9F94-BF1B4F24E2DE";
shapes = (
{
closed = 1;
nodes = (
(256,-41,l),
(447,375,l),
(638,-41,l),
(640,-41,l),
(864,706,l),
(821,706,l),
(631,69,l),
(448,472,l),
(446,472,l),
(263,69,l),
(73,706,l),
(30,706,l),
(254,-41,l)
);
}
);
width = 894;
},
{
anchors = (
{
name = top;
pos = (481,706);
}
);
associatedMasterId = "C63D24B8-ED3A-4149-AD3E-D94B7A9D4395";
layerId = "C3AE93EC-2D71-48A7-BBD1-373A855AB4BB";
name = "Apr 24 20, 08:37";
shapes = (
{
closed = 1;
nodes = (
(638,209,l),
(485,505,l),
(479,505,l),
(325,209,l),
(173,706,l),
(5,706,l),
(279,-199,l),
(285,-199,l),
(481,213,l),
(677,-199,l),
(682,-199,l),
(956,706,l),
(789,706,l)
);
}
);
width = 961;
},
{
anchors = (
{
name = top;
pos = (377,706);
}
);
associatedMasterId = "FDB3DCA5-8B9B-4CD6-9F94-BF1B4F24E2DE";
layerId = "CBAF454E-A49F-4422-B8AB-CA07E31860B0";
name = "May 2 20, 19:56";
shapes = (
{
closed = 1;
nodes = (
(525,55,l),
(350,466,l),
(343,466,l),
(171,60,l),
(17,706,l),
(-29,706,l),
(160,-50,l),
(167,-50,l),
(346,375,l),
(526,-50,l),
(532,-50,l),
(721,706,l),
(674,706,l)
);
}
);
width = 756;
}
);
metricLeft = V;
metricRight = V;
note = W;
unicode = 87;
},
{
glyphname = X;
kernLeft = X;
kernRight = X;
lastChange = "2023-12-13 14:35:10 +0000";
layers = (
{
guides = (
{
pos = (85,-4);
}
);
layerId = "C63D24B8-ED3A-4149-AD3E-D94B7A9D4395";
shapes = (
{
closed = 1;
nodes = (
(749,513,l),
(749,727,l),
(747,728,l),
(30,194,l),
(30,-20,l),
(32,-21,l)
);
},
{
closed = 1;
nodes = (
(749,-20,l),
(749,194,l),
(32,728,l),
(30,727,l),
(30,513,l),
(747,-21,l)
);
}
);
width = 779;
},
{
associatedMasterId = "FDB3DCA5-8B9B-4CD6-9F94-BF1B4F24E2DE";
hints = (
{
horizontal = 1;
place = (0,21);
target = up;
type = BottomGhost;
},
{
horizontal = 1;
place = (643,-20);
target = down;
type = TopGhost;
}
);
layerId = "C839DD54-2E64-4B54-9498-1A69A058689D";
shapes = (
{
closed = 1;
nodes = (
(35,34,l),
(35,0,l),
(41,0,l),
(689,607,l),
(689,642,l),
(683,642,l)
);
},
{
closed = 1;
nodes = (
(35,642,l),
(35,607,l),
(683,0,l),
(689,0,l),
(689,34,l),
(41,642,l)
);
}
);
width = 724;
},
{
guides = (
{
pos = (10,660);
}
);
layerId = "FDB3DCA5-8B9B-4CD6-9F94-BF1B4F24E2DE";
shapes = (
{
closed = 1;
nodes = (
(685,673,l),
(685,724,l),
(683,725,l),
(10,33,l),
(10,-18,l),
(12,-19,l)
);
},
{
closed = 1;
nodes = (
(685,-18,l),
(685,33,l),
(12,725,l),
(10,724,l),
(10,673,l),
(683,-19,l)
);
}
);
width = 695;
}
);
metricLeft = "=|K";
metricRight = K;
note = X;
unicode = 88;
},
{
glyphname = Y;
kernLeft = Y;
kernRight = Y;
lastChange = "2023-12-12 19:26:00 +0000";
layers = (
{
anchors = (
{
name = top;
pos = (235,706);
}
);
layerId = "C63D24B8-ED3A-4149-AD3E-D94B7A9D4395";
shapes = (
{
closed = 1;
nodes = (
(319,0,l),
(319,341,l),
(459,706,l),
(290,706,l),
(235,521,l),
(180,706,l),
(10,706,l),
(152,341,l),
(152,0,l)
);
}
);
width = 469;
},
{
anchors = (
{
name = top;
pos = (189,642);
}
);
associatedMasterId = "FDB3DCA5-8B9B-4CD6-9F94-BF1B4F24E2DE";
hints = (
{
horizontal = 1;
place = (0,21);
target = up;
type = BottomGhost;
},
{
horizontal = 1;
place = (642.97,-20);
target = down;
type = TopGhost;
}
);
layerId = "C839DD54-2E64-4B54-9498-1A69A058689D";
shapes = (
{
closed = 1;
nodes = (
(189,386,l),
(54,642,l),
(28,642,l),
(177,373,l),
(177,0,l),
(200,0,l),
(200,373,l),
(351,642,l),
(324,642,l)
);
}
);
width = 378;
},
{
anchors = (
{
name = top;
pos = (203,706);
}
);
layerId = "FDB3DCA5-8B9B-4CD6-9F94-BF1B4F24E2DE";
shapes = (
{
closed = 1;
nodes = (
(223,0,l),
(223,385,l),
(387,706,l),
(340,706,l),
(203,433,l),
(65,706,l),
(20,706,l),
(183,385,l),
(183,0,l)
);
}
);
width = 407;
}
);
note = Y;
unicode = 89;
},
{
glyphname = Z;
kernLeft = Z;
kernRight = Z;
lastChange = "2023-12-13 15:35:17 +0000";
layers = (
{
anchors = (
{
name = bottom;
pos = (230,0);
},
{
name = center;
pos = (230,353);
},
{
name = top;
pos = (230,706);
}
);
layerId = "C63D24B8-ED3A-4149-AD3E-D94B7A9D4395";
shapes = (
{
closed = 1;
nodes = (
(426,0,l),
(426,166,l),
(260,166,l),
(429,706,l),
(30,706,l),
(30,540,l),
(196,540,l),
(30,3,l),
(30,0,l)
);
}
);
width = 459;
},
{
anchors = (
{
name = bottom;
pos = (190,0);
},
{
name = center;
pos = (190,353);
},
{
name = top;
pos = (190,706);
}
);
layerId = "FDB3DCA5-8B9B-4CD6-9F94-BF1B4F24E2DE";
shapes = (
{
closed = 1;
nodes = (
(340,0,l),
(340,40,l),
(94,40,l),
(340,706,l),
(40,706,l),
(40,667,l),
(283,667,l),
(40,3,l),
(40,0,l)
);
}
);
width = 380;
}
);
note = Z;
unicode = 90;
},
{
glyphname = Saltillo;
lastChange = "2023-12-12 19:26:00 +0000";
layers = (
{
layerId = "FDB3DCA5-8B9B-4CD6-9F94-BF1B4F24E2DE";
shapes = (
{
closed = 1;
nodes = (
(105,346,l),
(120,706,l),
(60,706,l),
(75,346,l)
);
}
);
width = 180;
},
{
layerId = "C63D24B8-ED3A-4149-AD3E-D94B7A9D4395";
shapes = (
{
closed = 1;
nodes = (
(143,346,l),
(188,706,l),
(36,706,l),
(80,346,l)
);
}
);
width = 224;
}
);
unicode = 42891;
},
{
glyphname = O.001;
kernLeft = O;
kernRight = O;
lastChange = "2023-12-12 19:26:00 +0000";
layers = (
{
anchors = (
{
name = top;
pos = (379,706);
}
);
layerId = "C63D24B8-ED3A-4149-AD3E-D94B7A9D4395";
shapes = (
{
closed = 1;
nodes = (
(579,0,o),
(732,153,o),
(732,353,cs),
(732,553,o),
(579,706,o),
(379,706,cs),
(177,706,o),
(25,553,o),
(25,353,cs),
(25,153,o),
(177,0,o),
(379,0,cs)
);
},
{
closed = 1;
nodes = (
(270,160,o),
(186,245,o),
(186,353,cs),
(186,463,o),
(270,545,o),
(379,545,cs),
(488,545,o),
(571,463,o),
(571,353,cs),
(571,245,o),
(488,160,o),
(379,160,cs)
);
}
);
width = 757;
},
{
anchors = (
{
name = top;
pos = (347,642);
}
);
associatedMasterId = "FDB3DCA5-8B9B-4CD6-9F94-BF1B4F24E2DE";
hints = (
{
horizontal = 1;
place = (0,75);
type = Stem;
},
{
horizontal = 1;
place = (566.02,75.98);
type = Stem;
}
);
layerId = "C839DD54-2E64-4B54-9498-1A69A058689D";
shapes = (
{
closed = 1;
nodes = (
(515,619,o),
(645,489,o),
(645,321,cs),
(645,152,o),
(515,23,o),
(347,23,cs),
(178,23,o),
(49,152,o),
(49,321,cs),
(49,489,o),
(178,619,o),
(347,619,cs)
);
},
{
closed = 1;
nodes = (
(164,642,o),
(25,503,o),
(25,321,cs),
(25,139,o),
(164,0,o),
(347,0,cs),
(529,0,o),
(668,139,o),
(668,321,cs),
(668,503,o),
(529,642,o),
(347,642,cs)
);
}
);
width = 693;
},
{
anchors = (
{
name = top;
pos = (414,706);
}
);
layerId = "FDB3DCA5-8B9B-4CD6-9F94-BF1B4F24E2DE";
shapes = (
{
closed = 1;
nodes = (
(614,0,o),
(767,153,o),
(767,353,cs),
(767,553,o),
(614,706,o),
(414,706,cs),
(213,706,o),
(60,553,o),
(60,353,cs),
(60,153,o),
(213,0,o),
(414,0,cs)
);
},
{
closed = 1;
nodes = (
(237,40,o),
(101,176,o),
(101,353,cs),
(101,530,o),
(237,666,o),
(414,665,cs),
(591,666,o),
(728,530,o),
(727,353,cs),
(728,176,o),
(591,40,o),
(414,40,cs)
);
}
);
width = 827;
}
);
note = O;
},
{
glyphname = A.ss01;
kernLeft = A;
kernRight = A;
lastChange = "2023-12-12 20:26:40 +0000";
layers = (
{
anchors = (
{
name = bottom;
pos = (305,0);
},
{
name = ogonek;
pos = (600,0);
},
{
name = top;
pos = (305,706);
}
);
layerId = "C63D24B8-ED3A-4149-AD3E-D94B7A9D4395";
shapes = (
{
closed = 1;
nodes = (
(181,0,l),
(305,429,l),
(431,0,l),
(600,0,l),
(384,706,l),
(227,706,l),
(10,0,l)
);
},
{
closed = 1;
nodes = (
(448,97,l),
(398,247,l),
(213,247,l),
(163,97,l)
);
}
);
width = 610;
},
{
associatedMasterId = "FDB3DCA5-8B9B-4CD6-9F94-BF1B4F24E2DE";
layerId = "C839DD54-2E64-4B54-9498-1A69A058689D";
shapes = (
{
closed = 1;
nodes = (
(398,289,l),
(162,289,l),
(162,213,l),
(398,213,l)
);
},
{
closed = 1;
nodes = (
(242,642,l),
(28,0,l),
(104,0,l),
(280,526,l),
(456,0,l),
(532,0,l),
(318,642,l)
);
}
);
width = 559;
},
{
anchors = (
{
name = bottom;
pos = (264,0);
},
{
name = ogonek;
pos = (498,0);
},
{
name = top;
pos = (264,706);
}
);
layerId = "FDB3DCA5-8B9B-4CD6-9F94-BF1B4F24E2DE";
shapes = (
{
closed = 1;
nodes = (
(72,0,l),
(264,667,l),
(456,0,l),
(498,0,l),
(290,706,l),
(238,706,l),
(30,0,l)
);
},
{
closed = 1;
nodes = (
(400,274,l),
(386,314,l),
(142,314,l),
(128,274,l)
);
}
);
width = 528;
}
);
metricLeft = A;
metricRight = A;
},
{
glyphname = C.ss01;
kernLeft = Oalt;
kernRight = Oalt;
lastChange = "2023-12-13 13:53:44 +0000";
layers = (
{
anchors = (
{
name = bottom;
pos = (299,0);
},
{
name = top;
pos = (299,706);
}
);
background = {
shapes = (
{
ref = O.ss01;
}
);
};
layerId = "FDB3DCA5-8B9B-4CD6-9F94-BF1B4F24E2DE";
shapes = (
{
closed = 1;
nodes = (
(419,-10,o),
(517,88,o),
(517,208,cs),
(517,239,l),
(477,239,l),
(477,208,ls),
(477,110,o),
(397,30,o),
(299,30,cs),
(200,30,o),
(120,110,o),
(120,208,cs),
(120,498,ls),
(120,596,o),
(200,676,o),
(299,676,cs),
(397,676,o),
(477,596,o),
(477,498,cs),
(477,467,l),
(517,467,l),
(517,498,ls),
(517,618,o),
(419,716,o),
(299,716,cs),
(178,716,o),
(80,618,o),
(80,498,cs),
(80,208,ls),
(80,88,o),
(178,-10,o),
(299,-10,cs)
);
}
);
width = 597;
},
{
anchors = (
{
name = bottom;
pos = (287,0);
},
{
name = top;
pos = (287,706);
}
);
layerId = "C63D24B8-ED3A-4149-AD3E-D94B7A9D4395";
shapes = (
{
closed = 1;
nodes = (
(433,-10,o),
(544,101,o),
(544,247,cs),
(544,256,l),
(384,256,l),
(384,247,ls),
(384,192,o),
(342,150,o),
(287,150,cs),
(232,150,o),
(190,192,o),
(190,247,cs),
(190,459,ls),
(190,514,o),
(232,556,o),
(287,556,cs),
(342,556,o),
(384,514,o),
(384,459,cs),
(384,443,l),
(544,443,l),
(544,460,ls),
(544,606,o),
(433,716,o),
(287,716,cs),
(141,716,o),
(30,606,o),
(30,460,cs),
(30,247,ls),
(30,101,o),
(141,-10,o),
(287,-10,cs)
);
}
);
width = 574;
},
{
associatedMasterId = "FDB3DCA5-8B9B-4CD6-9F94-BF1B4F24E2DE";
layerId = "2A651F24-3931-4262-A730-2E3273C8903D";
name = "Apr 23 20, 15:53";
shapes = (
{
closed = 1;
nodes = (
(519,321,l),
(519,257,ls),
(519,134,o),
(425,40,o),
(302,40,cs),
(179,40,o),
(85,134,o),
(85,257,c),
(85,467,ls),
(85,590,o),
(179,684,o),
(302,684,cs),
(425,684,o),
(519,590,o),
(519,467,cs),
(519,395,l),
(559,395,l),
(559,467,ls),
(559,613,o),
(448,724,o),
(302,724,cs),
(156,724,o),
(45,613,o),
(45,467,cs),
(45,257,l),
(45,111,o),
(156,0,o),
(302,0,cs),
(448,0,o),
(559,111,o),
(559,257,cs),
(559,321,l)
);
}
);
width = 600;
}
);
metricLeft = O.ss01;
metricRight = O.ss01;
},
{
glyphname = D.ss01;
kernRight = Oalt;
lastChange = "2023-12-13 15:07:53 +0000";
layers = (
{
anchors = (
{
name = bottom;
pos = (265,0);
},
{
name = center;
pos = (265,353);
},
{
name = top;
pos = (265,706);
}
);
layerId = "FDB3DCA5-8B9B-4CD6-9F94-BF1B4F24E2DE";
shapes = (
{
closed = 1;
nodes = (
(251,0,ls),
(371,0,o),
(469,98,o),
(469,218,cs),
(469,488,ls),
(469,608,o),
(372,705,o),
(252,706,cs),
(100,706,l),
(100,0,l)
);
},
{
closed = 1;
nodes = (
(140,666,l),
(251,666,ls),
(349,666,o),
(429,586,o),
(429,488,cs),
(429,218,ls),
(429,120,o),
(349,40,o),
(251,40,cs),
(140,40,l)
);
}
);
width = 549;
},
{
anchors = (
{
name = bottom;
pos = (294,0);
},
{
name = center;
pos = (294,353);
},
{
name = top;
pos = (244,706);
}
);
layerId = "C63D24B8-ED3A-4149-AD3E-D94B7A9D4395";
shapes = (
{
closed = 1;
nodes = (
(261,0,ls),
(407,0,o),
(517,111,o),
(517,257,cs),
(517,450,ls),
(516,596,o),
(407,706,o),
(261,706,cs),
(40,706,l),
(40,0,l)
);
},
{
closed = 1;
nodes = (
(200,546,l),
(260,546,ls),
(315,546,o),
(357,504,o),
(357,449,cs),
(357,257,ls),
(357,202,o),
(315,160,o),
(260,160,cs),
(200,160,l)
);
}
);
width = 547;
}
);
metricLeft = H;
metricRight = O.ss01;
},
{
glyphname = Dcroat.ss01;
kernRight = Oalt;
lastChange = "2023-12-12 20:13:29 +0000";
layers = (
{
layerId = "FDB3DCA5-8B9B-4CD6-9F94-BF1B4F24E2DE";
shapes = (
{
closed = 1;
nodes = (
(261,334,l),
(261,374,l),
(50,374,l),
(50,334,l)
);
},
{
ref = D.ss01;
}
);
width = 551;
},
{
layerId = "C63D24B8-ED3A-4149-AD3E-D94B7A9D4395";
shapes = (
{
closed = 1;
nodes = (
(282,292,l),
(282,416,l),
(1,416,l),
(1,292,l)
);
},
{
ref = D.ss01;
}
);
width = 593;
}
);
},
{
glyphname = Schwa.ss01;
lastChange = "2023-12-12 19:26:00 +0000";
layers = (
{
layerId = "FDB3DCA5-8B9B-4CD6-9F94-BF1B4F24E2DE";
shapes = (
{
closed = 1;
nodes = (
(385,0,o),
(483,98,o),
(483,218,cs),
(483,488,ls),
(483,608,o),
(385,706,o),
(264,706,cs),
(144,706,o),
(46,608,o),
(46,488,cs),
(46,387,l),
(86,387,l),
(86,488,ls),
(86,586,o),
(166,666,o),
(264,666,cs),
(363,666,o),
(443,586,o),
(443,488,cs),
(443,218,ls),
(443,120,o),
(363,40,o),
(264,40,cs),
(166,40,o),
(86,120,o),
(86,218,cs),
(86,249,l),
(46,249,l),
(46,218,ls),
(46,98,o),
(144,0,o),
(264,0,cs)
);
},
{
closed = 1;
nodes = (
(468,347,l),
(468,387,l),
(46,387,l),
(46,347,l)
);
}
);
width = 529;
},
{
layerId = "C63D24B8-ED3A-4149-AD3E-D94B7A9D4395";
shapes = (
{
closed = 1;
nodes = (
(428,-10,o),
(539,100,o),
(539,246,cs),
(539,459,ls),
(539,605,o),
(428,716,o),
(282,716,cs),
(136,716,o),
(25,605,o),
(25,459,cs),
(25,400,l),
(185,400,l),
(185,459,ls),
(185,514,o),
(227,556,o),
(282,556,cs),
(337,556,o),
(379,514,o),
(379,459,cs),
(379,247,ls),
(379,192,o),
(337,150,o),
(282,150,cs),
(227,150,o),
(185,192,o),
(185,247,cs),
(185,258,l),
(25,258,l),
(25,246,ls),
(25,100,o),
(136,-10,o),
(282,-10,cs)
);
},
{
closed = 1;
nodes = (
(387,310,l),
(387,450,l),
(25,450,l),
(25,310,l)
);
}
);
width = 564;
}
);
metricLeft = O;
metricRight = O;
},
{
glyphname = G.ss01;
kernLeft = O;
kernRight = G;
lastChange = "2023-12-13 13:45:08 +0000";
layers = (
{
layerId = "FDB3DCA5-8B9B-4CD6-9F94-BF1B4F24E2DE";
shapes = (
{
closed = 1;
nodes = (
(385,-10,o),
(483,88,o),
(483,208,cs),
(483,319,l),
(443,319,l),
(443,208,ls),
(443,110,o),
(363,30,o),
(265,30,cs),
(166,30,o),
(86,110,o),
(86,208,cs),
(86,498,ls),
(86,596,o),
(166,676,o),
(265,676,cs),
(363,676,o),
(443,596,o),
(443,498,cs),
(443,487,l),
(483,487,l),
(483,498,ls),
(483,618,o),
(385,716,o),
(265,716,cs),
(144,716,o),
(46,618,o),
(46,498,cs),
(46,208,ls),
(46,88,o),
(144,-10,o),
(265,-10,cs)
);
},
{
closed = 1;
nodes = (
(483,319,l),
(483,359,l),
(271,359,l),
(271,319,l)
);
}
);
width = 529;
},
{
layerId = "C63D24B8-ED3A-4149-AD3E-D94B7A9D4395";
shapes = (
{
closed = 1;
nodes = (
(428,-10,o),
(539,101,o),
(539,247,cs),
(539,306,l),
(379,306,l),
(379,247,ls),
(379,192,o),
(337,150,o),
(282,150,cs),
(227,150,o),
(185,192,o),
(185,247,cs),
(185,459,ls),
(185,514,o),
(227,556,o),
(282,556,cs),
(337,556,o),
(379,514,o),
(379,459,cs),
(379,454,l),
(539,454,l),
(539,460,ls),
(539,606,o),
(428,716,o),
(282,716,cs),
(136,716,o),
(25,606,o),
(25,460,cs),
(25,247,ls),
(25,101,o),
(136,-10,o),
(282,-10,cs)
);
},
{
closed = 1;
nodes = (
(539,247,l),
(539,396,l),
(287,396,l),
(287,247,l)
);
}
);
width = 564;
}
);
metricLeft = O;
metricRight = O;
},
{
glyphname = J.ss01;
kernLeft = J;
kernRight = U;
lastChange = "2023-12-12 19:26:00 +0000";
layers = (
{
layerId = "FDB3DCA5-8B9B-4CD6-9F94-BF1B4F24E2DE";
shapes = (
{
closed = 1;
nodes = (
(288,0,o),
(363,77,o),
(363,168,cs),
(363,706,l),
(322,706,l),
(322,167,ls),
(322,97,o),
(267,41,o),
(197,41,cs),
(126,41,o),
(70,98,o),
(70,167,cs),
(70,217,l),
(30,217,l),
(30,168,ls),
(30,78,o),
(103,0,o),
(196,0,cs)
);
},
{
closed = 1;
nodes = (
(350,666,l),
(350,706,l),
(115,706,l),
(115,666,l)
);
}
);
width = 453;
},
{
layerId = "C63D24B8-ED3A-4149-AD3E-D94B7A9D4395";
shapes = (
{
closed = 1;
nodes = (
(393,-10,o),
(489,86,o),
(489,207,cs),
(489,706,l),
(331,706,l),
(331,207,ls),
(331,175,o),
(304,148,o),
(272,148,cs),
(240,148,o),
(214,174,o),
(214,207,cs),
(214,276,l),
(56,276,l),
(56,207,ls),
(56,86,o),
(152,-10,o),
(272,-10,cs)
);
},
{
closed = 1;
nodes = (
(489,546,l),
(489,706,l),
(115,706,l),
(115,546,l)
);
}
);
width = 525;
}
);
metricRight = U;
},
{
glyphname = K.ss01;
kernRight = X;
lastChange = "2023-12-13 14:44:25 +0000";
layers = (
{
anchors = (
{
name = bottom;
pos = (247,0);
},
{
name = top;
pos = (247,706);
}
);
layerId = "FDB3DCA5-8B9B-4CD6-9F94-BF1B4F24E2DE";
shapes = (
{
closed = 1;
nodes = (
(459,663,l),
(459,725,l),
(458,726,l),
(120,310,l),
(120,245,l)
);
},
{
closed = 1;
nodes = (
(140,0,l),
(140,706,l),
(100,706,l),
(100,0,l)
);
},
{
closed = 1;
nodes = (
(479,0,l),
(271,466,l),
(242,424,l),
(431,0,l)
);
}
);
width = 494;
},
{
anchors = (
{
name = bottom;
pos = (264,0);
},
{
name = top;
pos = (264,706);
}
);
layerId = "C63D24B8-ED3A-4149-AD3E-D94B7A9D4395";
shapes = (
{
closed = 1;
nodes = (
(490,531,l),
(490,735,l),
(489,736,l),
(141,449,l),
(141,255,l)
);
},
{
closed = 1;
nodes = (
(200,0,l),
(200,706,l),
(40,706,l),
(40,0,l)
);
},
{
closed = 1;
nodes = (
(502,0,l),
(387,490,l),
(257,370,l),
(336,0,l)
);
}
);
width = 537;
}
);
metricLeft = H;
metricRight = "=K+5";
},
{
glyphname = M.ss01;
lastChange = "2023-12-12 19:26:00 +0000";
layers = (
{
anchors = (
{
name = bottom;
pos = (354,0);
},
{
name = top;
pos = (354,706);
}
);
layerId = "FDB3DCA5-8B9B-4CD6-9F94-BF1B4F24E2DE";
shapes = (
{
closed = 1;
nodes = (
(140,0,l),
(140,631,l),
(353,308,l),
(355,308,l),
(567,631,l),
(567,0,l),
(607,0,l),
(607,706,l),
(565,706,l),
(353,380,l),
(142,706,l),
(100,706,l),
(100,0,l)
);
}
);
width = 707;
},
{
anchors = (
{
name = bottom;
pos = (334,0);
},
{
name = top;
pos = (334,706);
}
);
layerId = "C63D24B8-ED3A-4149-AD3E-D94B7A9D4395";
shapes = (
{
closed = 1;
nodes = (
(196,0,l),
(196,467,l),
(331,212,l),
(337,212,l),
(472,467,l),
(472,0,l),
(628,0,l),
(628,707,l),
(439,707,l),
(334,506,l),
(229,707,l),
(40,707,l),
(40,0,l)
);
}
);
width = 668;
}
);
metricLeft = H;
metricRight = H;
},
{
glyphname = N.ss01;
kernLeft = H;
kernRight = H;
lastChange = "2023-12-12 20:14:55 +0000";
layers = (
{
associatedMasterId = "FDB3DCA5-8B9B-4CD6-9F94-BF1B4F24E2DE";
layerId = "C839DD54-2E64-4B54-9498-1A69A058689D";
shapes = (
{
closed = 1;
nodes = (
(65,644,l),
(65,641,l),
(65,640,l),
(65,3,l),
(65,1,l),
(68,1,l),
(138,1,l),
(141,1,l),
(141,3,l),
(141,413,l),
(278,3,l),
(278,1,l),
(280,1,l),
(351,1,l),
(354,1,l),
(354,3,l),
(354,641,l),
(354,644,l),
(351,644,l),
(315,644,l),
(280,644,l),
(278,644,l),
(278,641,l),
(278,231,l),
(141,642,l),
(141,644,l),
(138,644,l),
(103,644,l),
(68,644,l)
);
}
);
width = 419;
},
{
anchors = (
{
name = bottom;
pos = (299,0);
},
{
name = top;
pos = (299,706);
}
);
layerId = "FDB3DCA5-8B9B-4CD6-9F94-BF1B4F24E2DE";
shapes = (
{
closed = 1;
nodes = (
(140,0,l),
(140,598,l),
(468,0,l),
(498,0,l),
(498,706,l),
(458,706,l),
(458,102,l),
(128,706,l),
(100,706,l),
(100,0,l)
);
}
);
width = 598;
},
{
associatedMasterId = "C63D24B8-ED3A-4149-AD3E-D94B7A9D4395";
layerId = "F1081255-F87C-4723-A169-0405EF2737D5";
name = "Apr 24 20, 08:10";
shapes = (
{
closed = 1;
nodes = (
(204,0,l),
(204,294,l),
(424,0,l),
(518,0,l),
(518,706,l),
(354,706,l),
(354,374,l),
(63,736,l),
(40,736,l),
(40,0,l)
);
}
);
width = 558;
},
{
anchors = (
{
name = bottom;
pos = (274,0);
},
{
name = top;
pos = (274,706);
}
);
layerId = "C63D24B8-ED3A-4149-AD3E-D94B7A9D4395";
shapes = (
{
closed = 1;
nodes = (
(200,0,l),
(200,304,l),
(375,0,l),
(508,0,l),
(508,706,l),
(347,706,l),
(347,364,l),
(173,706,l),
(40,706,l),
(40,0,l)
);
}
);
width = 548;
}
);
metricLeft = H;
metricRight = H;
},
{
glyphname = Q.ss01;
kernLeft = O;
kernRight = O;
lastChange = "2023-12-12 20:00:13 +0000";
layers = (
{
layerId = "FDB3DCA5-8B9B-4CD6-9F94-BF1B4F24E2DE";
shapes = (
{
closed = 1;
nodes = (
(515,-17,l),
(515,35,l),
(268,309,l),
(267,308,l),
(267,255,l),
(514,-18,l)
);
},
{
ref = zero.ss01;
}
);
width = 563;
},
{
background = {
shapes = (
{
closed = 1;
nodes = (
(574,-38,l),
(574,144,l),
(251,408,l),
(157,292,l),
(571,-40,l)
);
}
);
};
guides = (
{
pos = (493,-20);
}
);
layerId = "C63D24B8-ED3A-4149-AD3E-D94B7A9D4395";
shapes = (
{
closed = 1;
nodes = (
(574,-37,l),
(574,150,l),
(269,423,l),
(267,422,l),
(267,234,l),
(572,-38,l)
);
},
{
ref = zero.ss01;
}
);
width = 599;
}
);
metricRight = O;
},
{
glyphname = V.ss01;
kernLeft = Valt;
kernRight = Valt;
lastChange = "2023-12-13 15:16:50 +0000";
layers = (
{
layerId = "FDB3DCA5-8B9B-4CD6-9F94-BF1B4F24E2DE";
shapes = (
{
closed = 1;
nodes = (
(259,0,l),
(437,706,l),
(395,706,l),
(233,56,l),
(72,706,l),
(30,706,l),
(208,0,l)
);
}
);
width = 467;
},
{
layerId = "C63D24B8-ED3A-4149-AD3E-D94B7A9D4395";
shapes = (
{
closed = 1;
nodes = (
(369,0,l),
(480,706,l),
(309,706,l),
(245,178,l),
(181,706,l),
(10,706,l),
(121,0,l)
);
}
);
width = 490;
}
);
metricLeft = V;
metricRight = V;
},
{
glyphname = W.ss01;
kernLeft = Valt;
kernRight = Valt;
lastChange = "2023-12-13 14:48:24 +0000";
layers = (
{
anchors = (
{
name = bottom;
pos = (358,0);
},
{
name = top;
pos = (358,706);
}
);
layerId = "FDB3DCA5-8B9B-4CD6-9F94-BF1B4F24E2DE";
shapes = (
{
closed = 1;
nodes = (
(183,0,l),
(359,498,l),
(536,0,l),
(578,0,l),
(626,706,l),
(586,706,l),
(547,99,l),
(377,562,l),
(339,562,l),
(169,99,l),
(115,706,l),
(75,706,l),
(138,0,l)
);
}
);
width = 716;
},
{
anchors = (
{
name = bottom;
pos = (398,0);
},
{
name = top;
pos = (398,706);
}
);
layerId = "C63D24B8-ED3A-4149-AD3E-D94B7A9D4395";
shapes = (
{
closed = 1;
nodes = (
(274,-1,l),
(388,291,l),
(501,-1,l),
(647,-1,l),
(725,706,l),
(562,706,l),
(526,318,l),
(444,557,l),
(331,557,l),
(249,318,l),
(213,706,l),
(50,706,l),
(128,-1,l)
);
}
);
width = 795;
}
);
},
{
glyphname = C.ss03;
kernLeft = O;
kernRight = O;
lastChange = "2023-12-13 14:46:28 +0000";
layers = (
{
anchors = (
{
name = bottom;
pos = (390,0);
},
{
name = top;
pos = (400,706);
}
);
layerId = "FDB3DCA5-8B9B-4CD6-9F94-BF1B4F24E2DE";
shapes = (
{
closed = 1;
nodes = (
(583,0,o),
(726,127,o),
(750,302,c),
(707,302,l),
(684,151,o),
(559,42,o),
(400,42,cs),
(224,42,o),
(89,177,o),
(89,353,cs),
(89,529,o),
(224,664,o),
(400,664,cs),
(559,664,o),
(684,555,o),
(707,404,c),
(750,404,l),
(726,579,o),
(583,706,o),
(400,706,cs),
(199,706,o),
(46,553,o),
(46,353,cs),
(46,153,o),
(199,0,o),
(400,0,cs)
);
}
);
width = 796;
},
{
anchors = (
{
name = bottom;
pos = (392,0);
},
{
name = top;
pos = (392,706);
}
);
background = {
shapes = (
{
closed = 1;
nodes = (
(270,161,o),
(186,243,o),
(186,353,cs),
(186,463,o),
(270,545,o),
(379,545,cs),
(477,545,o),
(554,479,o),
(569,385,c),
(731,385,l),
(715,569,o),
(568,706,o),
(379,706,cs),
(177,706,o),
(25,553,o),
(25,353,cs),
(25,153,o),
(177,0,o),
(379,0,cs),
(568,0,o),
(715,137,o),
(731,321,c),
(569,321,l),
(554,227,o),
(477,161,o),
(379,161,cs)
);
}
);
};
layerId = "C63D24B8-ED3A-4149-AD3E-D94B7A9D4395";
shapes = (
{
attr = {
identifier = ID0x7fa147ce8fb0;
strokePos = "1";
};
closed = 1;
nodes = (
(583,-14,o),
(733,119,o),
(757,301,c),
(592,301,l),
(570,211,o),
(491,148,o),
(393,148,cs),
(276,148,o),
(187,237,o),
(187,353,cs),
(187,469,o),
(276,558,o),
(393,558,cs),
(491,558,o),
(570,495,o),
(592,405,c),
(757,405,l),
(733,587,o),
(583,720,o),
(393,720,cs),
(184,720,o),
(25,561,o),
(25,353,cs),
(25,145,o),
(184,-14,o),
(393,-14,cs)
);
}
);
width = 782;
}
);
metricLeft = O;
metricRight = O;
},
{
glyphname = L_L.dlig;
lastChange = "2023-12-12 19:26:00 +0000";
layers = (
{
layerId = "C63D24B8-ED3A-4149-AD3E-D94B7A9D4395";
shapes = (
{
closed = 1;
nodes = (
(453,0,l),
(453,160,l),
(200,160,l),
(200,707,l),
(40,707,l),
(40,0,l)
);
},
{
closed = 1;
nodes = (
(553,232,l),
(553,392,l),
(431,392,l),
(431,670,l),
(271,670,l),
(271,232,l)
);
}
);
width = 573;
},
{
associatedMasterId = "FDB3DCA5-8B9B-4CD6-9F94-BF1B4F24E2DE";
layerId = "C839DD54-2E64-4B54-9498-1A69A058689D";
shapes = (
{
closed = 1;
nodes = (
(206,572,l),
(206,570,l),
(206,218,l),
(206,216,l),
(206,213,l),
(206,145,l),
(206,142,l),
(209,142,l),
(315,142,l),
(422,142,l),
(424,142,l),
(424,145,l),
(424,216,l),
(424,218,l),
(422,218,l),
(282,218,l),
(282,570,l),
(282,572,l),
(280,572,l),
(209,572,l)
);
},
{
closed = 1;
nodes = (
(65,643,l),
(65,641,l),
(65,76,l),
(65,74,l),
(65,71,l),
(65,3,l),
(65,0,l),
(67,0,l),
(192,0,l),
(315,0,l),
(318,0,l),
(318,3,l),
(318,74,l),
(318,76,l),
(315,76,l),
(141,76,l),
(141,641,l),
(141,643,l),
(139,643,l),
(67,643,l)
);
}
);
width = 464;
},
{
layerId = "FDB3DCA5-8B9B-4CD6-9F94-BF1B4F24E2DE";
shapes = (
{
closed = 1;
nodes = (
(379,0,l),
(379,40,l),
(140,40,l),
(140,706,l),
(100,706,l),
(100,0,l)
);
},
{
closed = 1;
nodes = (
(495,156,l),
(495,196,l),
(295,196,l),
(295,630,l),
(255,630,l),
(255,156,l)
);
}
);
width = 525;
},
{
associatedMasterId = "FDB3DCA5-8B9B-4CD6-9F94-BF1B4F24E2DE";
layerId = "67E4E7EA-66A4-49A9-97ED-9A9AF40837E2";
name = "8 juil. 23 à 16:52";
shapes = (
{
closed = 1;
nodes = (
(265,629,l),
(265,156,l),
(505,156,l),
(505,196,l),
(305,196,l),
(305,629,l)
);
},
{
closed = 1;
nodes = (
(110,707,l),
(110,0,l),
(388,0,l),
(388,40,l),
(150,40,l),
(150,707,l)
);
}
);
width = 615;
}
);
metricLeft = L;
metricRight = L;
},
{
glyphname = a;
kernLeft = o;
lastChange = "2023-12-12 19:26:00 +0000";
layers = (
{
anchors = (
{
name = bottom;
pos = (291,0);
},
{
name = ogonek;
pos = (548,0);
},
{
name = top;
pos = (302,512);
}
);
layerId = "C63D24B8-ED3A-4149-AD3E-D94B7A9D4395";
shapes = (
{
closed = 1;
nodes = (
(431,-8,o),
(549,110,o),
(549,257,cs),
(549,403,o),
(431,521,o),
(285,521,cs),
(139,521,o),
(20,403,o),
(20,257,cs),
(20,110,o),
(139,-8,o),
(285,-8,cs)
);
},
{
closed = 1;
nodes = (
(227,152,o),
(180,199,o),
(180,257,cs),
(180,314,o),
(227,361,o),
(285,361,cs),
(342,361,o),
(389,314,o),
(389,257,cs),
(389,199,o),
(342,152,o),
(285,152,cs)
);
},
{
closed = 1;
nodes = (
(548,0,l),
(548,513,l),
(448,513,l),
(448,0,l)
);
}
);
width = 589;
},
{
anchors = (
{
name = top;
pos = (263,465);
}
);
associatedMasterId = "FDB3DCA5-8B9B-4CD6-9F94-BF1B4F24E2DE";
layerId = "C839DD54-2E64-4B54-9498-1A69A058689D";
shapes = (
{
closed = 1;
nodes = (
(425,0,l),
(501,0,l),
(501,466,l),
(425,466,l)
);
},
{
alignment = -1;
ref = zero.osf;
}
);
width = 566.2;
},
{
anchors = (
{
name = bottom;
pos = (322,0);
},
{
name = ogonek;
pos = (579,0);
},
{
name = top;
pos = (328,513);
}
);
layerId = "FDB3DCA5-8B9B-4CD6-9F94-BF1B4F24E2DE";
shapes = (
{
closed = 1;
nodes = (
(461,-8,o),
(579,110,o),
(579,257,cs),
(579,403,o),
(461,521,o),
(315,521,cs),
(169,521,o),
(50,403,o),
(50,257,cs),
(50,110,o),
(169,-8,o),
(315,-8,cs)
);
},
{
closed = 1;
nodes = (
(191,32,o),
(90,132,o),
(90,257,cs),
(90,381,o),
(191,481,o),
(315,481,cs),
(439,481,o),
(539,381,o),
(539,257,cs),
(539,132,o),
(439,32,o),
(315,32,cs)
);
},
{
closed = 1;
nodes = (
(579,0,l),
(579,513,l),
(539,513,l),
(539,0,l)
);
}
);
width = 669;
},
{
anchors = (
{
name = bottom;
pos = (281,0);
},
{
name = ogonek;
pos = (538,0);
},
{
name = top;
pos = (292,512);
}
);
associatedMasterId = "C63D24B8-ED3A-4149-AD3E-D94B7A9D4395";
layerId = "882B6168-F3FC-4644-A5DE-1F3E0AA42167";
name = "12 déc. 23 à 10:54";
shapes = (
{
closed = 1;
nodes = (
(438,0,l),
(538,0,l),
(538,513,l),
(438,513,l)
);
},
{
closed = 1;
nodes = (
(135,513,o),
(24,402,o),
(24,257,cs),
(24,111,o),
(135,0,o),
(281,0,cs),
(427,0,o),
(538,111,o),
(538,257,cs),
(538,402,o),
(427,513,o),
(281,513,cs)
);
},
{
closed = 1;
nodes = (
(336,353,o),
(378,311,o),
(378,257,cs),
(378,202,o),
(336,160,o),
(281,160,cs),
(226,160,o),
(184,202,o),
(184,257,cs),
(184,311,o),
(226,353,o),
(281,353,cs)
);
}
);
width = 582;
}
);
metricLeft = o;
metricRight = n;
unicode = 97;
},
{
glyphname = b;
kernRight = o;
lastChange = "2023-12-12 19:26:00 +0000";
layers = (
{
anchors = (
{
name = top;
pos = (301,513);
}
);
layerId = "C63D24B8-ED3A-4149-AD3E-D94B7A9D4395";
shapes = (
{
closed = 1;
nodes = (
(451,-8,o),
(569,110,o),
(569,257,cs),
(569,403,o),
(451,521,o),
(305,521,cs),
(159,521,o),
(40,403,o),
(40,257,cs),
(40,110,o),
(159,-8,o),
(305,-8,cs)
);
},
{
closed = 1;
nodes = (
(140,0,l),
(140,315,l),
(200,315,l),
(200,706,l),
(40,706,l),
(40,0,l)
);
},
{
closed = 1;
nodes = (
(247,152,o),
(200,199,o),
(200,257,cs),
(200,314,o),
(247,361,o),
(305,361,cs),
(362,361,o),
(409,314,o),
(409,257,cs),
(409,199,o),
(362,152,o),
(305,152,cs)
);
}
);
width = 589;
},
{
associatedMasterId = "FDB3DCA5-8B9B-4CD6-9F94-BF1B4F24E2DE";
layerId = "C839DD54-2E64-4B54-9498-1A69A058689D";
shapes = (
{
alignment = -1;
pos = (558,0);
ref = d;
scale = (-1,1);
}
);
width = 557.625;
},
{
anchors = (
{
name = top;
pos = (347,513);
}
);
layerId = "FDB3DCA5-8B9B-4CD6-9F94-BF1B4F24E2DE";
shapes = (
{
closed = 1;
nodes = (
(501,-8,o),
(619,110,o),
(619,257,cs),
(619,403,o),
(501,521,o),
(355,521,cs),
(209,521,o),
(90,403,o),
(90,257,cs),
(90,110,o),
(209,-8,o),
(355,-8,cs)
);
},
{
closed = 1;
nodes = (
(130,0,l),
(130,112,l),
(130,151,l),
(130,706,l),
(90,706,l),
(90,0,l)
);
},
{
closed = 1;
nodes = (
(231,32,o),
(130,132,o),
(130,257,cs),
(130,381,o),
(231,481,o),
(355,481,cs),
(479,481,o),
(579,381,o),
(579,257,cs),
(579,132,o),
(479,32,o),
(355,32,cs)
);
}
);
width = 669;
}
);
metricLeft = n;
metricRight = o;
unicode = 98;
},
{
glyphname = c;
kernLeft = o;
kernRight = o;
lastChange = "2023-12-13 14:05:55 +0000";
layers = (
{
anchors = (
{
name = bottom;
pos = (284,0);
},
{
name = top;
pos = (284,513);
}
);
layerId = "C63D24B8-ED3A-4149-AD3E-D94B7A9D4395";
shapes = (
{
closed = 1;
nodes = (
(418,-7,o),
(527,90,o),
(547,217,c),
(381,217,l),
(366,179,o),
(328,153,o),
(285,153,cs),
(227,153,o),
(180,200,o),
(180,257,cs),
(180,314,o),
(227,361,o),
(285,361,cs),
(328,361,o),
(366,335,o),
(381,297,c),
(547,297,l),
(527,424,o),
(418,521,o),
(285,521,cs),
(139,521,o),
(20,403,o),
(20,257,cs),
(20,111,o),
(139,-7,o),
(285,-7,cs)
);
}
);
width = 567;
},
{
anchors = (
{
name = bottom;
pos = (268,6);
}
);
associatedMasterId = "FDB3DCA5-8B9B-4CD6-9F94-BF1B4F24E2DE";
layerId = "C839DD54-2E64-4B54-9498-1A69A058689D";
shapes = (
{
closed = 1;
nodes = (
(370,26,o),
(448,89,o),
(473,179,c),
(498,193,l),
(479,83,o),
(386,2,o),
(268,2,cs),
(135,2,o),
(34,103,o),
(34,234,cs),
(34,365,o),
(135,466,o),
(268,466,cs),
(386,466,o),
(479,385,o),
(498,275,c),
(473,289,l),
(448,378,o),
(370,443,o),
(269,443,cs),
(149,443,o),
(58,351,o),
(58,234,cs),
(58,116,o),
(149,26,o),
(269,26,cs)
);
}
);
width = 527.4;
},
{
anchors = (
{
name = bottom;
pos = (313,0);
},
{
name = top;
pos = (313,513);
}
);
layerId = "FDB3DCA5-8B9B-4CD6-9F94-BF1B4F24E2DE";
shapes = (
{
closed = 1;
nodes = (
(441,-7,o),
(546,81,o),
(573,199,c),
(531,199,l),
(506,103,o),
(419,33,o),
(315,33,cs),
(191,33,o),
(90,133,o),
(90,257,cs),
(90,381,o),
(191,481,o),
(315,481,cs),
(419,481,o),
(506,411,o),
(531,315,c),
(573,315,l),
(546,433,o),
(441,521,o),
(315,521,cs),
(169,521,o),
(50,403,o),
(50,257,cs),
(50,111,o),
(169,-7,o),
(315,-7,cs)
);
}
);
width = 623;
},
{
anchors = (
{
name = bottom;
pos = (284,0);
},
{
name = top;
pos = (284,513);
}
);
associatedMasterId = "C63D24B8-ED3A-4149-AD3E-D94B7A9D4395";
layerId = "DE211517-99A5-4FBD-A047-480DDC017154";
name = "13 déc. 23 à 14:13";
shapes = (
{
closed = 1;
nodes = (
(422,-8,o),
(535,96,o),
(548,231,c),
(386,231,l),
(374,186,o),
(333,152,o),
(285,152,cs),
(227,152,o),
(180,199,o),
(180,257,cs),
(180,314,o),
(227,361,o),
(285,361,cs),
(333,361,o),
(374,328,o),
(386,283,c),
(548,283,l),
(535,417,o),
(422,521,o),
(285,521,cs),
(139,521,o),
(20,403,o),
(20,257,cs),
(20,110,o),
(139,-8,o),
(285,-8,cs)
);
}
);
width = 568;
}
);
metricLeft = o;
metricRight = o;
unicode = 99;
},
{
glyphname = d;
kernLeft = o;
lastChange = "2023-12-12 17:20:07 +0000";
layers = (
{
anchors = (
{
name = bottom;
pos = (282,0);
},
{
name = center;
pos = (282,257);
},
{
name = top;
pos = (272,513);
},
{
name = topright;
pos = (549,706);
}
);
layerId = "C63D24B8-ED3A-4149-AD3E-D94B7A9D4395";
shapes = (
{
pos = (589,0);
ref = b;
scale = (-1,1);
}
);
width = 589;
},
{
associatedMasterId = "FDB3DCA5-8B9B-4CD6-9F94-BF1B4F24E2DE";
layerId = "C839DD54-2E64-4B54-9498-1A69A058689D";
shapes = (
{
closed = 1;
nodes = (
(469,117,l),
(417,77,l),
(417,0,l),
(493,0,l),
(493,642,l),
(469,642,l)
);
},
{
alignment = -1;
ref = zero.osf;
}
);
width = 557.625;
},
{
anchors = (
{
name = bottom;
pos = (307,0);
},
{
name = center;
pos = (307,257);
},
{
name = top;
pos = (307,513);
},
{
name = topright;
pos = (594,706);
}
);
layerId = "FDB3DCA5-8B9B-4CD6-9F94-BF1B4F24E2DE";
shapes = (
{
pos = (669,0);
ref = b;
scale = (-1,1);
}
);
width = 669;
}
);
metricLeft = o;
metricRight = n;
unicode = 100;
},
{
glyphname = dcroat;
kernLeft = o;
lastChange = "2023-12-12 19:26:00 +0000";
layers = (
{
layerId = "FDB3DCA5-8B9B-4CD6-9F94-BF1B4F24E2DE";
shapes = (
{
closed = 1;
nodes = (
(654,595,l),
(654,633,l),
(373,633,l),
(373,595,l)
);
},
{
ref = d;
}
);
width = 664;
},
{
layerId = "C63D24B8-ED3A-4149-AD3E-D94B7A9D4395";
shapes = (
{
closed = 1;
nodes = (
(582,563,l),
(582,647,l),
(241,647,l),
(241,563,l)
);
},
{
ref = d;
}
);
width = 587;
}
);
unicode = 273;
},
{
glyphname = eth;
kernLeft = o;
kernRight = o;
lastChange = "2023-12-12 20:03:44 +0000";
layers = (
{
layerId = "FDB3DCA5-8B9B-4CD6-9F94-BF1B4F24E2DE";
shapes = (
{
closed = 1;
nodes = (
(535,399,l),
(355,706,l),
(299,706,l),
(489,399,l)
);
},
{
ref = o;
},
{
closed = 1;
nodes = (
(523,610,l),
(518,650,l),
(244,615,l),
(249,576,l)
);
}
);
width = 614;
},
{
layerId = "C63D24B8-ED3A-4149-AD3E-D94B7A9D4395";
shapes = (
{
closed = 1;
nodes = (
(519,379,l),
(329,706,l),
(159,706,l),
(360,379,l)
);
},
{
ref = o;
},
{
closed = 1;
nodes = (
(467,596,l),
(451,678,l),
(120,611,l),
(136,529,l)
);
}
);
width = 600;
},
{
associatedMasterId = "FDB3DCA5-8B9B-4CD6-9F94-BF1B4F24E2DE";
layerId = "0F446275-0749-49C0-83FE-A026E07C458B";
name = "7 juil. 23 à 09:21";
shapes = (
{
closed = 1;
nodes = (
(161,513,o),
(50,402,o),
(50,257,cs),
(50,111,o),
(161,0,o),
(307,0,cs),
(453,0,o),
(564,111,o),
(564,257,cs),
(564,402,o),
(453,513,o),
(307,513,cs)
);
},
{
closed = 1;
nodes = (
(430,473,o),
(524,379,o),
(524,257,cs),
(524,134,o),
(430,40,o),
(307,40,cs),
(184,40,o),
(90,134,o),
(90,257,cs),
(90,379,o),
(184,473,o),
(307,473,cs)
);
},
{
closed = 1;
nodes = (
(489,379,l),
(535,379,l),
(355,706,l),
(299,706,l)
);
},
{
closed = 1;
nodes = (
(478,640,l),
(222,600,l),
(222,557,l),
(478,597,l)
);
}
);
width = 614;
}
);
unicode = 240;
},
{
glyphname = e;
kernLeft = o;
kernRight = o;
lastChange = "2023-12-12 19:47:09 +0000";
layers = (
{
anchors = (
{
name = bottom;
pos = (285,0);
},
{
name = ogonek;
pos = (381,10);
},
{
name = top;
pos = (285,513);
}
);
layerId = "C63D24B8-ED3A-4149-AD3E-D94B7A9D4395";
shapes = (
{
closed = 1;
nodes = (
(403,-8,o),
(503,69,o),
(537,177,c),
(358,177,l),
(339,159,o),
(314,148,o),
(285,148,cs),
(225,148,o),
(176,197,o),
(176,257,cs),
(176,316,o),
(225,365,o),
(285,365,cs),
(337,365,o),
(379,330,o),
(389,282,c),
(424,310,l),
(103,310,l),
(103,219,l),
(546,219,l),
(570,365,o),
(455,521,o),
(285,521,cs),
(139,521,o),
(20,403,o),
(20,257,cs),
(20,110,o),
(139,-8,o),
(285,-8,cs)
);
}
);
width = 569;
},
{
anchors = (
{
name = bottom;
pos = (315,0);
},
{
name = ogonek;
pos = (411,10);
},
{
name = top;
pos = (315,513);
}
);
background = {
shapes = (
{
closed = 1;
nodes = (
(457,239,l),
(564,239,l),
(570,407,o),
(447,513,o),
(307,513,cs),
(161,513,o),
(50,402,o),
(50,257,cs),
(50,111,o),
(161,0,o),
(307,0,cs),
(424,0,o),
(519,72,o),
(552,175,c),
(510,185,l),
(479,95,o),
(400,41,o),
(307,41,cs),
(184,41,o),
(92,135,o),
(92,259,cs),
(92,378,o),
(184,473,o),
(307,473,cs),
(424,473,o),
(527,384,o),
(525,244,c),
(550,279,l),
(457,279,l)
);
}
);
};
layerId = "FDB3DCA5-8B9B-4CD6-9F94-BF1B4F24E2DE";
shapes = (
{
closed = 1;
nodes = (
(431,-8,o),
(528,65,o),
(564,169,c),
(518,169,l),
(483,86,o),
(406,32,o),
(315,32,cs),
(191,32,o),
(90,132,o),
(90,257,cs),
(90,381,o),
(191,481,o),
(315,481,cs),
(443,481,o),
(544,376,o),
(538,247,c),
(569,279,l),
(62,279,l),
(62,239,l),
(579,239,l),
(579,433,o),
(447,521,o),
(315,521,cs),
(169,521,o),
(50,403,o),
(50,257,cs),
(50,110,o),
(169,-8,o),
(315,-8,cs)
);
}
);
width = 629;
},
{
anchors = (
{
name = bottom;
pos = (284,0);
},
{
name = ogonek;
pos = (381,10);
},
{
name = top;
pos = (284,513);
}
);
associatedMasterId = "C63D24B8-ED3A-4149-AD3E-D94B7A9D4395";
attr = {
axisRules = (
{
max = 990;
min = 0;
}
);
};
layerId = "31E18DF3-54C1-4365-907D-F3AB8F86BCD6";
name = "12 déc. 23 à 11:26";
shapes = (
{
closed = 1;
nodes = (
(403,-8,o),
(503,69,o),
(537,177,c),
(352,177,l),
(334,162,o),
(311,152,o),
(285,152,cs),
(227,152,o),
(180,199,o),
(180,257,cs),
(180,314,o),
(227,361,o),
(285,361,cs),
(334,361,o),
(374,327,o),
(385,283,c),
(419,330,l),
(108,330,l),
(108,199,l),
(541,199,l),
(580,351,o),
(462,521,o),
(285,521,cs),
(139,521,o),
(20,403,o),
(20,257,cs),
(20,110,o),
(139,-8,o),
(285,-8,cs)
);
}
);
width = 568;
}
);
metricLeft = o;
metricRight = o;
unicode = 101;
},
{
glyphname = f;
kernLeft = f;
kernRight = f;
lastChange = "2023-12-12 19:26:00 +0000";
layers = (
{
layerId = "C63D24B8-ED3A-4149-AD3E-D94B7A9D4395";
shapes = (
{
closed = 1;
nodes = (
(281,0,l),
(281,510,ls),
(281,549,o),
(292,580,o),
(361,580,cs),
(375,580,l),
(375,740,l),
(361,740,ls),
(206,740,o),
(121,641,o),
(121,517,cs),
(121,-1,l)
);
},
{
closed = 1;
nodes = (
(375,353,l),
(375,513,l),
(30,513,l),
(30,353,l)
);
}
);
width = 400;
},
{
associatedMasterId = "FDB3DCA5-8B9B-4CD6-9F94-BF1B4F24E2DE";
layerId = "C839DD54-2E64-4B54-9498-1A69A058689D";
width = 286.875;
},
{
layerId = "FDB3DCA5-8B9B-4CD6-9F94-BF1B4F24E2DE";
shapes = (
{
closed = 1;
nodes = (
(198,0,l),
(198,523,ls),
(198,602,o),
(253,667,o),
(332,667,cs),
(341,667,l),
(341,706,l),
(331,706,ls),
(231,706,o),
(159,624,o),
(159,523,cs),
(158,0,l)
);
},
{
closed = 1;
nodes = (
(341,473,l),
(341,513,l),
(40,513,l),
(40,473,l)
);
}
);
width = 381;
},
{
associatedMasterId = "C63D24B8-ED3A-4149-AD3E-D94B7A9D4395";
hints = (
{
horizontal = 1;
place = (0,21);
target = up;
type = BottomGhost;
},
{
horizontal = 1;
place = (351,84);
type = Stem;
},
{
horizontal = 1;
place = (624,84);
type = Stem;
},
{
horizontal = 1;
place = (0,83);
type = Stem;
},
{
horizontal = 1;
place = (706,-20);
target = down;
type = TopGhost;
}
);
layerId = "FEDD70DE-A9ED-4EFF-9D98-13AB28F288EB";
name = "Apr 22 20, 15:48";
shapes = (
{
closed = 1;
nodes = (
(357,706,ls),
(206,706,o),
(89,594,o),
(89,444,cs),
(89,0,l),
(257,0,l),
(257,450,ls),
(257,496,o),
(293,532,o),
(341,532,cs),
(357,532,l),
(357,706,l)
);
},
{
closed = 1;
nodes = (
(10,297,l),
(357,297,l),
(357,463,l),
(10,463,l)
);
}
);
width = 413;
}
);
unicode = 102;
},
{
glyphname = g;
kernLeft = g;
kernRight = g;
lastChange = "2023-12-13 13:54:40 +0000";
layers = (
{
anchors = (
{
name = bottom;
pos = (265,-200);
},
{
name = top;
pos = (267,513);
}
);
layerId = "C63D24B8-ED3A-4149-AD3E-D94B7A9D4395";
shapes = (
{
closed = 1;
nodes = (
(375,69,o),
(489,165,o),
(489,291,cs),
(489,416,o),
(393,513,o),
(267,513,cs),
(141,513,o),
(45,416,o),
(45,291,cs),
(45,165,o),
(141,69,o),
(267,69,cs)
);
},
{
closed = 1;
nodes = (
(410,-200,o),
(521,-89,o),
(521,56,c),
(361,56,l),
(361,-1,o),
(322,-40,o),
(265,-40,cs),
(209,-40,o),
(170,-1,o),
(170,56,c),
(10,56,l),
(10,-89,o),
(121,-200,o),
(265,-200,cs)
);
},
{
closed = 1;
nodes = (
(524,15,o),
(523,67,o),
(519,88,c),
(255,206,l),
(196,80,l),
(504,-39,l)
);
},
{
closed = 1;
nodes = (
(225,225,o),
(198,254,o),
(198,290,cs),
(198,326,o),
(225,355,o),
(263,355,cs),
(299,355,o),
(329,326,o),
(329,290,cs),
(329,254,o),
(299,225,o),
(263,225,cs)
);
},
{
closed = 1;
nodes = (
(544,432,l),
(544,513,l),
(267,513,l),
(267,432,l)
);
}
);
width = 554;
},
{
associatedMasterId = "FDB3DCA5-8B9B-4CD6-9F94-BF1B4F24E2DE";
layerId = "C839DD54-2E64-4B54-9498-1A69A058689D";
shapes = (
{
closed = 1;
nodes = (
(327,426,o),
(390,364,o),
(390,283,cs),
(390,198,o),
(327,134,o),
(244,134,cs),
(160,134,o),
(97,198,o),
(97,283,cs),
(97,364,o),
(160,426,o),
(244,426,cs)
);
},
{
closed = 1;
nodes = (
(148,449,o),
(75,375,o),
(75,282,cs),
(75,187,o),
(148,114,o),
(244,114,cs),
(325,114,o),
(411,187,o),
(411,282,cs),
(411,375,o),
(338,449,o),
(244,449,cs)
);
},
{
closed = 1;
nodes = (
(431,44,l),
(431,-65,o),
(356,-142,o),
(246,-142,cs),
(135,-142,o),
(60,-65,o),
(60,44,c),
(36,44,l),
(36,-75,o),
(127,-166,o),
(246,-166,cs),
(364,-166,o),
(455,-75,o),
(455,44,c)
);
},
{
closed = 1;
nodes = (
(198,118,l),
(445,-22,l),
(457,18,o),
(457,74,o),
(451,99,c),
(198,121,l)
);
},
{
closed = 1;
nodes = (
(263,446,l),
(321,446,l),
(321,472,l),
(255,466,l)
);
},
{
closed = 1;
nodes = (
(141,339,l),
(345,490,l),
(345,550,l),
(166,436,l)
);
}
);
width = 509.5;
},
{
associatedMasterId = "C63D24B8-ED3A-4149-AD3E-D94B7A9D4395";
layerId = "EC38A942-07A4-497D-8B6D-2848EC0554BD";
name = "Dec 12 19, 21:36";
shapes = (
{
closed = 1;
nodes = (
(287,356,o),
(309,335,o),
(309,309,cs),
(309,283,o),
(287,262,o),
(261,262,cs),
(234,262,o),
(214,283,o),
(214,309,cs),
(214,335,o),
(234,356,o),
(261,356,cs)
);
},
{
closed = 1;
nodes = (
(359,65,l),
(359,8,o),
(320,-31,o),
(263,-31,cs),
(207,-31,o),
(168,8,o),
(168,65,c),
(8,65,l),
(8,-80,o),
(119,-191,o),
(263,-191,cs),
(408,-191,o),
(519,-80,o),
(519,65,c)
);
},
{
closed = 1;
nodes = (
(194,119,l),
(506,-19,l),
(520,26,o),
(524,100,o),
(517,128,c),
(194,122,l)
);
},
{
closed = 1;
nodes = (
(150,513,o),
(62,424,o),
(62,310,cs),
(62,195,o),
(150,107,o),
(265,107,cs),
(364,107,o),
(468,195,o),
(468,310,cs),
(468,424,o),
(380,513,o),
(265,513,cs)
);
},
{
closed = 1;
nodes = (
(205,417,l),
(429,513,l),
(429,608,l),
(205,504,l)
);
}
);
width = 551;
},
{
associatedMasterId = "C63D24B8-ED3A-4149-AD3E-D94B7A9D4395";
layerId = "927D8E15-8AD9-4876-82D4-97482003F363";
name = "20 févr. 23 à 15:55";
shapes = (
{
closed = 1;
nodes = (
(266,432,l),
(544,432,l),
(544,513,l),
(267,513,l)
);
},
{
closed = 1;
nodes = (
(266,20,l),
(504,-39,l),
(524,15,o),
(523,67,o),
(519,88,c),
(266,146,l)
);
},
{
closed = 1;
nodes = (
(361,56,l),
(361,-1,o),
(322,-40,o),
(265,-40,cs),
(209,-40,o),
(170,-1,o),
(170,56,c),
(10,56,l),
(10,-89,o),
(121,-200,o),
(265,-200,cs),
(410,-200,o),
(521,-89,o),
(521,56,c)
);
},
{
closed = 1;
nodes = (
(141,513,o),
(45,416,o),
(45,291,cs),
(45,165,o),
(141,69,o),
(267,69,cs),
(375,69,o),
(489,165,o),
(489,291,cs),
(489,416,o),
(393,513,o),
(267,513,cs)
);
},
{
closed = 1;
nodes = (
(299,355,o),
(329,326,o),
(329,290,cs),
(329,254,o),
(299,225,o),
(263,225,cs),
(225,225,o),
(198,254,o),
(198,290,cs),
(198,326,o),
(225,355,o),
(263,355,cs)
);
}
);
width = 554;
},
{
associatedMasterId = "FDB3DCA5-8B9B-4CD6-9F94-BF1B4F24E2DE";
layerId = "8FBA9D84-34D1-429D-9AF0-872B60D32474";
name = "20 févr. 23 à 15:55";
shapes = (
{
closed = 1;
nodes = (
(299,479,l),
(550,479,l),
(550,515,l),
(299,513,l)
);
},
{
closed = 1;
nodes = (
(248,34,l),
(541,34,l),
(541,46,o),
(543,62,o),
(543,74,c),
(248,74,l)
);
},
{
closed = 1;
nodes = (
(502,55,l),
(502,-62,o),
(420,-145,o),
(301,-145,cs),
(183,-145,o),
(101,-62,o),
(101,55,c),
(60,55,l),
(60,-81,o),
(165,-186,o),
(301,-186,cs),
(438,-186,o),
(542,-81,o),
(542,55,c)
);
},
{
closed = 1;
nodes = (
(184,513,o),
(96,424,o),
(96,310,cs),
(96,195,o),
(184,107,o),
(299,107,cs),
(398,107,o),
(502,195,o),
(502,310,cs),
(502,424,o),
(414,513,o),
(299,513,cs)
);
},
{
closed = 1;
nodes = (
(391,473,o),
(462,402,o),
(462,310,cs),
(462,218,o),
(379,147,o),
(299,147,cs),
(207,147,o),
(136,218,o),
(136,310,cs),
(136,402,o),
(207,473,o),
(299,473,cs)
);
}
);
width = 620;
},
{
associatedMasterId = "FDB3DCA5-8B9B-4CD6-9F94-BF1B4F24E2DE";
layerId = "4F53C680-999D-47D6-B954-298E0E224FC3";
name = "20 févr. 23 à 15:56";
shapes = (
{
closed = 1;
nodes = (
(299,479,l),
(550,479,l),
(550,515,l),
(299,513,l)
);
},
{
closed = 1;
nodes = (
(299,107,l),
(541,34,l),
(541,46,o),
(543,62,o),
(543,74,c),
(299,147,l)
);
},
{
closed = 1;
nodes = (
(502,55,l),
(502,-62,o),
(420,-145,o),
(301,-145,cs),
(183,-145,o),
(101,-62,o),
(101,55,c),
(60,55,l),
(60,-81,o),
(165,-186,o),
(301,-186,cs),
(438,-186,o),
(542,-81,o),
(542,55,c)
);
},
{
closed = 1;
nodes = (
(184,513,o),
(96,424,o),
(96,310,cs),
(96,195,o),
(184,107,o),
(299,107,cs),
(398,107,o),
(502,195,o),
(502,310,cs),
(502,424,o),
(414,513,o),
(299,513,cs)
);
},
{
closed = 1;
nodes = (
(391,473,o),
(462,402,o),
(462,310,cs),
(462,218,o),
(379,147,o),
(299,147,cs),
(207,147,o),
(136,218,o),
(136,310,cs),
(136,402,o),
(207,473,o),
(299,473,cs)
);
}
);
width = 620;
},
{
anchors = (
{
name = bottom;
pos = (301,-186);
},
{
name = top;
pos = (301,513);
}
);
layerId = "FDB3DCA5-8B9B-4CD6-9F94-BF1B4F24E2DE";
name = Thin;
shapes = (
{
closed = 1;
nodes = (
(398,107,o),
(502,195,o),
(502,310,cs),
(502,424,o),
(414,513,o),
(299,513,cs),
(184,513,o),
(96,424,o),
(96,310,cs),
(96,195,o),
(184,107,o),
(299,107,cs)
);
},
{
closed = 1;
nodes = (
(438,-186,o),
(542,-81,o),
(542,55,c),
(502,55,l),
(502,-62,o),
(420,-145,o),
(301,-145,cs),
(183,-145,o),
(101,-62,o),
(101,55,c),
(60,55,l),
(60,-81,o),
(165,-186,o),
(301,-186,cs)
);
},
{
closed = 1;
nodes = (
(541,46,o),
(543,62,o),
(543,74,c),
(268,149,l),
(247,113,l),
(541,34,l)
);
},
{
closed = 1;
nodes = (
(207,147,o),
(136,218,o),
(136,310,cs),
(136,402,o),
(207,473,o),
(299,473,cs),
(391,473,o),
(462,402,o),
(462,310,cs),
(462,218,o),
(379,147,o),
(299,147,cs)
);
},
{
closed = 1;
nodes = (
(550,479,l),
(550,515,l),
(299,513,l),
(299,479,l)
);
}
);
width = 620;
}
);
unicode = 103;
},
{
glyphname = h;
lastChange = "2023-12-12 19:27:48 +0000";
layers = (
{
anchors = (
{
name = bottom;
pos = (275,0);
},
{
name = center;
pos = (275,257);
},
{
name = top;
pos = (125,706);
}
);
layerId = "C63D24B8-ED3A-4149-AD3E-D94B7A9D4395";
shapes = (
{
closed = 1;
nodes = (
(201,-1,l),
(201,288,ls),
(201,330,o),
(233,362,o),
(275,362,cs),
(316,362,o),
(349,329,o),
(349,288,cs),
(349,-1,l),
(509,-1,l),
(509,288,ls),
(509,418,o),
(405,522,o),
(275,522,cs),
(145,522,o),
(41,418,o),
(41,288,cs),
(41,-1,l)
);
},
{
closed = 1;
nodes = (
(200,0,l),
(200,706,l),
(40,706,l),
(40,0,l)
);
}
);
width = 549;
},
{
associatedMasterId = "FDB3DCA5-8B9B-4CD6-9F94-BF1B4F24E2DE";
hints = (
{
horizontal = 1;
place = (0.5,21);
target = up;
type = BottomGhost;
},
{
horizontal = 1;
place = (643.51,-20);
target = down;
type = TopGhost;
}
);
layerId = "C839DD54-2E64-4B54-9498-1A69A058689D";
shapes = (
{
closed = 1;
nodes = (
(65,0,l),
(88,0,l),
(88,642,l),
(65,642,l)
);
},
{
alignment = -1;
pos = (25,466);
ref = u;
scale = (1,-1);
}
);
width = 387.25;
},
{
anchors = (
{
name = bottom;
pos = (263,0);
},
{
name = center;
pos = (263,257);
},
{
name = top;
pos = (110,706);
}
);
layerId = "FDB3DCA5-8B9B-4CD6-9F94-BF1B4F24E2DE";
shapes = (
{
closed = 1;
nodes = (
(130,-1,l),
(130,350,ls),
(130,425,o),
(188,483,o),
(263,483,cs),
(339,483,o),
(395,425,o),
(395,350,cs),
(395,-1,l),
(435,-1,l),
(435,352,ls),
(435,450,o),
(360,523,o),
(263,523,cs),
(166,523,o),
(90,450,o),
(90,352,cs),
(90,-1,l)
);
},
{
closed = 1;
nodes = (
(130,0,l),
(130,706,l),
(90,706,l),
(90,0,l)
);
}
);
width = 525;
}
);
metricLeft = n;
metricRight = n;
unicode = 104;
},
{
glyphname = hbar;
lastChange = "2023-12-12 19:32:37 +0000";
layers = (
{
layerId = "FDB3DCA5-8B9B-4CD6-9F94-BF1B4F24E2DE";
shapes = (
{
closed = 1;
nodes = (
(281,583,l),
(281,623,l),
(10,623,l),
(10,583,l)
);
},
{
pos = (10,0);
ref = h;
}
);
width = 535;
},
{
layerId = "C63D24B8-ED3A-4149-AD3E-D94B7A9D4395";
shapes = (
{
closed = 1;
nodes = (
(336,573,l),
(336,657,l),
(-5,657,l),
(-5,573,l)
);
},
{
pos = (5,0);
ref = h;
}
);
width = 562;
}
);
unicode = 295;
},
{
glyphname = i;
lastChange = "2023-12-13 15:07:53 +0000";
layers = (
{
anchors = (
{
name = bottom;
pos = (48,0);
}
);
layerId = "C63D24B8-ED3A-4149-AD3E-D94B7A9D4395";
shapes = (
{
ref = idotless;
},
{
pos = (-41,-50);
ref = dotaccentcomb;
}
);
width = 224;
},
{
anchors = (
{
name = top;
pos = (41,642);
}
);
associatedMasterId = "FDB3DCA5-8B9B-4CD6-9F94-BF1B4F24E2DE";
hints = (
{
horizontal = 1;
place = (0,21);
target = up;
type = BottomGhost;
},
{
horizontal = 1;
place = (642.03,-20);
target = down;
type = TopGhost;
},
{
horizontal = 1;
place = (501,75);
type = Stem;
},
{
horizontal = 1;
place = (642.01,75.98);
type = Stem;
},
{
horizontal = 1;
place = (784,75.98);
type = Stem;
},
{
horizontal = 1;
place = (1067.99,75);
type = Stem;
}
);
layerId = "C839DD54-2E64-4B54-9498-1A69A058689D";
shapes = (
{
closed = 1;
nodes = (
(53,0,l),
(76,0,l),
(76,466,l),
(53,466,l)
);
},
{
closed = 1;
nodes = (
(84,543,o),
(101,560,o),
(101,581,cs),
(101,600,o),
(84,616,o),
(65,616,cs),
(44,616,o),
(27,600,o),
(27,581,cs),
(27,560,o),
(44,543,o),
(65,543,cs)
);
}
);
width = 128.25;
},
{
anchors = (
{
name = bottom;
pos = (-6,0);
}
);
layerId = "FDB3DCA5-8B9B-4CD6-9F94-BF1B4F24E2DE";
shapes = (
{
ref = idotless;
},
{
pos = (-25,0);
ref = dotaccentcomb;
}
);
width = 228;
}
);
metricLeft = "=n-30";
metricRight = "=n-30";
unicode = 105;
},
{
glyphname = idotless;
lastChange = "2023-12-12 20:19:35 +0000";
layers = (
{
anchors = (
{
name = bottom;
pos = (115,0);
},
{
name = ogonek;
pos = (198,0);
},
{
name = top;
pos = (115,463);
}
);
layerId = "C63D24B8-ED3A-4149-AD3E-D94B7A9D4395";
shapes = (
{
closed = 1;
nodes = (
(32,0,l),
(192,0,l),
(192,463,l),
(32,463,l)
);
}
);
width = 224;
},
{
anchors = (
{
name = top;
pos = (106,466);
}
);
associatedMasterId = "FDB3DCA5-8B9B-4CD6-9F94-BF1B4F24E2DE";
hints = (
{
horizontal = 1;
place = (0,21);
target = up;
type = BottomGhost;
},
{
horizontal = 1;
place = (642.03,-20);
target = down;
type = TopGhost;
},
{
horizontal = 1;
place = (501,75);
type = Stem;
},
{
horizontal = 1;
place = (642.01,75.98);
type = Stem;
},
{
horizontal = 1;
place = (784,75.98);
type = Stem;
},
{
horizontal = 1;
place = (1067.99,75);
type = Stem;
}
);
layerId = "C839DD54-2E64-4B54-9498-1A69A058689D";
shapes = (
{
closed = 1;
nodes = (
(92,0,l),
(115,0,l),
(115,466,l),
(92,466,l)
);
}
);
width = 207;
},
{
anchors = (
{
name = bottom;
pos = (114,0);
},
{
name = ogonek;
pos = (134,0);
},
{
name = top;
pos = (114,513);
}
);
layerId = "FDB3DCA5-8B9B-4CD6-9F94-BF1B4F24E2DE";
shapes = (
{
closed = 1;
nodes = (
(94,0,l),
(134,0,l),
(134,513,l),
(94,513,l)
);
}
);
width = 228;
},
{
anchors = (
{
name = bottom;
pos = (115,0);
},
{
name = ogonek;
pos = (198,0);
},
{
name = top;
pos = (115,513);
}
);
associatedMasterId = "C63D24B8-ED3A-4149-AD3E-D94B7A9D4395";
attr = {
axisRules = (
{
max = 900;
min = 0;
}
);
};
layerId = "3B24EBC0-CB83-4A09-8386-83B5A2507CB1";
name = "12 déc. 23 à 13:41";
shapes = (
{
closed = 1;
nodes = (
(32,0,l),
(192,0,l),
(192,513,l),
(32,513,l)
);
}
);
width = 224;
}
);
unicode = 305;
},
{
glyphname = j;
lastChange = "2023-12-13 15:07:49 +0000";
layers = (
{
layerId = "C63D24B8-ED3A-4149-AD3E-D94B7A9D4395";
shapes = (
{
ref = jdotless;
},
{
pos = (-44,-50);
ref = dotaccentcomb;
}
);
width = 224;
},
{
associatedMasterId = "FDB3DCA5-8B9B-4CD6-9F94-BF1B4F24E2DE";
layerId = "C839DD54-2E64-4B54-9498-1A69A058689D";
shapes = (
{
closed = 1;
nodes = (
(83,531,o),
(101,548,o),
(101,568,cs),
(101,588,o),
(83,604,o),
(62,604,cs),
(41,604,o),
(27,588,o),
(27,568,cs),
(27,548,o),
(41,531,o),
(62,531,cs)
);
},
{
closed = 1;
nodes = (
(75,-133,l),
(75,466,l),
(51,466,l),
(51,-197,l),
(59,-197,l)
);
}
);
width = 128.25;
},
{
layerId = "FDB3DCA5-8B9B-4CD6-9F94-BF1B4F24E2DE";
shapes = (
{
ref = jdotless;
},
{
pos = (-25,0);
ref = dotaccentcomb;
}
);
width = 228;
},
{
associatedMasterId = "C63D24B8-ED3A-4149-AD3E-D94B7A9D4395";
attr = {
axisRules = (
{
max = 900;
min = 0;
}
);
};
layerId = "F803B8B7-F3AE-458D-BF4E-67DB96CA70C9";
name = "12 déc. 23 à 13:39";
shapes = (
{
ref = jdotless;
},
{
pos = (-44,0);
ref = dotaccentcomb;
}
);
width = 224;
}
);
metricLeft = i;
metricRight = i;
unicode = 106;
},
{
glyphname = jdotless;
lastChange = "2023-12-12 20:31:15 +0000";
layers = (
{
anchors = (
{
name = bottom;
pos = (114,-200);
},
{
name = top;
pos = (114,513);
}
);
layerId = "FDB3DCA5-8B9B-4CD6-9F94-BF1B4F24E2DE";
shapes = (
{
closed = 1;
nodes = (
(94,-200,l),
(96,-200,l),
(134,-146,l),
(134,513,l),
(94,513,l)
);
}
);
width = 228;
},
{
anchors = (
{
name = bottom;
pos = (112,-200);
},
{
name = top;
pos = (112,463);
}
);
background = {
shapes = (
{
closed = 1;
nodes = (
(32,0,l),
(198,0,l),
(198,443,l),
(32,443,l)
);
}
);
};
layerId = "C63D24B8-ED3A-4149-AD3E-D94B7A9D4395";
shapes = (
{
closed = 1;
nodes = (
(32,-218,l),
(36,-218,l),
(192,-102,l),
(192,464,l),
(32,463,l)
);
}
);
width = 224;
},
{
anchors = (
{
name = bottom;
pos = (112,-200);
},
{
name = top;
pos = (112,513);
}
);
associatedMasterId = "C63D24B8-ED3A-4149-AD3E-D94B7A9D4395";
attr = {
axisRules = (
{
max = 900;
min = 0;
}
);
};
background = {
shapes = (
{
closed = 1;
nodes = (
(32,0,l),
(198,0,l),
(198,443,l),
(32,443,l)
);
}
);
};
layerId = "3EC62362-8C6A-4DFB-9DEB-8766C94D2F94";
name = "12 déc. 23 à 13:39";
shapes = (
{
closed = 1;
nodes = (
(32,-218,l),
(36,-218,l),
(192,-102,l),
(192,514,l),
(32,513,l)
);
}
);
width = 224;
}
);
metricLeft = idotless;
metricRight = idotless;
unicode = 567;
},
{
glyphname = k;
kernRight = k;
lastChange = "2023-12-12 19:26:00 +0000";
layers = (
{
anchors = (
{
name = bottom;
pos = (258,0);
},
{
name = top;
pos = (120,706);
}
);
guides = (
{
pos = (489,-20);
}
);
layerId = "C63D24B8-ED3A-4149-AD3E-D94B7A9D4395";
shapes = (
{
closed = 1;
nodes = (
(469,-22,l),
(469,155,l),
(201,257,l),
(469,358,l),
(469,535,l),
(467,536,l),
(40,366,l),
(40,147,l),
(467,-23,l)
);
},
{
closed = 1;
nodes = (
(200,0,l),
(200,706,l),
(40,706,l),
(40,0,l)
);
}
);
width = 499;
},
{
associatedMasterId = "FDB3DCA5-8B9B-4CD6-9F94-BF1B4F24E2DE";
hints = (
{
horizontal = 1;
place = (0,21);
target = up;
type = BottomGhost;
},
{
horizontal = 1;
place = (643.01,-20);
target = down;
type = TopGhost;
}
);
layerId = "C839DD54-2E64-4B54-9498-1A69A058689D";
shapes = (
{
closed = 1;
nodes = (
(194,170,l),
(420,0,l),
(420,35,l),
(194,196,l)
);
},
{
closed = 1;
nodes = (
(194,272,l),
(420,432,l),
(420,466,l),
(194,297,l)
);
},
{
alignment = -1;
ref = l;
}
);
width = 455.2;
},
{
anchors = (
{
name = bottom;
pos = (274,0);
},
{
name = top;
pos = (110,706);
}
);
background = {
shapes = (
{
closed = 1;
nodes = (
(498,39,l),
(26,527,l),
(24,526,l),
(24,474,l),
(496,-14,l),
(498,-13,l)
);
},
{
closed = 1;
nodes = (
(498,474,l),
(498,526,l),
(496,527,l),
(24,39,l),
(24,-13,l),
(26,-14,l)
);
}
);
};
guides = (
{
pos = (498,-10);
}
);
layerId = "FDB3DCA5-8B9B-4CD6-9F94-BF1B4F24E2DE";
shapes = (
{
closed = 1;
nodes = (
(498,-12,l),
(498,33,l),
(130,256,l),
(498,478,l),
(498,523,l),
(495,525,l),
(106,292,l),
(106,219,l),
(495,-14,l)
);
},
{
closed = 1;
nodes = (
(130,0,l),
(130,706,l),
(90,706,l),
(90,0,l)
);
}
);
width = 548;
}
);
metricLeft = n;
metricRight = x;
note = k;
unicode = 107;
},
{
glyphname = l;
lastChange = "2023-12-12 19:26:00 +0000";
layers = (
{
anchors = (
{
name = bottom;
pos = (120,0);
},
{
name = center;
pos = (120,400);
},
{
name = top;
pos = (120,706);
},
{
name = topright;
pos = (220,706);
}
);
layerId = "C63D24B8-ED3A-4149-AD3E-D94B7A9D4395";
shapes = (
{
closed = 1;
nodes = (
(200,0,l),
(200,706,l),
(40,706,l),
(40,0,l)
);
}
);
width = 240;
},
{
associatedMasterId = "FDB3DCA5-8B9B-4CD6-9F94-BF1B4F24E2DE";
layerId = "C839DD54-2E64-4B54-9498-1A69A058689D";
shapes = (
{
ref = I;
}
);
width = 240;
},
{
anchors = (
{
name = bottom;
pos = (110,0);
},
{
name = center;
pos = (110,400);
},
{
name = top;
pos = (110,706);
},
{
name = topright;
pos = (160,706);
}
);
layerId = "FDB3DCA5-8B9B-4CD6-9F94-BF1B4F24E2DE";
shapes = (
{
closed = 1;
nodes = (
(130,0,l),
(130,706,l),
(90,706,l),
(90,0,l)
);
}
);
width = 220;
}
);
metricLeft = n;
metricRight = n;
unicode = 108;
},
{
glyphname = lslash;
lastChange = "2023-12-13 14:21:24 +0000";
layers = (
{
layerId = "FDB3DCA5-8B9B-4CD6-9F94-BF1B4F24E2DE";
shapes = (
{
closed = 1;
nodes = (
(252,387,l),
(231,420,l),
(10,257,l),
(32,224,l)
);
},
{
ref = l;
}
);
width = 220;
},
{
layerId = "C63D24B8-ED3A-4149-AD3E-D94B7A9D4395";
shapes = (
{
closed = 1;
nodes = (
(294,457,l),
(250,541,l),
(-43,368,l),
(0,287,l)
);
},
{
ref = l;
}
);
width = 248;
}
);
unicode = 322;
},
{
glyphname = m;
kernLeft = m;
kernRight = m;
lastChange = "2023-12-13 13:52:21 +0000";
layers = (
{
layerId = "C63D24B8-ED3A-4149-AD3E-D94B7A9D4395";
shapes = (
{
closed = 1;
nodes = (
(425,-40,l),
(619,278,l),
(661,1,l),
(818,1,l),
(738,513,l),
(563,513,l),
(424,263,l),
(284,513,l),
(109,513,l),
(30,1,l),
(186,1,l),
(230,278,l),
(423,-40,l)
);
}
);
width = 848;
},
{
associatedMasterId = "FDB3DCA5-8B9B-4CD6-9F94-BF1B4F24E2DE";
layerId = "C839DD54-2E64-4B54-9498-1A69A058689D";
width = 614;
},
{
layerId = "FDB3DCA5-8B9B-4CD6-9F94-BF1B4F24E2DE";
shapes = (
{
closed = 1;
nodes = (
(412,-30,l),
(630,451,l),
(712,0,l),
(754,0,l),
(662,513,l),
(611,513,l),
(411,65,l),
(211,513,l),
(160,513,l),
(68,0,l),
(110,0,l),
(192,451,l),
(410,-30,l)
);
}
);
width = 822;
}
);
unicode = 109;
},
{
glyphname = n;
kernLeft = n;
kernRight = n;
lastChange = "2023-12-12 20:55:11 +0000";
layers = (
{
anchors = (
{
name = bottom;
pos = (289,0);
},
{
name = top;
pos = (299,513);
}
);
layerId = "C63D24B8-ED3A-4149-AD3E-D94B7A9D4395";
shapes = (
{
closed = 1;
nodes = (
(190,0,l),
(190,212,l),
(442,0,l),
(527,0,l),
(527,513,l),
(377,513,l),
(377,279,l),
(42,553,l),
(40,553,l),
(40,0,l)
);
}
);
width = 567;
},
{
anchors = (
{
name = top;
pos = (143,466);
}
);
associatedMasterId = "FDB3DCA5-8B9B-4CD6-9F94-BF1B4F24E2DE";
hints = (
{
horizontal = 1;
place = (0.5,21);
target = up;
type = BottomGhost;
},
{
horizontal = 1;
place = (643.51,-20);
target = down;
type = TopGhost;
}
);
layerId = "C839DD54-2E64-4B54-9498-1A69A058689D";
shapes = (
{
closed = 1;
nodes = (
(410,0,l),
(410,466,l),
(389,466,l),
(389,68,l),
(86,611,l),
(84,611,l),
(63,1,l),
(86,1,l),
(101,455,l),
(389,0,l)
);
}
);
width = 435.6;
},
{
anchors = (
{
name = bottom;
pos = (312,0);
},
{
name = top;
pos = (312,513);
}
);
layerId = "FDB3DCA5-8B9B-4CD6-9F94-BF1B4F24E2DE";
shapes = (
{
closed = 1;
nodes = (
(128,0,l),
(128,425,l),
(483,0,l),
(523,0,l),
(523,513,l),
(485,513,l),
(485,61,l),
(92,533,l),
(90,533,l),
(90,0,l)
);
}
);
width = 613;
}
);
note = n;
unicode = 110;
},
{
glyphname = o;
kernLeft = o;
kernRight = o;
lastChange = "2023-12-13 13:55:06 +0000";
layers = (
{
anchors = (
{
name = bottom;
pos = (285,0);
},
{
name = center;
pos = (285,257);
},
{
name = ogonek;
pos = (512,10);
},
{
name = top;
pos = (285,513);
},
{
name = topright;
pos = (549,513);
}
);
background = {
shapes = (
{
closed = 1;
nodes = (
(105,513,o),
(-6,402,o),
(-6,257,cs),
(-6,111,o),
(105,0,o),
(251,0,cs),
(397,0,o),
(508,111,o),
(508,257,cs),
(508,402,o),
(397,513,o),
(251,513,cs)
);
},
{
closed = 1;
nodes = (
(306,353,o),
(348,311,o),
(348,257,cs),
(348,202,o),
(306,160,o),
(251,160,cs),
(196,160,o),
(154,202,o),
(154,257,cs),
(154,311,o),
(196,353,o),
(251,353,cs)
);
}
);
};
layerId = "C63D24B8-ED3A-4149-AD3E-D94B7A9D4395";
shapes = (
{
closed = 1;
nodes = (
(431,-8,o),
(549,110,o),
(549,257,cs),
(549,403,o),
(431,521,o),
(285,521,cs),
(139,521,o),
(20,403,o),
(20,257,cs),
(20,110,o),
(139,-8,o),
(285,-8,cs)
);
},
{
closed = 1;
nodes = (
(227,152,o),
(180,199,o),
(180,257,cs),
(180,314,o),
(227,361,o),
(285,361,cs),
(342,361,o),
(389,314,o),
(389,257,cs),
(389,199,o),
(342,152,o),
(285,152,cs)
);
}
);
width = 569;
},
{
anchors = (
{
name = top;
pos = (267,465);
}
);
associatedMasterId = "FDB3DCA5-8B9B-4CD6-9F94-BF1B4F24E2DE";
layerId = "C839DD54-2E64-4B54-9498-1A69A058689D";
shapes = (
{
closed = 1;
nodes = (
(388,443,o),
(478,353,o),
(478,235,cs),
(478,114,o),
(388,22,o),
(268,22,cs),
(147,22,o),
(57,114,o),
(57,235,cs),
(57,353,o),
(147,443,o),
(268,443,cs)
);
},
{
closed = 1;
nodes = (
(135,466,o),
(34,365,o),
(34,234,cs),
(34,101,o),
(135,0,o),
(268,0,cs),
(400,0,o),
(501,101,o),
(501,234,cs),
(501,365,o),
(400,466,o),
(268,466,cs)
);
}
);
width = 535.75;
},
{
anchors = (
{
name = bottom;
pos = (315,0);
},
{
name = center;
pos = (315,257);
},
{
name = ogonek;
pos = (566,10);
},
{
name = top;
pos = (315,513);
},
{
name = topright;
pos = (609,513);
}
);
layerId = "FDB3DCA5-8B9B-4CD6-9F94-BF1B4F24E2DE";
shapes = (
{
closed = 1;
nodes = (
(461,-8,o),
(579,110,o),
(579,257,cs),
(579,403,o),
(461,521,o),
(315,521,cs),
(169,521,o),
(50,403,o),
(50,257,cs),
(50,110,o),
(169,-8,o),
(315,-8,cs)
);
},
{
closed = 1;
nodes = (
(191,32,o),
(90,132,o),
(90,257,cs),
(90,381,o),
(191,481,o),
(315,481,cs),
(439,481,o),
(539,381,o),
(539,257,cs),
(539,132,o),
(439,32,o),
(315,32,cs)
);
}
);
width = 629;
}
);
unicode = 111;
},
{
glyphname = oslash;
lastChange = "2023-12-12 19:29:59 +0000";
layers = (
{
layerId = "FDB3DCA5-8B9B-4CD6-9F94-BF1B4F24E2DE";
shapes = (
{
ref = o;
},
{
closed = 1;
nodes = (
(564,476,l),
(536,503,l),
(70,37,l),
(98,10,l)
);
}
);
width = 629;
},
{
layerId = "C63D24B8-ED3A-4149-AD3E-D94B7A9D4395";
shapes = (
{
ref = o;
},
{
closed = 1;
nodes = (
(539,440,l),
(465,513,l),
(25,73,l),
(99,0,l)
);
}
);
width = 569;
}
);
unicode = 248;
},
{
glyphname = p;
kernLeft = n;
kernRight = o;
lastChange = "2023-12-12 19:26:00 +0000";
layers = (
{
anchors = (
{
name = bottom;
pos = (315,1);
}
);
layerId = "C63D24B8-ED3A-4149-AD3E-D94B7A9D4395";
shapes = (
{
closed = 1;
nodes = (
(451,-8,o),
(569,110,o),
(569,257,cs),
(569,403,o),
(451,521,o),
(305,521,cs),
(159,521,o),
(40,403,o),
(40,257,cs),
(40,110,o),
(159,-8,o),
(305,-8,cs)
);
},
{
closed = 1;
nodes = (
(200,-200,l),
(200,198,l),
(140,198,l),
(140,513,l),
(40,513,l),
(40,-200,l)
);
},
{
closed = 1;
nodes = (
(247,152,o),
(200,199,o),
(200,257,cs),
(200,314,o),
(247,361,o),
(305,361,cs),
(362,361,o),
(409,314,o),
(409,257,cs),
(409,199,o),
(362,152,o),
(305,152,cs)
);
}
);
width = 589;
},
{
associatedMasterId = "FDB3DCA5-8B9B-4CD6-9F94-BF1B4F24E2DE";
layerId = "C839DD54-2E64-4B54-9498-1A69A058689D";
shapes = (
{
alignment = -1;
angle = 180;
pos = (558,466);
ref = d;
}
);
width = 557.625;
},
{
anchors = (
{
name = bottom;
pos = (348,1);
}
);
layerId = "FDB3DCA5-8B9B-4CD6-9F94-BF1B4F24E2DE";
shapes = (
{
closed = 1;
nodes = (
(501,-8,o),
(619,110,o),
(619,257,cs),
(619,403,o),
(501,521,o),
(355,521,cs),
(209,521,o),
(90,403,o),
(90,257,cs),
(90,110,o),
(209,-8,o),
(355,-8,cs)
);
},
{
closed = 1;
nodes = (
(130,-200,l),
(130,362,l),
(130,401,l),
(130,513,l),
(90,513,l),
(90,-200,l)
);
},
{
closed = 1;
nodes = (
(231,32,o),
(130,132,o),
(130,257,cs),
(130,381,o),
(231,481,o),
(355,481,cs),
(479,481,o),
(579,381,o),
(579,257,cs),
(579,132,o),
(479,32,o),
(355,32,cs)
);
}
);
width = 669;
},
{
anchors = (
{
name = bottom;
pos = (348,1);
}
);
associatedMasterId = "FDB3DCA5-8B9B-4CD6-9F94-BF1B4F24E2DE";
layerId = "E9525F1A-E830-4A23-A636-7C825808487B";
name = "12 déc. 23 à 10:56";
shapes = (
{
closed = 1;
nodes = (
(130,362,l),
(130,401,l),
(130,513,l),
(90,513,l),
(90,-200,l),
(130,-200,l)
);
},
{
closed = 1;
nodes = (
(493,0,o),
(604,111,o),
(604,256,cs),
(604,402,o),
(493,513,o),
(347,513,cs),
(201,513,o),
(90,402,o),
(90,256,cs),
(90,111,o),
(201,0,o),
(347,0,cs)
);
},
{
closed = 1;
nodes = (
(224,40,o),
(130,134,o),
(130,256,cs),
(130,379,o),
(224,473,o),
(347,473,cs),
(470,473,o),
(564,379,o),
(564,256,cs),
(564,134,o),
(470,40,o),
(347,40,cs)
);
}
);
width = 644;
}
);
metricLeft = n;
metricRight = o;
unicode = 112;
},
{
glyphname = thorn;
kernRight = o;
lastChange = "2023-12-12 19:26:00 +0000";
layers = (
{
layerId = "C63D24B8-ED3A-4149-AD3E-D94B7A9D4395";
shapes = (
{
closed = 1;
nodes = (
(447,0,o),
(558,111,o),
(558,256,cs),
(558,402,o),
(447,513,o),
(301,513,cs),
(155,513,o),
(44,402,o),
(44,256,cs),
(44,111,o),
(155,0,o),
(301,0,cs)
);
},
{
closed = 1;
nodes = (
(204,-200,l),
(204,706,l),
(44,706,l),
(44,-200,l)
);
},
{
closed = 1;
nodes = (
(246,160,o),
(204,202,o),
(204,256,cs),
(204,311,o),
(246,353,o),
(301,353,cs),
(356,353,o),
(398,311,o),
(398,256,cs),
(398,202,o),
(356,160,o),
(301,160,cs)
);
}
);
width = 578;
},
{
associatedMasterId = "FDB3DCA5-8B9B-4CD6-9F94-BF1B4F24E2DE";
layerId = "C839DD54-2E64-4B54-9498-1A69A058689D";
shapes = (
{
ref = Thorn;
}
);
width = 426;
},
{
layerId = "FDB3DCA5-8B9B-4CD6-9F94-BF1B4F24E2DE";
shapes = (
{
closed = 1;
nodes = (
(493,0,o),
(604,111,o),
(604,256,cs),
(604,402,o),
(493,513,o),
(347,513,cs),
(201,513,o),
(90,402,o),
(90,256,cs),
(90,111,o),
(201,0,o),
(347,0,cs)
);
},
{
closed = 1;
nodes = (
(130,-200,l),
(130,706,l),
(90,706,l),
(90,-200,l)
);
},
{
closed = 1;
nodes = (
(224,40,o),
(130,134,o),
(130,256,cs),
(130,379,o),
(224,473,o),
(347,473,cs),
(470,473,o),
(564,379,o),
(564,256,cs),
(564,134,o),
(470,40,o),
(347,40,cs)
);
}
);
width = 654;
}
);
metricRight = p;
unicode = 254;
},
{
glyphname = r;
kernLeft = n;
kernRight = r;
lastChange = "2023-12-12 20:31:43 +0000";
layers = (
{
anchors = (
{
name = bottom;
pos = (123,0);
},
{
name = top;
pos = (197,513);
}
);
layerId = "C63D24B8-ED3A-4149-AD3E-D94B7A9D4395";
shapes = (
{
closed = 1;
nodes = (
(206,0,l),
(206,293,l),
(362,352,l),
(362,523,l),
(140,440,l),
(140,513,l),
(40,513,l),
(40,0,l)
);
}
);
width = 377;
},
{
associatedMasterId = "FDB3DCA5-8B9B-4CD6-9F94-BF1B4F24E2DE";
layerId = "C839DD54-2E64-4B54-9498-1A69A058689D";
shapes = (
{
closed = 1;
nodes = (
(65,0,l),
(89,0,l),
(89,466,l),
(65,466,l)
);
},
{
closed = 1;
nodes = (
(86,370,l),
(188,433,l),
(188,467,l),
(185,467,l),
(80,399,l),
(83,370,l)
);
}
);
width = 208;
},
{
anchors = (
{
name = bottom;
pos = (110,0);
},
{
name = top;
pos = (214,513);
}
);
layerId = "FDB3DCA5-8B9B-4CD6-9F94-BF1B4F24E2DE";
shapes = (
{
closed = 1;
nodes = (
(130,0,l),
(130,350,l),
(349,478,l),
(349,525,l),
(130,395,l),
(130,513,l),
(90,513,l),
(90,0,l)
);
}
);
width = 359;
}
);
metricLeft = n;
unicode = 114;
},
{
glyphname = s;
kernLeft = o;
kernRight = o;
lastChange = "2023-12-13 14:39:09 +0000";
layers = (
{
anchors = (
{
name = bottom;
pos = (228,0);
},
{
name = top;
pos = (228,513);
}
);
layerId = "C63D24B8-ED3A-4149-AD3E-D94B7A9D4395";
shapes = (
{
closed = 1;
nodes = (
(359,-18,o),
(436,63,o),
(436,154,cs),
(436,244,o),
(360,324,o),
(225,330,cs),
(201,331,o),
(187,345,o),
(187,365,cs),
(187,384,o),
(204,399,o),
(226,399,cs),
(248,399,o),
(265,384,o),
(265,365,cs),
(265,356,l),
(424,356,l),
(424,358,ls),
(424,460,o),
(344,530,o),
(225,530,cs),
(92,530,o),
(19,447,o),
(19,354,cs),
(19,265,o),
(94,181,o),
(225,181,cs),
(248,181,o),
(263,167,o),
(263,147,cs),
(263,129,o),
(246,114,o),
(225,114,cs),
(204,114,o),
(187,129,o),
(187,147,cs),
(187,154,l),
(11,154,l),
(11,153,ls),
(11,52,o),
(91,-18,o),
(225,-18,cs)
);
}
);
width = 456;
},
{
associatedMasterId = "FDB3DCA5-8B9B-4CD6-9F94-BF1B4F24E2DE";
layerId = "C839DD54-2E64-4B54-9498-1A69A058689D";
shapes = (
{
closed = 1;
nodes = (
(145,253,ls),
(98,260,o),
(56,284,o),
(56,340,cs),
(56,393,o),
(104,415,o),
(134,415,cs),
(162,415,o),
(208,394,o),
(213,339,cs),
(213,317,l),
(238,317,l),
(238,343,ls),
(238,421,o),
(178,456,o),
(129,456,cs),
(81,456,o),
(32,402,o),
(32,339,cs),
(32,288,o),
(54,222,o),
(145,213,cs),
(152,213,ls),
(194,209,o),
(224,168,o),
(224,124,cs),
(224,65,o),
(182,48,o),
(142,48,cs),
(106,48,o),
(55,67,o),
(55,140,cs),
(55,167,l),
(30,166,l),
(30,142,ls),
(29,65,o),
(82,6,o),
(130,6,cs),
(196,6,o),
(248,66,o),
(248,137,cs),
(248,185,o),
(223,242,o),
(127,254,cs)
);
}
);
width = 260.5;
},
{
anchors = (
{
name = bottom;
pos = (208,0);
},
{
name = top;
pos = (208,513);
}
);
layerId = "FDB3DCA5-8B9B-4CD6-9F94-BF1B4F24E2DE";
shapes = (
{
closed = 1;
nodes = (
(290,-11,o),
(353,47,o),
(353,131,cs),
(353,217,o),
(290,278,o),
(208,278,cs),
(148,278,o),
(102,322,o),
(102,382,cs),
(102,440,o),
(148,484,o),
(208,484,cs),
(268,484,o),
(314,440,o),
(314,382,cs),
(314,376,l),
(355,376,l),
(355,382,ls),
(355,464,o),
(291,524,o),
(208,524,cs),
(125,524,o),
(62,464,o),
(62,382,cs),
(62,297,o),
(125,234,o),
(208,234,cs),
(267,234,o),
(312,191,o),
(312,131,cs),
(312,73,o),
(267,29,o),
(208,29,cs),
(147,29,o),
(101,73,o),
(101,131,cs),
(101,140,l),
(60,140,l),
(60,131,ls),
(60,47,o),
(123,-11,o),
(208,-11,cs)
);
}
);
width = 415;
},
{
associatedMasterId = "FDB3DCA5-8B9B-4CD6-9F94-BF1B4F24E2DE";
layerId = "1DD9B448-E041-40AA-8658-DBD52568196F";
name = "Dec 9 19, 15:32";
shapes = (
{
closed = 1;
nodes = (
(154,259,ls),
(109,266,o),
(71,288,o),
(71,339,cs),
(71,387,o),
(115,409,o),
(146,409,cs),
(176,409,o),
(219,388,o),
(223,338,cs),
(223,317,l),
(263,317,l),
(263,341,ls),
(263,422,o),
(201,459,o),
(142,459,cs),
(86,459,o),
(32,405,o),
(32,338,cs),
(32,282,o),
(59,219,o),
(151,210,cs),
(164,209,ls),
(207,205,o),
(234,168,o),
(234,127,cs),
(234,73,o),
(196,56,o),
(155,56,cs),
(117,56,o),
(70,76,o),
(70,143,cs),
(70,167,l),
(30,167,l),
(30,144,ls),
(29,63,o),
(87,5,o),
(146,5,cs),
(218,5,o),
(273,65,o),
(273,138,cs),
(273,191,o),
(244,247,o),
(148,259,cs)
);
}
);
width = 287.5;
},
{
associatedMasterId = "FDB3DCA5-8B9B-4CD6-9F94-BF1B4F24E2DE";
layerId = "1C000D20-7575-46F8-8B67-7EFF466115EC";
name = "Dec 9 19, 16:13";
shapes = (
{
closed = 1;
nodes = (
(171,244,ls),
(112,258,o),
(66,277,o),
(66,340,cs),
(66,398,o),
(119,429,o),
(175,429,cs),
(230,429,o),
(290,398,o),
(290,335,cs),
(290,317,l),
(325,317,l),
(325,334,ls),
(325,423,o),
(258,466,o),
(174,466,cs),
(98,466,o),
(32,412,o),
(32,333,cs),
(32,267,o),
(71,225,o),
(165,205,cs),
(193,199,ls),
(237,190,o),
(305,183,o),
(305,132,cs),
(305,64,o),
(255,38,o),
(188,38,cs),
(122,38,o),
(61,70,o),
(61,157,cs),
(61,166,l),
(30,166,l),
(30,150,ls),
(30,57,o),
(100,0,o),
(183,0,cs),
(273,0,o),
(335,52,o),
(335,130,cs),
(335,195,o),
(307,213,o),
(210,235,cs)
);
}
);
width = 366;
},
{
associatedMasterId = "C63D24B8-ED3A-4149-AD3E-D94B7A9D4395";
layerId = "738296C8-861E-40AD-9CB9-C1B7C92B1604";
name = "Apr 23 20, 15:29";
shapes = (
{
closed = 1;
nodes = (
(444,349,ls),
(444,449,o),
(352,526,o),
(233,526,cs),
(114,526,o),
(21,459,o),
(21,359,cs),
(21,261,o),
(110,185,o),
(233,185,cs),
(257,185,o),
(267,174,o),
(267,154,cs),
(267,143,o),
(257,126,o),
(233,126,cs),
(208,126,o),
(196,143,o),
(196,164,cs),
(196,171,l),
(21,171,l),
(21,164,ls),
(21,64,o),
(112,-13,o),
(233,-13,cs),
(352,-13,o),
(444,54,o),
(444,154,cs),
(444,252,o),
(350,327,o),
(233,327,cs),
(212,327,o),
(196,339,o),
(196,359,cs),
(196,380,o),
(212,387,o),
(233,387,cs),
(252,387,o),
(269,370,o),
(269,349,cs),
(269,336,l),
(444,336,l)
);
}
);
width = 465;
},
{
anchors = (
{
name = bottom;
pos = (227,0);
},
{
name = top;
pos = (227,513);
}
);
associatedMasterId = "C63D24B8-ED3A-4149-AD3E-D94B7A9D4395";
layerId = "276E0619-19E0-478F-ABED-DC7F56746D8D";
name = "11 déc. 23 à 17:16";
shapes = (
{
closed = 1;
nodes = (
(438,349,ls),
(438,446,o),
(352,513,o),
(227,513,cs),
(88,513,o),
(22,428,o),
(22,345,cs),
(22,266,o),
(91,188,o),
(227,188,cs),
(254,188,o),
(269,175,o),
(269,161,cs),
(269,146,o),
(251,131,o),
(233,131,cs),
(211,131,o),
(190,141,o),
(190,163,cs),
(190,165,l),
(25,165,l),
(25,163,ls),
(25,68,o),
(116,0,o),
(227,0,cs),
(368,0,o),
(440,82,o),
(440,164,cs),
(440,244,o),
(370,324,o),
(227,324,cs),
(201,324,o),
(184,339,o),
(184,354,cs),
(184,368,o),
(195,382,o),
(218,382,cs),
(240,382,o),
(263,372,o),
(263,349,cs),
(263,346,l),
(438,346,l)
);
}
);
width = 453;
},
{
anchors = (
{
name = bottom;
pos = (210,0);
},
{
name = top;
pos = (210,513);
}
);
associatedMasterId = "FDB3DCA5-8B9B-4CD6-9F94-BF1B4F24E2DE";
layerId = "C341940D-DFEA-4A76-ABC5-3EC5B6098701";
name = "12 déc. 23 à 11:16";
shapes = (
{
closed = 1;
nodes = (
(70,139,ls),
(70,58,o),
(129,0,o),
(210,0,cs),
(288,0,o),
(348,58,o),
(348,139,cs),
(348,220,o),
(288,278,o),
(210,278,cs),
(155,278,o),
(113,319,o),
(113,374,cs),
(113,429,o),
(155,471,o),
(210,471,cs),
(265,471,o),
(307,429,o),
(307,374,cs),
(307,359,l),
(349,359,l),
(349,374,ls),
(349,454,o),
(289,513,o),
(210,513,cs),
(131,513,o),
(71,454,o),
(71,374,cs),
(71,294,o),
(131,234,o),
(210,234,cs),
(264,234,o),
(305,194,o),
(305,139,cs),
(305,84,o),
(264,42,o),
(210,42,cs),
(154,42,o),
(112,84,o),
(112,139,cs),
(112,159,l),
(70,159,l)
);
}
);
width = 419;
}
);
unicode = 115;
},
{
glyphname = germandbls;
kernLeft = H;
kernRight = B;
lastChange = "2023-12-12 19:26:00 +0000";
layers = (
{
layerId = "C63D24B8-ED3A-4149-AD3E-D94B7A9D4395";
shapes = (
{
closed = 1;
nodes = (
(387,-200,ls),
(509,-200,o),
(605,-106,o),
(605,17,cs),
(605,130,o),
(524,232,o),
(387,232,c),
(428,185,l),
(570,513,l),
(141,513,l),
(141,348,l),
(354,348,l),
(247,65,l),
(387,65,ls),
(419,65,o),
(434,41,o),
(434,17,cs),
(434,-8,o),
(419,-32,o),
(387,-32,cs),
(253,-32,l),
(253,-200,l)
);
},
{
closed = 1;
nodes = (
(200,0,l),
(200,510,ls),
(200,549,o),
(231,580,o),
(270,580,cs),
(309,580,l),
(309,740,l),
(270,740,ls),
(145,740,o),
(40,641,o),
(40,517,cs),
(40,-1,l)
);
}
);
width = 625;
},
{
associatedMasterId = "FDB3DCA5-8B9B-4CD6-9F94-BF1B4F24E2DE";
layerId = "C839DD54-2E64-4B54-9498-1A69A058689D";
shapes = (
{
closed = 1;
nodes = (
(319,642,l),
(65,642,l),
(65,0,l),
(89,0,l),
(89,620,l),
(272,620,l),
(156,372,l),
(155,372,ls),
(256,372,o),
(332,298,o),
(332,197,cs),
(332,97,o),
(255,20,o),
(155,20,c),
(155,0,l),
(266,0,o),
(353,85,o),
(353,197,cs),
(353,290,o),
(293,364,o),
(209,387,c)
);
},
{
closed = 1;
nodes = (
(140,0,l),
(155,0,l),
(155,20,l),
(140,20,l)
);
}
);
width = 414.75;
},
{
layerId = "FDB3DCA5-8B9B-4CD6-9F94-BF1B4F24E2DE";
shapes = (
{
closed = 1;
nodes = (
(240,-200,ls),
(372,-200,o),
(468,-106,o),
(468,17,cs),
(468,129,o),
(388,229,o),
(266,228,c),
(290,206,l),
(433,513,l),
(127,513,l),
(127,473,l),
(370,473,l),
(237,193,l),
(240,193,ls),
(351,193,o),
(427,116,o),
(427,17,cs),
(427,-83,o),
(350,-160,o),
(240,-160,cs),
(210,-160,l),
(210,-200,l)
);
},
{
closed = 1;
nodes = (
(130,0,l),
(130,523,ls),
(130,602,o),
(195,667,o),
(274,667,cs),
(292,667,l),
(292,706,l),
(273,706,ls),
(173,706,o),
(91,624,o),
(91,523,cs),
(90,0,l)
);
}
);
width = 518;
}
);
metricLeft = n;
metricRight = three;
unicode = 223;
},
{
glyphname = t;
kernLeft = f;
kernRight = f;
lastChange = "2023-12-12 19:26:00 +0000";
layers = (
{
associatedMasterId = "FDB3DCA5-8B9B-4CD6-9F94-BF1B4F24E2DE";
layerId = "C839DD54-2E64-4B54-9498-1A69A058689D";
width = 317;
},
{
anchors = (
{
name = bottom;
pos = (175,0);
},
{
name = center;
pos = (175,257);
},
{
name = top;
pos = (175,608);
},
{
name = topright;
pos = (225,750);
}
);
layerId = "FDB3DCA5-8B9B-4CD6-9F94-BF1B4F24E2DE";
shapes = (
{
closed = 1;
nodes = (
(195,0,l),
(195,473,l),
(337,473,l),
(337,513,l),
(195,513,l),
(195,619,l),
(194,620,l),
(155,583,l),
(155,513,l),
(30,513,l),
(30,473,l),
(155,473,l),
(155,-1,l)
);
}
);
width = 367;
},
{
associatedMasterId = "FDB3DCA5-8B9B-4CD6-9F94-BF1B4F24E2DE";
layerId = "8FE366EA-0582-45EF-9C65-D5C05732305E";
name = "Apr 22 20, 15:48";
shapes = (
{
closed = 1;
nodes = (
(127,574,l),
(10,473,l),
(103,473,l),
(103,0,l),
(143,0,l),
(143,473,l),
(295,473,l),
(295,513,l),
(136,513,l),
(136,574,l)
);
}
);
width = 335;
},
{
associatedMasterId = "C63D24B8-ED3A-4149-AD3E-D94B7A9D4395";
layerId = "4A358D2A-D94B-4729-93AA-28B3396C3A2E";
name = "Apr 22 20, 15:53";
shapes = (
{
closed = 1;
nodes = (
(257,645,l),
(10,347,l),
(113,347,l),
(113,0,l),
(273,0,l),
(273,353,l),
(418,353,l),
(418,513,l),
(266,513,l),
(266,645,l)
);
}
);
width = 438;
},
{
anchors = (
{
name = bottom;
pos = (221,0);
},
{
name = center;
pos = (221,257);
},
{
name = top;
pos = (221,648);
},
{
name = topright;
pos = (329,737);
}
);
layerId = "C63D24B8-ED3A-4149-AD3E-D94B7A9D4395";
shapes = (
{
closed = 1;
nodes = (
(301,0,l),
(301,353,l),
(430,353,l),
(430,513,l),
(301,513,l),
(301,696,l),
(300,697,l),
(141,590,l),
(141,513,l),
(30,513,l),
(30,353,l),
(141,353,l),
(141,0,l)
);
}
);
width = 450;
}
);
unicode = 116;
},
{
glyphname = u;
kernLeft = u;
kernRight = u;
lastChange = "2023-12-13 13:52:55 +0000";
layers = (
{
anchors = (
{
name = bottom;
pos = (274,0);
},
{
name = ogonek;
pos = (404,41);
},
{
name = top;
pos = (274,513);
},
{
name = topright;
pos = (532,513);
}
);
layerId = "C63D24B8-ED3A-4149-AD3E-D94B7A9D4395";
shapes = (
{
closed = 1;
nodes = (
(404,-10,o),
(508,94,o),
(508,224,cs),
(508,513,l),
(348,513,l),
(348,224,ls),
(348,183,o),
(315,150,o),
(274,150,cs),
(232,150,o),
(200,182,o),
(200,224,cs),
(200,513,l),
(40,513,l),
(40,224,ls),
(40,94,o),
(144,-10,o),
(274,-10,cs)
);
}
);
width = 548;
},
{
anchors = (
{
name = top;
pos = (206,466);
}
);
associatedMasterId = "FDB3DCA5-8B9B-4CD6-9F94-BF1B4F24E2DE";
layerId = "C839DD54-2E64-4B54-9498-1A69A058689D";
shapes = (
{
closed = 1;
nodes = (
(40,466,l),
(40,146,ls),
(40,62,o),
(105,0,o),
(188,0,cs),
(270,0,o),
(336,62,o),
(336,146,cs),
(336,466,l),
(314,466,l),
(314,148,ls),
(314,76,o),
(261,20,o),
(188,20,cs),
(116,20,o),
(60,76,o),
(60,148,cs),
(60,466,l)
);
}
);
width = 376;
},
{
anchors = (
{
name = bottom;
pos = (263,0);
},
{
name = ogonek;
pos = (375,40);
},
{
name = top;
pos = (263,513);
},
{
name = topright;
pos = (505,513);
}
);
layerId = "FDB3DCA5-8B9B-4CD6-9F94-BF1B4F24E2DE";
shapes = (
{
closed = 1;
nodes = (
(360,-10,o),
(435,63,o),
(435,161,cs),
(435,513,l),
(395,513,l),
(395,163,ls),
(395,88,o),
(339,30,o),
(263,30,cs),
(188,30,o),
(130,88,o),
(130,163,cs),
(130,513,l),
(90,513,l),
(90,161,ls),
(90,63,o),
(166,-10,o),
(263,-10,cs)
);
}
);
width = 525;
},
{
anchors = (
{
name = top;
pos = (261,513);
}
);
associatedMasterId = "C63D24B8-ED3A-4149-AD3E-D94B7A9D4395";
layerId = "DE85F6FB-67F8-4E48-91E4-6EB4DC93B43C";
name = "Apr 23 20, 15:26";
shapes = (
{
closed = 1;
nodes = (
(44,513,l),
(44,243,ls),
(44,106,o),
(151,0,o),
(293,0,cs),
(430,0,o),
(538,106,o),
(538,243,cs),
(538,513,l),
(378,513,l),
(378,247,ls),
(378,199,o),
(338,160,o),
(293,160,cs),
(243,160,o),
(204,199,o),
(204,247,cs),
(204,513,l)
);
}
);
width = 582;
}
);
metricLeft = n;
metricRight = n;
unicode = 117;
},
{
glyphname = v;
kernLeft = v;
kernRight = v;
lastChange = "2023-12-12 19:26:00 +0000";
layers = (
{
layerId = "C63D24B8-ED3A-4149-AD3E-D94B7A9D4395";
shapes = (
{
closed = 1;
nodes = (
(267,-40,l),
(531,513,l),
(351,513,l),
(266,320,l),
(180,513,l),
(0,513,l),
(265,-40,l)
);
}
);
width = 531;
},
{
associatedMasterId = "FDB3DCA5-8B9B-4CD6-9F94-BF1B4F24E2DE";
hints = (
{
horizontal = 1;
place = (0,21);
target = up;
type = BottomGhost;
},
{
horizontal = 1;
place = (641.99,-20);
target = down;
type = TopGhost;
}
);
layerId = "C839DD54-2E64-4B54-9498-1A69A058689D";
shapes = (
{
closed = 1;
nodes = (
(319,465,l),
(168,41,l),
(17,465,l),
(9,465,l),
(165,-12,l),
(171,-12,l),
(327,465,l)
);
}
);
width = 336.5;
},
{
layerId = "FDB3DCA5-8B9B-4CD6-9F94-BF1B4F24E2DE";
shapes = (
{
closed = 1;
nodes = (
(248,-30,l),
(452,513,l),
(409,513,l),
(246,72,l),
(81,513,l),
(40,513,l),
(244,-30,l)
);
}
);
width = 492;
}
);
note = v;
unicode = 118;
},
{
glyphname = w;
kernLeft = v;
kernRight = v;
lastChange = "2023-12-12 19:26:00 +0000";
layers = (
{
anchors = (
{
name = bottom;
pos = (410,0);
},
{
name = top;
pos = (410,513);
}
);
guides = (
{
pos = (-122,-47);
}
);
layerId = "C63D24B8-ED3A-4149-AD3E-D94B7A9D4395";
shapes = (
{
closed = 1;
nodes = (
(263,-40,l),
(410,227,l),
(557,-40,l),
(559,-40,l),
(820,513,l),
(629,513,l),
(537,325,l),
(411,553,l),
(409,553,l),
(283,325,l),
(191,513,l),
(0,513,l),
(261,-40,l)
);
}
);
width = 820;
},
{
anchors = (
{
name = top;
pos = (303,466);
}
);
associatedMasterId = "FDB3DCA5-8B9B-4CD6-9F94-BF1B4F24E2DE";
hints = (
{
horizontal = 1;
place = (0,21);
target = up;
type = BottomGhost;
},
{
horizontal = 1;
place = (643.01,-20);
target = down;
type = TopGhost;
}
);
layerId = "C839DD54-2E64-4B54-9498-1A69A058689D";
shapes = (
{
closed = 1;
nodes = (
(171,-121,l),
(255,212,l),
(339,-117,l),
(501,467,l),
(501,467,l),
(353,8,l),
(259,368,l),
(256,368,l),
(157,8,l),
(10,467,l),
(9,467,l)
);
}
);
width = 510.1;
},
{
anchors = (
{
name = bottom;
pos = (371,0);
},
{
name = top;
pos = (371,454);
}
);
layerId = "FDB3DCA5-8B9B-4CD6-9F94-BF1B4F24E2DE";
shapes = (
{
closed = 1;
nodes = (
(212,-30,l),
(371,329,l),
(530,-30,l),
(531,-30,l),
(702,513,l),
(659,513,l),
(525,72,l),
(372,428,l),
(370,428,l),
(218,72,l),
(82,513,l),
(40,513,l),
(211,-30,l)
);
}
);
width = 742;
},
{
anchors = (
{
name = top;
pos = (333,513);
}
);
associatedMasterId = "C63D24B8-ED3A-4149-AD3E-D94B7A9D4395";
hints = (
{
horizontal = 1;
place = (0,21);
target = up;
type = BottomGhost;
},
{
horizontal = 1;
place = (707,-20);
target = down;
type = TopGhost;
}
);
layerId = "89BCB72A-74AB-409E-91A2-AB0E0EB8F2C9";
name = "Apr 23 20, 16:52";
shapes = (
{
closed = 1;
nodes = (
(261,-114,l),
(409,217,l),
(557,-116,l),
(818,512,l),
(616,512,l),
(536,295,l),
(414,547,l),
(403,547,l),
(282,295,l),
(200,512,l),
(-1,512,l)
);
}
);
width = 817;
},
{
anchors = (
{
name = top;
pos = (299,513);
}
);
associatedMasterId = "FDB3DCA5-8B9B-4CD6-9F94-BF1B4F24E2DE";
hints = (
{
horizontal = 1;
place = (0,21);
target = up;
type = BottomGhost;
},
{
horizontal = 1;
place = (707,-20);
target = down;
type = TopGhost;
}
);
layerId = "695FE7CC-A713-40A2-8C5D-4DDB9037E5BB";
name = "Apr 24 20, 08:47";
shapes = (
{
closed = 1;
nodes = (
(449,-30,l),
(607,513,l),
(567,513,l),
(439,70,l),
(303,424,l),
(298,424,l),
(157,70,l),
(28,513,l),
(-11,513,l),
(147,-30,l),
(152,-30,l),
(298,329,l),
(444,-30,l)
);
}
);
width = 595;
}
);
metricLeft = v;
metricRight = v;
note = w;
unicode = 119;
},
{
glyphname = x;
kernLeft = k;
kernRight = k;
lastChange = "2023-12-12 19:28:42 +0000";
layers = (
{
layerId = "C63D24B8-ED3A-4149-AD3E-D94B7A9D4395";
shapes = (
{
closed = 1;
nodes = (
(31,331,l),
(31,541,l),
(33,542,l),
(475,182,l),
(475,-28,l),
(473,-29,l)
);
},
{
closed = 1;
nodes = (
(31,-28,l),
(31,182,l),
(473,542,l),
(475,541,l),
(475,331,l),
(33,-29,l)
);
}
);
width = 505;
},
{
associatedMasterId = "FDB3DCA5-8B9B-4CD6-9F94-BF1B4F24E2DE";
hints = (
{
horizontal = 1;
place = (0,21);
target = up;
type = BottomGhost;
},
{
horizontal = 1;
place = (643,-20);
target = down;
type = TopGhost;
}
);
layerId = "C839DD54-2E64-4B54-9498-1A69A058689D";
shapes = (
{
closed = 1;
nodes = (
(440,457,l),
(429,457,l)
);
},
{
closed = 1;
nodes = (
(46,9,l),
(438,415,l),
(440,457,l),
(429,457,l),
(35,49,l),
(35,9,l)
);
},
{
closed = 1;
nodes = (
(440,9,l),
(440,49,l),
(46,457,l),
(35,457,l),
(37,415,l),
(429,9,l)
);
}
);
width = 475;
},
{
layerId = "FDB3DCA5-8B9B-4CD6-9F94-BF1B4F24E2DE";
shapes = (
{
closed = 1;
nodes = (
(51,474,l),
(51,526,l),
(53,527,l),
(525,39,l),
(525,-13,l),
(523,-14,l)
);
},
{
closed = 1;
nodes = (
(51,-13,l),
(51,39,l),
(523,527,l),
(525,526,l),
(525,474,l),
(53,-14,l)
);
}
);
width = 575;
}
);
note = x;
unicode = 120;
},
{
glyphname = y;
kernLeft = v;
kernRight = v;
lastChange = "2023-12-13 14:53:07 +0000";
layers = (
{
anchors = (
{
name = top;
pos = (265,513);
}
);
layerId = "C63D24B8-ED3A-4149-AD3E-D94B7A9D4395";
shapes = (
{
closed = 1;
nodes = (
(230,-125,l),
(531,513,l),
(351,513,l),
(266,320,l),
(180,513,l),
(0,513,l),
(182,134,l),
(50,-125,l)
);
}
);
width = 531;
},
{
anchors = (
{
name = top;
pos = (179,466);
}
);
associatedMasterId = "FDB3DCA5-8B9B-4CD6-9F94-BF1B4F24E2DE";
hints = (
{
horizontal = 1;
place = (0,21);
target = up;
type = BottomGhost;
},
{
horizontal = 1;
place = (642.03,-20);
target = down;
type = TopGhost;
},
{
horizontal = 1;
place = (0,21);
target = up;
type = BottomGhost;
},
{
horizontal = 1;
place = (641.99,-20);
target = down;
type = TopGhost;
},
{
horizontal = 1;
place = (0,21);
target = up;
type = BottomGhost;
},
{
horizontal = 1;
place = (641.99,-20);
target = down;
type = TopGhost;
}
);
layerId = "C839DD54-2E64-4B54-9498-1A69A058689D";
shapes = (
{
closed = 1;
nodes = (
(187,37,l),
(24,466,l),
(18,466,l),
(9,466,l),
(175,55,l)
);
},
{
closed = 1;
nodes = (
(87,-137,l),
(95,-137,l),
(105,-137,l),
(313,466,l),
(296,466,l),
(296,466,l)
);
}
);
width = 322.5;
},
{
anchors = (
{
name = top;
pos = (252,513);
}
);
layerId = "FDB3DCA5-8B9B-4CD6-9F94-BF1B4F24E2DE";
shapes = (
{
closed = 1;
nodes = (
(192,-180,l),
(452,513,l),
(409,513,l),
(246,72,l),
(81,513,l),
(40,513,l),
(226,18,l),
(152,-180,l)
);
}
);
width = 492;
},
{
anchors = (
{
name = top;
pos = (227,513);
}
);
associatedMasterId = "FDB3DCA5-8B9B-4CD6-9F94-BF1B4F24E2DE";
hints = (
{
horizontal = 1;
place = (0,21);
target = up;
type = BottomGhost;
},
{
horizontal = 1;
place = (706,-20);
target = down;
type = TopGhost;
},
{
horizontal = 1;
place = (0,21);
target = up;
type = BottomGhost;
},
{
horizontal = 1;
place = (706,-20);
target = down;
type = TopGhost;
},
{
horizontal = 1;
place = (0,21);
target = up;
type = BottomGhost;
},
{
horizontal = 1;
place = (706,-20);
target = down;
type = TopGhost;
}
);
layerId = "9C8B84F8-DEA8-4FDB-871D-FF55DCA8486A";
name = "Apr 24 20, 08:44";
shapes = (
{
closed = 1;
nodes = (
(216,96,l),
(32,513,l),
(26,513,l),
(-11,513,l),
(192,55,l)
);
},
{
closed = 1;
nodes = (
(77,-151,l),
(105,-151,l),
(116,-151,l),
(394,513,l),
(350,513,l),
(350,513,l)
);
}
);
width = 382;
}
);
metricLeft = v;
metricRight = v;
unicode = 121;
},
{
glyphname = z;
kernLeft = z;
kernRight = z;
lastChange = "2023-12-12 19:26:00 +0000";
layers = (
{
anchors = (
{
name = bottom;
pos = (212,0);
},
{
name = center;
pos = (212,257);
},
{
name = top;
pos = (212,513);
}
);
layerId = "C63D24B8-ED3A-4149-AD3E-D94B7A9D4395";
shapes = (
{
closed = 1;
nodes = (
(404,0,l),
(404,166,l),
(263,166,l),
(411,513,l),
(30,513,l),
(30,347,l),
(169,347,l),
(20,0,l)
);
}
);
width = 424;
},
{
associatedMasterId = "FDB3DCA5-8B9B-4CD6-9F94-BF1B4F24E2DE";
layerId = "C839DD54-2E64-4B54-9498-1A69A058689D";
shapes = (
{
closed = 1;
nodes = (
(3,466,l),
(3,443,l),
(242,443,l),
(11,3,l),
(11,0,l),
(300,0,l),
(300,24,l),
(51,24,l),
(295,466,l)
);
}
);
width = 318.875;
},
{
anchors = (
{
name = bottom;
pos = (222,0);
},
{
name = center;
pos = (222,257);
},
{
name = top;
pos = (222,513);
}
);
layerId = "FDB3DCA5-8B9B-4CD6-9F94-BF1B4F24E2DE";
shapes = (
{
closed = 1;
nodes = (
(384,0,l),
(384,38,l),
(125,38,l),
(381,513,l),
(60,513,l),
(60,475,l),
(316,475,l),
(60,0,l)
);
}
);
width = 444;
}
);
unicode = 122;
},
{
glyphname = saltillo;
lastChange = "2023-12-12 19:26:00 +0000";
layers = (
{
layerId = "FDB3DCA5-8B9B-4CD6-9F94-BF1B4F24E2DE";
shapes = (
{
closed = 1;
nodes = (
(90,493,l),
(90,730,l),
(50,730,l),
(50,493,l)
);
}
);
width = 140;
},
{
layerId = "C63D24B8-ED3A-4149-AD3E-D94B7A9D4395";
shapes = (
{
closed = 1;
nodes = (
(155,493,l),
(155,730,l),
(40,730,l),
(40,493,l)
);
}
);
width = 195;
}
);
unicode = 42892;
},
{
glyphname = m.ss02;
kernLeft = m;
kernRight = m;
lastChange = "2023-12-12 20:00:13 +0000";
layers = (
{
anchors = (
{
name = bottom;
pos = (308,0);
}
);
layerId = "FDB3DCA5-8B9B-4CD6-9F94-BF1B4F24E2DE";
shapes = (
{
closed = 1;
nodes = (
(435,0,l),
(435,340,ls),
(435,415,o),
(493,473,o),
(568,473,cs),
(644,473,o),
(700,415,o),
(700,340,cs),
(700,0,l),
(740,0,l),
(740,342,ls),
(740,440,o),
(665,513,o),
(568,513,cs),
(471,513,o),
(395,440,o),
(395,342,cs),
(395,0,l)
);
},
{
closed = 1;
nodes = (
(130,0,l),
(130,362,l),
(125,362,l),
(125,513,l),
(90,513,l),
(90,0,l)
);
},
{
closed = 1;
nodes = (
(130,0,l),
(130,340,ls),
(130,415,o),
(188,473,o),
(263,473,cs),
(339,473,o),
(395,415,o),
(395,340,cs),
(395,0,l),
(435,0,l),
(435,342,ls),
(435,440,o),
(360,513,o),
(263,513,cs),
(166,513,o),
(90,440,o),
(90,342,cs),
(90,0,l)
);
}
);
width = 830;
},
{
anchors = (
{
name = bottom;
pos = (299,0);
}
);
layerId = "C63D24B8-ED3A-4149-AD3E-D94B7A9D4395";
shapes = (
{
closed = 1;
nodes = (
(508,0,l),
(508,279,ls),
(508,321,o),
(540,353,o),
(582,353,cs),
(623,353,o),
(656,320,o),
(656,279,cs),
(656,0,l),
(816,0,l),
(816,279,ls),
(816,409,o),
(712,513,o),
(582,513,cs),
(452,513,o),
(348,409,o),
(348,279,cs),
(348,0,l)
);
},
{
closed = 1;
nodes = (
(200,0,l),
(200,391,l),
(140,391,l),
(140,513,l),
(40,513,l),
(40,0,l)
);
},
{
closed = 1;
nodes = (
(200,0,l),
(200,279,ls),
(200,321,o),
(232,353,o),
(274,353,cs),
(315,353,o),
(348,320,o),
(348,279,cs),
(348,0,l),
(508,0,l),
(508,279,ls),
(508,409,o),
(404,513,o),
(274,513,cs),
(144,513,o),
(40,409,o),
(40,279,cs),
(40,0,l)
);
}
);
width = 856;
}
);
metricLeft = n;
metricRight = n;
},
{
glyphname = n.ss02;
kernLeft = n;
kernRight = n;
lastChange = "2023-12-12 20:00:13 +0000";
layers = (
{
anchors = (
{
name = bottom;
pos = (263,0);
},
{
name = top;
pos = (263,513);
}
);
layerId = "FDB3DCA5-8B9B-4CD6-9F94-BF1B4F24E2DE";
shapes = (
{
closed = 1;
nodes = (
(130,0,l),
(130,350,ls),
(130,425,o),
(188,483,o),
(263,483,cs),
(339,483,o),
(395,425,o),
(395,350,cs),
(395,0,l),
(435,0,l),
(435,352,ls),
(435,450,o),
(360,523,o),
(263,523,cs),
(166,523,o),
(90,450,o),
(90,352,cs),
(90,0,l)
);
},
{
closed = 1;
nodes = (
(130,0,l),
(130,362,l),
(125,401,l),
(125,513,l),
(90,513,l),
(90,0,l)
);
}
);
width = 525;
},
{
anchors = (
{
name = bottom;
pos = (274,0);
},
{
name = top;
pos = (275,513);
}
);
layerId = "C63D24B8-ED3A-4149-AD3E-D94B7A9D4395";
shapes = (
{
closed = 1;
nodes = (
(200,0,l),
(200,289,ls),
(200,331,o),
(232,363,o),
(274,363,cs),
(315,363,o),
(348,330,o),
(348,289,cs),
(348,0,l),
(508,0,l),
(508,289,ls),
(508,419,o),
(404,523,o),
(274,523,cs),
(144,523,o),
(40,419,o),
(40,289,cs),
(40,0,l)
);
},
{
closed = 1;
nodes = (
(200,0,l),
(200,391,l),
(140,391,l),
(140,513,l),
(40,513,l),
(40,0,l)
);
}
);
width = 548;
}
);
metricLeft = n;
metricRight = n;
},
{
glyphname = fi.liga;
kernLeft = f;
lastChange = "2023-12-12 19:26:00 +0000";
layers = (
{
anchors = (
{
name = caret_1;
pos = (325,0);
}
);
layerId = "FDB3DCA5-8B9B-4CD6-9F94-BF1B4F24E2DE";
shapes = (
{
closed = 1;
nodes = (
(536,0,l),
(536,513,l),
(40,513,l),
(40,473,l),
(496,473,l),
(496,0,l)
);
},
{
closed = 1;
nodes = (
(188,0,l),
(188,523,ls),
(188,602,o),
(253,667,o),
(332,667,cs),
(380,667,l),
(380,706,l),
(331,706,ls),
(231,706,o),
(149,624,o),
(149,523,cs),
(148,0,l)
);
},
{
closed = 1;
nodes = (
(539,639,o),
(558,657,o),
(558,681,cs),
(558,703,o),
(539,721,o),
(517,721,cs),
(493,721,o),
(474,703,o),
(474,681,cs),
(474,657,o),
(493,639,o),
(517,639,cs)
);
}
);
width = 630;
},
{
anchors = (
{
name = caret_1;
pos = (323,0);
}
);
layerId = "C63D24B8-ED3A-4149-AD3E-D94B7A9D4395";
shapes = (
{
closed = 1;
nodes = (
(612,0,l),
(612,513,l),
(30,513,l),
(30,353,l),
(452,353,l),
(452,0,l)
);
},
{
closed = 1;
nodes = (
(281,0,l),
(281,510,ls),
(281,549,o),
(312,580,o),
(351,580,cs),
(390,580,l),
(390,740,l),
(351,740,ls),
(226,740,o),
(121,641,o),
(121,517,cs),
(121,-1,l)
);
},
{
closed = 1;
nodes = (
(588,574,o),
(629,615,o),
(629,669,cs),
(629,719,o),
(588,762,o),
(535,762,cs),
(485,762,o),
(441,719,o),
(441,669,cs),
(441,615,o),
(485,574,o),
(535,574,cs)
);
}
);
width = 644;
}
);
metricLeft = f;
metricRight = i;
},
{
glyphname = zero;
kernLeft = O;
kernRight = O;
lastChange = "2023-12-12 10:39:28 +0000";
layers = (
{
layerId = "C63D24B8-ED3A-4149-AD3E-D94B7A9D4395";
shapes = (
{
ref = O;
}
);
width = 785;
},
{
associatedMasterId = "FDB3DCA5-8B9B-4CD6-9F94-BF1B4F24E2DE";
hints = (
{
horizontal = 1;
place = (0,75);
type = Stem;
},
{
horizontal = 1;
place = (388.98,76.02);
type = Stem;
}
);
layerId = "C839DD54-2E64-4B54-9498-1A69A058689D";
shapes = (
{
ref = O;
}
);
width = 827;
},
{
layerId = "FDB3DCA5-8B9B-4CD6-9F94-BF1B4F24E2DE";
shapes = (
{
ref = O;
}
);
width = 827;
},
{
associatedMasterId = "C63D24B8-ED3A-4149-AD3E-D94B7A9D4395";
hints = (
{
horizontal = 1;
place = (0,83);
type = Stem;
},
{
horizontal = 1;
place = (428,84);
type = Stem;
},
{
horizontal = 1;
origin = (0,11);
place = (565,83);
type = Stem;
},
{
horizontal = 1;
origin = (0,11);
place = (565,84);
type = Stem;
}
);
layerId = "6E53DB55-414D-4E55-B526-ACDFB6B64D0D";
name = "4 déc. 23 à 17:57";
shapes = (
{
closed = 1;
nodes = (
(498,565,o),
(590,475,o),
(590,354,cs),
(590,235,o),
(498,142,o),
(378,142,cs),
(258,142,o),
(167,235,o),
(167,354,cs),
(167,475,o),
(258,565,o),
(378,565,cs)
);
},
{
closed = 1;
nodes = (
(178,706,o),
(25,553,o),
(25,353,cs),
(25,153,o),
(178,0,o),
(378,0,cs),
(580,0,o),
(732,153,o),
(732,353,cs),
(732,553,o),
(580,706,o),
(378,706,cs)
);
},
{
closed = 1;
nodes = (
(525,570,l),
(162,207,l),
(233,136,l),
(595,499,l)
);
}
);
width = 757;
},
{
associatedMasterId = "FDB3DCA5-8B9B-4CD6-9F94-BF1B4F24E2DE";
hints = (
{
horizontal = 1;
place = (0,83);
type = Stem;
},
{
horizontal = 1;
place = (428,84);
type = Stem;
},
{
horizontal = 1;
place = (0,83);
type = Stem;
},
{
horizontal = 1;
place = (623,84);
type = Stem;
}
);
layerId = "2C7D4D43-F592-4FF0-9AE0-E848BF5111E1";
name = "4 déc. 23 à 17:57";
shapes = (
{
closed = 1;
nodes = (
(590,666,o),
(727,530,o),
(726,353,cs),
(727,176,o),
(590,40,o),
(413,40,cs),
(236,40,o),
(100,176,o),
(100,353,cs),
(100,530,o),
(236,666,o),
(413,665,cs)
);
},
{
closed = 1;
nodes = (
(213,706,o),
(60,553,o),
(60,353,cs),
(60,153,o),
(213,0,o),
(414,0,cs),
(614,0,o),
(767,153,o),
(767,353,cs),
(767,553,o),
(614,706,o),
(414,706,cs)
);
},
{
closed = 1;
nodes = (
(165,133,l),
(193,105,l),
(662,573,l),
(634,602,l)
);
}
);
width = 827;
}
);
note = zero;
unicode = 48;
},
{
glyphname = one;
kernLeft = "1";
lastChange = "2023-12-12 19:26:00 +0000";
layers = (
{
layerId = "C63D24B8-ED3A-4149-AD3E-D94B7A9D4395";
shapes = (
{
closed = 1;
nodes = (
(320,0,l),
(320,725,l),
(319,726,l),
(30,602,l),
(30,449,l),
(160,497,l),
(160,0,l)
);
}
);
width = 360;
},
{
associatedMasterId = "FDB3DCA5-8B9B-4CD6-9F94-BF1B4F24E2DE";
hints = (
{
horizontal = 1;
place = (0,21);
target = up;
type = BottomGhost;
}
);
layerId = "C839DD54-2E64-4B54-9498-1A69A058689D";
shapes = (
{
closed = 1;
nodes = (
(25,516,l),
(25,489,l),
(137,580,l),
(137,0,l),
(162,0,l),
(162,642,l),
(155,642,l)
);
}
);
width = 246.5;
},
{
layerId = "FDB3DCA5-8B9B-4CD6-9F94-BF1B4F24E2DE";
shapes = (
{
closed = 1;
nodes = (
(207,0,l),
(207,725,l),
(206,726,l),
(40,615,l),
(40,568,l),
(167,652,l),
(167,0,l)
);
}
);
width = 307;
}
);
metricRight = H;
note = one;
unicode = 49;
},
{
glyphname = two;
lastChange = "2023-12-12 19:26:00 +0000";
layers = (
{
layerId = "C63D24B8-ED3A-4149-AD3E-D94B7A9D4395";
shapes = (
{
closed = 1;
nodes = (
(482,0,l),
(482,166,l),
(252,166,l),
(268,244,l),
(269,244,ls),
(402,244,o),
(504,347,o),
(504,481,cs),
(504,615,o),
(402,717,o),
(269,717,cs),
(133,717,o),
(31,615,o),
(31,481,cs),
(31,478,l),
(198,478,l),
(198,481,ls),
(198,522,o),
(229,550,o),
(269,550,cs),
(308,550,o),
(338,522,o),
(338,481,cs),
(338,441,o),
(308,412,o),
(269,412,cs),
(158,412,l),
(20,0,l)
);
}
);
width = 534;
},
{
associatedMasterId = "FDB3DCA5-8B9B-4CD6-9F94-BF1B4F24E2DE";
hints = (
{
horizontal = 1;
place = (0,76.02);
type = Stem;
},
{
horizontal = 1;
place = (213.01,76.02);
type = Stem;
},
{
horizontal = 1;
place = (567.03,75.98);
type = Stem;
}
);
layerId = "C839DD54-2E64-4B54-9498-1A69A058689D";
shapes = (
{
closed = 1;
nodes = (
(124,643,o),
(31,550,o),
(31,428,cs),
(31,425,l),
(54,425,l),
(54,428,ls),
(54,536,o),
(138,620,o),
(247,620,cs),
(354,620,o),
(439,536,o),
(439,428,cs),
(439,319,o),
(354,236,o),
(247,236,cs),
(192,236,l),
(30,0,l),
(461,0,l),
(461,24,l),
(85,24,l),
(190,213,l),
(247,213,ls),
(368,213,o),
(461,306,o),
(461,428,cs),
(461,550,o),
(368,643,o),
(247,643,cs)
);
}
);
width = 506;
},
{
layerId = "FDB3DCA5-8B9B-4CD6-9F94-BF1B4F24E2DE";
shapes = (
{
closed = 1;
nodes = (
(474,0,l),
(474,40,l),
(117,40,l),
(244,287,l),
(293,287,ls),
(414,287,o),
(506,380,o),
(506,502,cs),
(506,624,o),
(414,716,o),
(293,716,cs),
(170,716,o),
(77,624,o),
(77,502,cs),
(77,499,l),
(118,499,l),
(118,502,ls),
(118,600,o),
(195,676,o),
(293,676,cs),
(390,676,o),
(467,600,o),
(467,502,cs),
(467,404,o),
(390,328,o),
(293,328,cs),
(221,328,l),
(50,0,l)
);
}
);
width = 556;
}
);
note = two;
unicode = 50;
},
{
glyphname = three;
lastChange = "2023-12-12 19:26:00 +0000";
layers = (
{
layerId = "C63D24B8-ED3A-4149-AD3E-D94B7A9D4395";
shapes = (
{
closed = 1;
nodes = (
(391,-10,o),
(493,92,o),
(493,226,cs),
(493,360,o),
(391,463,o),
(258,463,cs),
(104,463,l),
(104,295,l),
(258,295,ls),
(297,295,o),
(327,266,o),
(327,226,cs),
(327,185,o),
(297,157,o),
(258,157,cs),
(218,157,o),
(187,185,o),
(187,226,cs),
(187,229,l),
(20,229,l),
(20,226,ls),
(20,92,o),
(122,-10,o),
(258,-10,cs)
);
},
{
closed = 1;
nodes = (
(488,705,l),
(487,706,l),
(36,706,l),
(36,546,l),
(246,546,l),
(197,407,l),
(361,399,l)
);
}
);
width = 513;
},
{
associatedMasterId = "FDB3DCA5-8B9B-4CD6-9F94-BF1B4F24E2DE";
hints = (
{
horizontal = 1;
place = (0,74.96);
type = Stem;
},
{
horizontal = 1;
place = (317.97,76.01);
type = Stem;
},
{
horizontal = 1;
place = (565.97,75.98);
type = Stem;
}
);
layerId = "C839DD54-2E64-4B54-9498-1A69A058689D";
shapes = (
{
closed = 1;
nodes = (
(260,372,l),
(374,638,l),
(372,639,l),
(372,642,l),
(336,642,l),
(52,642,l),
(50,642,l),
(50,639,l),
(50,621,l),
(50,619,l),
(52,619,l),
(345,619,l),
(240,379,l)
);
},
{
closed = 1;
nodes = (
(134,356,l),
(132,356,l),
(132,352,l),
(132,289,l),
(132,287,l),
(134,336,l),
(198,336,l),
(245,336,ls),
(338,336,o),
(403,267,o),
(403,177,cs),
(403,89,o),
(334,20,o),
(245,20,cs),
(154,20,o),
(88,87,o),
(88,177,cs),
(88,263,l),
(68,263,l),
(68,159,ls),
(68,67,o),
(150,0,o),
(245,0,cs),
(345,0,o),
(424,77,o),
(424,177,cs),
(424,275,o),
(351,349,o),
(256,356,c)
);
}
);
width = 485;
},
{
layerId = "FDB3DCA5-8B9B-4CD6-9F94-BF1B4F24E2DE";
shapes = (
{
closed = 1;
nodes = (
(367,-10,o),
(459,82,o),
(459,204,cs),
(459,326,o),
(367,419,o),
(246,419,cs),
(136,419,l),
(136,378,l),
(246,378,ls),
(343,378,o),
(420,302,o),
(420,204,cs),
(420,106,o),
(343,30,o),
(246,30,cs),
(148,30,o),
(71,106,o),
(71,204,cs),
(71,236,l),
(30,236,l),
(30,204,ls),
(30,82,o),
(123,-10,o),
(246,-10,cs)
);
},
{
closed = 1;
nodes = (
(434,705,l),
(433,706,l),
(58,706,l),
(58,666,l),
(376,666,l),
(262,393,l),
(300,386,l)
);
}
);
width = 509;
},
{
associatedMasterId = "FDB3DCA5-8B9B-4CD6-9F94-BF1B4F24E2DE";
hints = (
{
horizontal = 1;
place = (0,82);
type = Stem;
},
{
horizontal = 1;
place = (350,84);
type = Stem;
},
{
horizontal = 1;
place = (623,84);
type = Stem;
}
);
layerId = "50F659EA-D659-4960-934B-E60C50E514C5";
name = "May 14 20, 14:59";
shapes = (
{
closed = 1;
nodes = (
(300,377,l),
(440,702,l),
(438,703,l),
(438,706,l),
(398,706,l),
(88,706,l),
(86,706,l),
(86,703,l),
(86,669,l),
(86,666,l),
(88,666,l),
(384,666,l),
(262,385,l)
);
},
{
closed = 1;
nodes = (
(135,404,l),
(133,404,l),
(133,400,l),
(133,364,l),
(208,364,l),
(262,364,ls),
(356,364,o),
(424,294,o),
(424,201,cs),
(424,110,o),
(353,40,o),
(262,40,cs),
(168,40,o),
(100,109,o),
(100,201,cs),
(100,246,l),
(60,246,l),
(60,180,ls),
(60,76,o),
(154,0,o),
(262,0,cs),
(375,0,o),
(464,88,o),
(464,201,cs),
(464,312,o),
(382,396,o),
(274,404,c)
);
}
);
width = 504;
}
);
note = three;
unicode = 51;
},
{
glyphname = four;
kernLeft = "4";
lastChange = "2023-12-12 19:26:00 +0000";
layers = (
{
layerId = "C63D24B8-ED3A-4149-AD3E-D94B7A9D4395";
shapes = (
{
closed = 1;
nodes = (
(476,0,l),
(476,513,l),
(316,513,l),
(316,276,l),
(217,276,l),
(283,706,l),
(123,706,l),
(20,118,l),
(316,118,l),
(316,0,l)
);
}
);
width = 516;
},
{
associatedMasterId = "FDB3DCA5-8B9B-4CD6-9F94-BF1B4F24E2DE";
layerId = "C839DD54-2E64-4B54-9498-1A69A058689D";
width = 478.4;
},
{
layerId = "FDB3DCA5-8B9B-4CD6-9F94-BF1B4F24E2DE";
shapes = (
{
closed = 1;
nodes = (
(453,0,l),
(453,513,l),
(413,513,l),
(413,196,l),
(84,196,l),
(340,706,l),
(296,706,l),
(20,156,l),
(413,156,l),
(413,0,l)
);
}
);
width = 553;
}
);
metricRight = H;
note = four;
unicode = 52;
},
{
glyphname = five;
lastChange = "2023-12-12 19:26:00 +0000";
layers = (
{
layerId = "C63D24B8-ED3A-4149-AD3E-D94B7A9D4395";
shapes = (
{
closed = 1;
nodes = (
(392,-10,o),
(494,92,o),
(494,226,cs),
(494,360,o),
(392,463,o),
(259,463,cs),
(248,463,l),
(236,540,l),
(444,540,l),
(444,706,l),
(31,706,l),
(108,295,l),
(259,295,ls),
(298,295,o),
(328,266,o),
(328,226,cs),
(328,185,o),
(298,157,o),
(259,157,cs),
(219,157,o),
(188,185,o),
(188,226,cs),
(188,229,l),
(21,229,l),
(21,226,ls),
(21,92,o),
(123,-10,o),
(259,-10,cs)
);
}
);
width = 514;
},
{
associatedMasterId = "FDB3DCA5-8B9B-4CD6-9F94-BF1B4F24E2DE";
layerId = "C839DD54-2E64-4B54-9498-1A69A058689D";
width = 413.325;
},
{
layerId = "FDB3DCA5-8B9B-4CD6-9F94-BF1B4F24E2DE";
shapes = (
{
closed = 1;
nodes = (
(427,-10,o),
(519,82,o),
(519,204,cs),
(519,326,o),
(427,419,o),
(306,419,cs),
(223,419,l),
(146,666,l),
(487,666,l),
(487,706,l),
(93,706,l),
(194,378,l),
(306,378,ls),
(403,378,o),
(480,302,o),
(480,204,cs),
(480,106,o),
(403,30,o),
(306,30,cs),
(208,30,o),
(131,106,o),
(131,204,cs),
(131,207,l),
(90,207,l),
(90,204,ls),
(90,82,o),
(183,-10,o),
(306,-10,cs)
);
}
);
width = 589;
},
{
associatedMasterId = "FDB3DCA5-8B9B-4CD6-9F94-BF1B4F24E2DE";
layerId = "1B73FC23-B927-4279-A015-FA93F849A84C";
name = "Apr 22 20, 16:38";
shapes = (
{
closed = 1;
nodes = (
(26,707,l),
(160,434,l),
(268,434,ls),
(378,433,o),
(462,347,o),
(462,238,cs),
(462,126,o),
(377,40,o),
(265,40,cs),
(153,40,o),
(69,126,o),
(69,238,c),
(69,241,l),
(28,240,l),
(28,238,l),
(28,102,o),
(131,0,o),
(265,0,cs),
(398,0,o),
(503,102,o),
(503,238,cs),
(503,370,o),
(400,473,o),
(267,473,cs),
(188,473,l),
(91,667,l),
(470,667,l),
(470,707,l)
);
}
);
width = 551;
}
);
note = five;
unicode = 53;
},
{
glyphname = six;
kernLeft = O;
kernRight = O;
lastChange = "2023-12-12 19:26:00 +0000";
layers = (
{
layerId = "C63D24B8-ED3A-4149-AD3E-D94B7A9D4395";
shapes = (
{
closed = 1;
nodes = (
(428,-10,o),
(539,101,o),
(539,247,cs),
(539,372,o),
(459,481,o),
(316,501,c),
(457,706,l),
(262,706,l),
(79,414,ls),
(49,367,o),
(25,308,o),
(25,247,cs),
(25,101,o),
(136,-10,o),
(282,-10,cs)
);
},
{
closed = 1;
nodes = (
(227,150,o),
(185,192,o),
(185,247,cs),
(185,301,o),
(227,343,o),
(282,343,cs),
(337,343,o),
(379,301,o),
(379,247,cs),
(379,192,o),
(337,150,o),
(282,150,cs)
);
}
);
width = 564;
},
{
associatedMasterId = "FDB3DCA5-8B9B-4CD6-9F94-BF1B4F24E2DE";
hints = (
{
horizontal = 1;
place = (0,76.02);
type = Stem;
},
{
horizontal = 1;
place = (390,76.02);
type = Stem;
},
{
horizontal = 1;
place = (643.01,-20);
target = down;
type = TopGhost;
}
);
layerId = "C839DD54-2E64-4B54-9498-1A69A058689D";
shapes = (
{
alignment = -1;
angle = 180;
pos = (515,644);
ref = nine;
}
);
width = 515;
},
{
layerId = "FDB3DCA5-8B9B-4CD6-9F94-BF1B4F24E2DE";
shapes = (
{
closed = 1;
nodes = (
(456,-10,o),
(561,111,o),
(561,250,cs),
(561,441,o),
(362,546,o),
(208,486,c),
(366,706,l),
(315,706,l),
(109,417,ls),
(62,351,o),
(46,283,o),
(46,243,cs),
(46,94,o),
(168,-10,o),
(307,-10,cs)
);
},
{
closed = 1;
nodes = (
(188,31,o),
(88,120,o),
(88,244,cs),
(88,361,o),
(175,461,o),
(300,461,cs),
(420,461,o),
(519,371,o),
(519,249,cs),
(519,132,o),
(431,31,o),
(306,31,cs)
);
}
);
width = 607;
}
);
metricLeft = O;
metricRight = O;
note = six;
unicode = 54;
},
{
glyphname = seven;
kernRight = V;
lastChange = "2023-12-12 19:26:00 +0000";
layers = (
{
layerId = "C63D24B8-ED3A-4149-AD3E-D94B7A9D4395";
shapes = (
{
closed = 1;
nodes = (
(237,0,l),
(469,706,l),
(30,706,l),
(30,545,l),
(253,545,l),
(71,0,l)
);
}
);
width = 479;
},
{
associatedMasterId = "FDB3DCA5-8B9B-4CD6-9F94-BF1B4F24E2DE";
hints = (
{
horizontal = 1;
place = (0,21);
target = up;
type = BottomGhost;
},
{
horizontal = 1;
place = (567.03,75.98);
type = Stem;
}
);
layerId = "C839DD54-2E64-4B54-9498-1A69A058689D";
shapes = (
{
closed = 1;
nodes = (
(60,642,l),
(60,619,l),
(363,619,l),
(50,0,l),
(74,0,l),
(412,642,l)
);
}
);
width = 439.5;
},
{
layerId = "FDB3DCA5-8B9B-4CD6-9F94-BF1B4F24E2DE";
shapes = (
{
closed = 1;
nodes = (
(128,0,l),
(453,706,l),
(54,706,l),
(54,664,l),
(388,664,l),
(85,0,l)
);
}
);
width = 483;
}
);
metricRight = A;
note = seven;
unicode = 55;
},
{
glyphname = eight;
lastChange = "2023-12-12 19:26:00 +0000";
layers = (
{
background = {
shapes = (
{
closed = 1;
nodes = (
(133,724,o),
(36,628,o),
(36,501,cs),
(36,369,o),
(133,272,o),
(259,272,cs),
(294,272,o),
(321,245,o),
(321,207,cs),
(321,172,o),
(294,145,o),
(259,145,cs),
(223,145,o),
(194,172,o),
(194,208,cs),
(194,215,l),
(31,215,l),
(31,207,ls),
(31,80,o),
(126,-19,o),
(260,-19,cs),
(386,-19,o),
(485,80,o),
(485,206,cs),
(485,337,o),
(386,434,o),
(260,434,cs),
(228,434,o),
(200,463,o),
(200,500,cs),
(200,533,o),
(228,560,o),
(260,560,cs),
(297,560,o),
(327,533,o),
(327,500,cs),
(327,491,l),
(489,491,l),
(489,501,ls),
(489,628,o),
(392,724,o),
(259,724,cs)
);
},
{
closed = 1;
nodes = (
(136,724,o),
(39,628,o),
(39,501,cs),
(39,491,l),
(201,491,l),
(201,500,ls),
(201,533,o),
(231,560,o),
(268,560,cs),
(300,560,o),
(328,533,o),
(328,500,cs),
(328,463,o),
(300,434,o),
(268,434,cs),
(142,434,o),
(43,337,o),
(43,206,cs),
(43,80,o),
(142,-19,o),
(268,-19,cs),
(402,-19,o),
(497,80,o),
(497,207,cs),
(497,215,l),
(334,215,l),
(334,208,ls),
(334,172,o),
(305,145,o),
(269,145,cs),
(234,145,o),
(207,172,o),
(207,207,cs),
(207,245,o),
(234,272,o),
(269,272,cs),
(395,272,o),
(492,369,o),
(492,501,cs),
(492,628,o),
(395,724,o),
(269,724,cs)
);
}
);
};
layerId = "C63D24B8-ED3A-4149-AD3E-D94B7A9D4395";
shapes = (
{
closed = 1;
nodes = (
(390,-17,o),
(491,84,o),
(491,209,cs),
(491,264,o),
(471,314,o),
(439,353,c),
(471,392,o),
(491,443,o),
(491,498,cs),
(491,622,o),
(390,723,o),
(266,723,cs),
(141,723,o),
(40,622,o),
(40,498,cs),
(40,443,o),
(60,392,o),
(92,353,c),
(60,314,o),
(40,264,o),
(40,209,cs),
(40,84,o),
(141,-17,o),
(266,-17,cs)
);
},
{
closed = 1;
nodes = (
(230,145,o),
(202,173,o),
(202,209,cs),
(202,244,o),
(230,272,o),
(266,272,cs),
(301,272,o),
(329,244,o),
(329,209,cs),
(329,173,o),
(301,145,o),
(266,145,cs)
);
},
{
closed = 1;
nodes = (
(230,434,o),
(202,462,o),
(202,498,cs),
(202,533,o),
(230,561,o),
(266,561,cs),
(301,561,o),
(329,533,o),
(329,498,cs),
(329,462,o),
(301,434,o),
(266,434,cs)
);
}
);
width = 531;
},
{
associatedMasterId = "FDB3DCA5-8B9B-4CD6-9F94-BF1B4F24E2DE";
hints = (
{
horizontal = 1;
place = (0,76.01);
type = Stem;
},
{
horizontal = 1;
place = (284.02,75.98);
type = Stem;
},
{
horizontal = 1;
place = (567.03,75.98);
type = Stem;
}
);
layerId = "C839DD54-2E64-4B54-9498-1A69A058689D";
shapes = (
{
closed = 1;
nodes = (
(129,643,o),
(51,565,o),
(51,464,cs),
(51,405,o),
(77,355,o),
(119,322,c),
(77,290,o),
(51,239,o),
(51,181,cs),
(51,78,o),
(129,0,o),
(231,0,cs),
(333,0,o),
(410,78,o),
(410,181,cs),
(410,239,o),
(384,290,o),
(343,322,c),
(384,355,o),
(410,405,o),
(410,464,cs),
(410,565,o),
(333,643,o),
(231,643,cs)
);
},
{
closed = 1;
nodes = (
(318,620,o),
(386,551,o),
(386,464,cs),
(386,375,o),
(318,308,o),
(231,308,cs),
(142,308,o),
(74,375,o),
(74,464,cs),
(74,551,o),
(142,620,o),
(231,620,cs)
);
},
{
closed = 1;
nodes = (
(318,337,o),
(386,268,o),
(386,182,cs),
(386,92,o),
(318,23,o),
(231,23,cs),
(142,23,o),
(74,92,o),
(74,182,cs),
(74,268,o),
(142,337,o),
(231,337,cs)
);
}
);
width = 460.2;
},
{
layerId = "FDB3DCA5-8B9B-4CD6-9F94-BF1B4F24E2DE";
shapes = (
{
closed = 1;
nodes = (
(374,-16,o),
(460,69,o),
(460,178,cs),
(460,256,o),
(417,322,o),
(353,353,c),
(417,385,o),
(460,450,o),
(460,528,cs),
(460,637,o),
(374,722,o),
(265,722,cs),
(156,722,o),
(70,637,o),
(70,528,cs),
(70,450,o),
(113,385,o),
(177,353,c),
(113,322,o),
(70,256,o),
(70,178,cs),
(70,69,o),
(156,-16,o),
(265,-16,cs)
);
},
{
closed = 1;
nodes = (
(178,23,o),
(109,91,o),
(109,178,cs),
(109,265,o),
(178,333,o),
(265,333,cs),
(352,333,o),
(421,265,o),
(421,178,cs),
(421,91,o),
(352,23,o),
(265,23,cs)
);
},
{
closed = 1;
nodes = (
(178,374,o),
(110,441,o),
(110,528,cs),
(110,613,o),
(178,681,o),
(265,681,cs),
(352,681,o),
(420,613,o),
(420,528,cs),
(420,441,o),
(352,374,o),
(265,374,cs)
);
}
);
width = 530;
},
{
associatedMasterId = "C63D24B8-ED3A-4149-AD3E-D94B7A9D4395";
hints = (
{
horizontal = 1;
place = (0,84);
type = Stem;
},
{
horizontal = 1;
place = (312,84);
type = Stem;
},
{
horizontal = 1;
place = (624,84);
type = Stem;
}
);
layerId = "AC981083-BBE8-4836-B478-2C2DFF0651EC";
name = "May 15 20, 10:07";
shapes = (
{
closed = 1;
nodes = (
(255,706,ls),
(136,706,o),
(40,609,o),
(40,490,cs),
(40,371,o),
(137,273,o),
(255,273,cs),
(301,273,ls),
(419,273,o),
(516,371,o),
(516,490,cs),
(516,609,o),
(420,706,o),
(301,706,cs)
);
},
{
closed = 1;
nodes = (
(255,433,ls),
(226,433,o),
(200,460,o),
(200,490,cs),
(200,521,o),
(225,546,o),
(255,546,cs),
(301,546,ls),
(331,546,o),
(356,521,o),
(356,490,cs),
(356,460,o),
(330,433,o),
(301,433,cs)
);
},
{
closed = 1;
nodes = (
(420,0,o),
(516,97,o),
(516,216,cs),
(516,335,o),
(419,433,o),
(301,433,cs),
(255,433,ls),
(137,433,o),
(40,335,o),
(40,216,cs),
(40,97,o),
(136,0,o),
(255,0,cs),
(301,0,ls)
);
},
{
closed = 1;
nodes = (
(330,273,o),
(356,246,o),
(356,216,cs),
(356,185,o),
(331,160,o),
(301,160,cs),
(255,160,ls),
(225,160,o),
(200,185,o),
(200,216,cs),
(200,246,o),
(226,273,o),
(255,273,cs),
(301,273,ls)
);
}
);
width = 556;
},
{
associatedMasterId = "C63D24B8-ED3A-4149-AD3E-D94B7A9D4395";
hints = (
{
horizontal = 1;
place = (0,84);
type = Stem;
},
{
horizontal = 1;
place = (312,84);
type = Stem;
},
{
horizontal = 1;
place = (624,84);
type = Stem;
}
);
layerId = "08CC2089-BE55-4E30-8395-51AA77FEBBC6";
name = "May 15 20, 10:09";
shapes = (
{
closed = 1;
nodes = (
(518,390,o),
(536,438,o),
(536,490,cs),
(536,609,o),
(440,706,o),
(321,706,cs),
(255,706,ls),
(136,706,o),
(40,609,o),
(40,490,cs),
(40,438,o),
(58,390,o),
(89,353,c),
(58,316,o),
(40,268,o),
(40,216,cs),
(40,97,o),
(136,0,o),
(255,0,cs),
(321,0,ls),
(440,0,o),
(536,97,o),
(536,216,cs),
(536,268,o),
(518,316,o),
(487,353,c)
);
},
{
closed = 1;
nodes = (
(200,521,o),
(225,546,o),
(255,546,cs),
(321,546,ls),
(351,546,o),
(376,521,o),
(376,490,cs),
(376,460,o),
(350,433,o),
(321,433,cs),
(255,433,ls),
(226,433,o),
(200,460,o),
(200,490,cs)
);
},
{
closed = 1;
nodes = (
(255,160,ls),
(225,160,o),
(200,185,o),
(200,216,cs),
(200,246,o),
(226,273,o),
(255,273,cs),
(321,273,ls),
(350,273,o),
(376,246,o),
(376,216,cs),
(376,185,o),
(351,160,o),
(321,160,cs)
);
}
);
width = 576;
},
{
associatedMasterId = "C63D24B8-ED3A-4149-AD3E-D94B7A9D4395";
layerId = "610939A0-9DDB-4068-8553-6E0CF8B2B788";
name = "12 déc. 23 à 11:56";
shapes = (
{
closed = 1;
nodes = (
(485,391,o),
(514,446,o),
(514,510,cs),
(514,622,o),
(426,706,o),
(287,706,cs),
(267,706,ls),
(128,706,o),
(40,622,o),
(40,510,cs),
(40,446,o),
(69,391,o),
(114,354,c),
(69,319,o),
(40,263,o),
(40,199,cs),
(40,86,o),
(128,0,o),
(267,0,cs),
(287,0,ls),
(426,0,o),
(514,86,o),
(514,199,cs),
(514,263,o),
(485,319,o),
(440,354,c)
);
},
{
closed = 1;
nodes = (
(198,526,o),
(224,551,o),
(269,551,cs),
(285,551,ls),
(330,551,o),
(356,526,o),
(356,492,cs),
(356,456,o),
(330,428,o),
(285,428,cs),
(269,428,ls),
(224,428,o),
(198,456,o),
(198,492,cs)
);
},
{
closed = 1;
nodes = (
(269,155,ls),
(224,155,o),
(198,185,o),
(198,218,cs),
(198,254,o),
(224,278,o),
(269,278,cs),
(285,278,ls),
(330,278,o),
(356,254,o),
(356,218,cs),
(356,185,o),
(330,155,o),
(285,155,cs)
);
}
);
width = 554;
}
);
metricLeft = "=|B+20";
metricRight = "=B+20";
note = eight;
unicode = 56;
},
{
glyphname = nine;
kernLeft = O;
kernRight = O;
lastChange = "2023-12-12 19:26:00 +0000";
layers = (
{
layerId = "C63D24B8-ED3A-4149-AD3E-D94B7A9D4395";
shapes = (
{
closed = 1;
nodes = (
(302,0,l),
(485,292,ls),
(515,339,o),
(539,398,o),
(539,459,cs),
(539,605,o),
(428,716,o),
(282,716,cs),
(136,716,o),
(25,605,o),
(25,459,cs),
(25,334,o),
(105,225,o),
(248,205,c),
(107,0,l)
);
},
{
closed = 1;
nodes = (
(227,363,o),
(185,405,o),
(185,459,cs),
(185,514,o),
(227,556,o),
(282,556,cs),
(337,556,o),
(379,514,o),
(379,459,cs),
(379,405,o),
(337,363,o),
(282,363,cs)
);
}
);
width = 564;
},
{
associatedMasterId = "FDB3DCA5-8B9B-4CD6-9F94-BF1B4F24E2DE";
hints = (
{
horizontal = 1;
place = (0,21);
target = up;
type = BottomGhost;
},
{
horizontal = 1;
place = (178.01,76.01);
type = Stem;
},
{
horizontal = 1;
place = (568.01,76.01);
type = Stem;
}
);
layerId = "C839DD54-2E64-4B54-9498-1A69A058689D";
shapes = (
{
closed = 1;
nodes = (
(126,644,o),
(25,543,o),
(25,411,cs),
(25,279,o),
(126,178,o),
(258,178,cs),
(284,178,o),
(313,176,o),
(385,189,c),
(289,0,l),
(312,0,l),
(457,284,ls),
(475,318,o),
(490,366,o),
(490,411,cs),
(490,543,o),
(389,644,o),
(258,644,cs)
);
},
{
closed = 1;
nodes = (
(378,621,o),
(468,529,o),
(468,411,cs),
(468,292,o),
(378,201,o),
(258,201,cs),
(137,201,o),
(47,292,o),
(47,411,cs),
(47,529,o),
(137,621,o),
(258,621,cs)
);
}
);
width = 515;
},
{
layerId = "FDB3DCA5-8B9B-4CD6-9F94-BF1B4F24E2DE";
shapes = (
{
closed = 1;
nodes = (
(292,0,l),
(498,289,ls),
(545,355,o),
(561,423,o),
(561,463,cs),
(561,612,o),
(439,716,o),
(300,716,cs),
(151,716,o),
(46,595,o),
(46,456,cs),
(46,265,o),
(245,160,o),
(399,220,c),
(241,0,l)
);
},
{
closed = 1;
nodes = (
(187,245,o),
(88,335,o),
(88,457,cs),
(88,574,o),
(176,675,o),
(301,675,cs),
(419,675,o),
(519,586,o),
(519,462,cs),
(519,345,o),
(432,245,o),
(307,245,cs)
);
}
);
width = 607;
},
{
associatedMasterId = "FDB3DCA5-8B9B-4CD6-9F94-BF1B4F24E2DE";
hints = (
{
horizontal = 1;
place = (0,21);
target = up;
type = BottomGhost;
},
{
horizontal = 1;
place = (178.01,76.01);
type = Stem;
},
{
horizontal = 1;
place = (568.01,76.01);
type = Stem;
}
);
layerId = "88663A2F-26E3-4F46-8F86-CD142AEF7C58";
name = "Dec 11 19, 17:36";
shapes = (
{
closed = 1;
nodes = (
(181,644,o),
(80,543,o),
(80,411,cs),
(80,279,o),
(181,178,o),
(313,178,cs),
(339,178,o),
(367,178,o),
(425,189,c),
(329,0,l),
(367,0,l),
(512,284,ls),
(530,318,o),
(545,366,o),
(545,411,cs),
(545,543,o),
(444,644,o),
(313,644,cs)
);
},
{
closed = 1;
nodes = (
(424,606,o),
(508,521,o),
(508,411,cs),
(508,301,o),
(424,216,o),
(313,216,cs),
(201,216,o),
(117,301,o),
(117,411,cs),
(117,521,o),
(201,606,o),
(313,606,cs)
);
}
);
width = 625;
},
{
associatedMasterId = "C63D24B8-ED3A-4149-AD3E-D94B7A9D4395";
hints = (
{
horizontal = 1;
place = (0,21);
target = up;
type = BottomGhost;
},
{
horizontal = 1;
place = (178.01,76.01);
type = Stem;
},
{
horizontal = 1;
place = (568.01,76.01);
type = Stem;
}
);
layerId = "D7EBE48C-AF1A-45E3-8D4F-4D3710FF8F7B";
name = "Dec 11 19, 17:38";
shapes = (
{
closed = 1;
nodes = (
(126,644,o),
(25,543,o),
(25,411,cs),
(25,279,o),
(126,178,o),
(258,178,cs),
(284,178,o),
(303,191,o),
(257,189,c),
(161,0,l),
(312,0,l),
(457,284,ls),
(475,318,o),
(490,366,o),
(490,411,cs),
(490,543,o),
(389,644,o),
(258,644,cs)
);
},
{
closed = 1;
nodes = (
(303,492,o),
(339,458,o),
(339,411,cs),
(339,365,o),
(303,330,o),
(258,330,cs),
(212,330,o),
(176,365,o),
(176,411,cs),
(176,458,o),
(212,492,o),
(258,492,cs)
);
}
);
visible = 1;
width = 515;
}
);
metricLeft = six;
metricRight = six;
note = nine;
unicode = 57;
},
{
glyphname = zero.ss01;
kernLeft = Oalt;
kernRight = Oalt;
lastChange = "2023-12-12 19:26:00 +0000";
layers = (
{
anchors = (
{
name = top;
pos = (299,706);
}
);
layerId = "FDB3DCA5-8B9B-4CD6-9F94-BF1B4F24E2DE";
shapes = (
{
closed = 1;
nodes = (
(419,-10,o),
(517,88,o),
(517,208,cs),
(517,498,ls),
(517,618,o),
(419,716,o),
(299,716,cs),
(178,716,o),
(80,618,o),
(80,498,cs),
(80,208,ls),
(80,88,o),
(178,-10,o),
(299,-10,cs)
);
},
{
closed = 1;
nodes = (
(200,30,o),
(120,110,o),
(120,208,cs),
(120,498,ls),
(120,596,o),
(200,676,o),
(299,676,cs),
(397,676,o),
(477,596,o),
(477,498,cs),
(477,208,ls),
(477,110,o),
(397,30,o),
(299,30,cs)
);
}
);
width = 597;
},
{
anchors = (
{
name = top;
pos = (287,706);
}
);
layerId = "C63D24B8-ED3A-4149-AD3E-D94B7A9D4395";
shapes = (
{
closed = 1;
nodes = (
(433,-10,o),
(544,101,o),
(544,247,cs),
(544,460,ls),
(544,606,o),
(433,716,o),
(287,716,cs),
(141,716,o),
(30,606,o),
(30,460,cs),
(30,247,ls),
(30,101,o),
(141,-10,o),
(287,-10,cs)
);
},
{
closed = 1;
nodes = (
(232,150,o),
(190,192,o),
(190,247,cs),
(190,459,ls),
(190,514,o),
(232,556,o),
(287,556,cs),
(342,556,o),
(384,514,o),
(384,459,cs),
(384,247,ls),
(384,192,o),
(342,150,o),
(287,150,cs)
);
}
);
width = 574;
},
{
associatedMasterId = "FDB3DCA5-8B9B-4CD6-9F94-BF1B4F24E2DE";
layerId = "87A5FB92-AF98-42F8-9B6D-FC715980D2F1";
name = "Apr 23 20, 15:49";
shapes = (
{
closed = 1;
nodes = (
(554,613,o),
(443,724,o),
(297,724,cs),
(151,724,o),
(40,613,o),
(40,467,cs),
(40,257,l),
(40,111,o),
(151,0,o),
(297,0,cs),
(443,0,o),
(554,111,o),
(554,257,cs),
(554,467,l)
);
},
{
closed = 1;
nodes = (
(514,134,o),
(420,40,o),
(297,40,cs),
(174,40,o),
(80,134,o),
(80,257,c),
(80,467,ls),
(80,590,o),
(174,684,o),
(297,684,cs),
(420,684,o),
(514,590,o),
(514,467,cs),
(514,257,ls)
);
}
);
width = 594;
}
);
},
{
glyphname = one.ss01;
lastChange = "2023-12-12 19:26:00 +0000";
layers = (
{
layerId = "FDB3DCA5-8B9B-4CD6-9F94-BF1B4F24E2DE";
shapes = (
{
closed = 1;
nodes = (
(237,0,l),
(237,726,l),
(230,726,l),
(70,615,l),
(70,566,l),
(197,654,l),
(197,0,l)
);
},
{
closed = 1;
nodes = (
(399,0,l),
(399,40,l),
(40,40,l),
(40,0,l)
);
}
);
width = 419;
},
{
layerId = "C63D24B8-ED3A-4149-AD3E-D94B7A9D4395";
shapes = (
{
closed = 1;
nodes = (
(352,0,l),
(352,726,l),
(344,726,l),
(62,602,l),
(62,449,l),
(192,497,l),
(192,0,l)
);
},
{
closed = 1;
nodes = (
(470,0,l),
(470,160,l),
(60,160,l),
(60,0,l)
);
}
);
width = 530;
}
);
},
{
glyphname = four.ss01;
lastChange = "2023-12-12 19:26:00 +0000";
layers = (
{
layerId = "FDB3DCA5-8B9B-4CD6-9F94-BF1B4F24E2DE";
shapes = (
{
closed = 1;
nodes = (
(443,0,l),
(443,513,l),
(403,513,l),
(403,196,l),
(140,196,l),
(140,706,l),
(100,706,l),
(100,156,l),
(403,156,l),
(403,0,l)
);
}
);
width = 543;
},
{
layerId = "C63D24B8-ED3A-4149-AD3E-D94B7A9D4395";
shapes = (
{
closed = 1;
nodes = (
(457,0,l),
(457,513,l),
(299,513,l),
(299,276,l),
(200,276,l),
(200,706,l),
(40,706,l),
(40,116,l),
(297,116,l),
(297,0,l)
);
}
);
width = 497;
}
);
metricLeft = H;
metricRight = H;
},
{
glyphname = five.ss01;
lastChange = "2023-12-12 19:26:00 +0000";
layers = (
{
layerId = "FDB3DCA5-8B9B-4CD6-9F94-BF1B4F24E2DE";
shapes = (
{
closed = 1;
nodes = (
(437,-10,o),
(529,82,o),
(529,204,cs),
(529,326,o),
(437,419,o),
(316,419,cs),
(176,419,l),
(176,666,l),
(497,666,l),
(497,706,l),
(136,706,l),
(136,378,l),
(316,378,ls),
(413,378,o),
(490,302,o),
(490,204,cs),
(490,106,o),
(413,30,o),
(316,30,cs),
(218,30,o),
(141,106,o),
(141,204,cs),
(141,207,l),
(100,207,l),
(100,204,ls),
(100,82,o),
(193,-10,o),
(316,-10,cs)
);
}
);
width = 579;
},
{
layerId = "C63D24B8-ED3A-4149-AD3E-D94B7A9D4395";
shapes = (
{
closed = 1;
nodes = (
(411,-10,o),
(513,92,o),
(513,226,cs),
(513,360,o),
(411,463,o),
(278,463,cs),
(214,463,l),
(214,541,l),
(483,541,l),
(483,707,l),
(54,707,l),
(54,295,l),
(278,295,ls),
(317,295,o),
(347,266,o),
(347,226,cs),
(347,185,o),
(317,157,o),
(278,157,cs),
(238,157,o),
(207,185,o),
(207,226,cs),
(207,229,l),
(40,229,l),
(40,226,ls),
(40,92,o),
(142,-10,o),
(278,-10,cs)
);
}
);
width = 533;
},
{
associatedMasterId = "FDB3DCA5-8B9B-4CD6-9F94-BF1B4F24E2DE";
layerId = "FFF5E4C2-FA2C-41C5-8B8F-DF92F268F3E6";
name = "Apr 22 20, 16:33";
shapes = (
{
alignment = -1;
ref = five;
}
);
width = 551;
}
);
metricLeft = H;
},
{
glyphname = six.ss01;
kernLeft = Oalt;
kernRight = Oalt;
lastChange = "2023-12-12 19:26:00 +0000";
layers = (
{
layerId = "FDB3DCA5-8B9B-4CD6-9F94-BF1B4F24E2DE";
shapes = (
{
closed = 1;
nodes = (
(417,-10,o),
(509,82,o),
(509,204,cs),
(509,326,o),
(417,419,o),
(296,419,cs),
(222,419,o),
(159,388,o),
(119,331,c),
(119,503,ls),
(119,601,o),
(196,677,o),
(293,677,cs),
(391,677,o),
(468,601,o),
(468,503,cs),
(468,480,l),
(509,480,l),
(509,503,ls),
(509,625,o),
(416,717,o),
(293,717,cs),
(172,717,o),
(80,626,o),
(80,504,cs),
(80,204,ls),
(80,84,o),
(169,-10,o),
(296,-10,cs)
);
},
{
closed = 1;
nodes = (
(198,30,o),
(119,106,o),
(119,204,cs),
(119,300,o),
(192,378,o),
(296,378,cs),
(394,378,o),
(470,302,o),
(470,204,cs),
(470,106,o),
(393,30,o),
(296,30,cs)
);
}
);
width = 589;
},
{
layerId = "C63D24B8-ED3A-4149-AD3E-D94B7A9D4395";
shapes = (
{
closed = 1;
nodes = (
(397,-10,o),
(503,96,o),
(503,227,cs),
(503,353,o),
(399,432,o),
(289,432,cs),
(256,432,o),
(222,425,o),
(190,410,c),
(190,479,ls),
(190,522,o),
(224,556,o),
(267,556,cs),
(309,556,o),
(343,532,o),
(343,489,cs),
(343,486,l),
(503,486,l),
(503,489,ls),
(503,620,o),
(397,716,o),
(267,716,cs),
(136,716,o),
(30,610,o),
(30,479,cs),
(30,227,ls),
(30,96,o),
(136,-10,o),
(267,-10,cs)
);
},
{
closed = 1;
nodes = (
(224,150,o),
(190,184,o),
(190,227,cs),
(190,269,o),
(224,303,o),
(267,303,cs),
(309,303,o),
(343,269,o),
(343,227,cs),
(343,184,o),
(309,150,o),
(267,150,cs)
);
}
);
width = 533;
},
{
associatedMasterId = "C63D24B8-ED3A-4149-AD3E-D94B7A9D4395";
hints = (
{
horizontal = 1;
place = (707,-84);
type = Stem;
},
{
horizontal = 1;
place = (473,-84);
type = Stem;
},
{
horizontal = 1;
place = (83,-84);
type = Stem;
}
);
layerId = "3D5F09C9-453B-42D5-BE95-57FD035E2F43";
name = "May 15 20, 10:12";
shapes = (
{
closed = 1;
nodes = (
(503,479,ls),
(503,610,o),
(397,706,o),
(267,706,cs),
(136,706,o),
(30,600,o),
(30,469,cs),
(30,237,ls),
(30,106,o),
(136,0,o),
(267,0,cs),
(397,0,o),
(503,106,o),
(503,237,cs),
(503,367,o),
(397,473,o),
(267,473,cs),
(240,473,o),
(214,469,o),
(190,460,c),
(190,469,ls),
(190,512,o),
(224,546,o),
(267,546,cs),
(309,546,o),
(343,522,o),
(343,479,cs),
(343,479,l),
(503,479,l)
);
},
{
closed = 1;
nodes = (
(309,313,o),
(343,279,o),
(343,237,cs),
(343,194,o),
(309,160,o),
(267,160,cs),
(224,160,o),
(190,194,o),
(190,237,cs),
(190,279,o),
(224,313,o),
(267,313,cs)
);
}
);
width = 533;
}
);
metricLeft = zero.ss01;
metricRight = zero.ss01;
},
{
glyphname = seven.ss01;
lastChange = "2023-12-12 19:26:00 +0000";
layers = (
{
layerId = "FDB3DCA5-8B9B-4CD6-9F94-BF1B4F24E2DE";
shapes = (
{
closed = 1;
nodes = (
(105,0,l),
(385,706,l),
(20,706,l),
(20,666,l),
(327,666,l),
(62,0,l)
);
}
);
width = 415;
},
{
layerId = "C63D24B8-ED3A-4149-AD3E-D94B7A9D4395";
shapes = (
{
closed = 1;
nodes = (
(225,0,l),
(415,706,l),
(10,706,l),
(10,546,l),
(208,546,l),
(58,0,l)
);
}
);
width = 425;
},
{
associatedMasterId = "FDB3DCA5-8B9B-4CD6-9F94-BF1B4F24E2DE";
hints = (
{
horizontal = 1;
place = (0,21);
target = up;
type = BottomGhost;
},
{
horizontal = 1;
place = (624,84);
type = Stem;
}
);
layerId = "FB25C7C7-6D03-49B6-8595-50908BEE2CF1";
name = "Apr 23 20, 15:45";
shapes = (
{
closed = 1;
nodes = (
(87,349,l),
(84,0,l),
(127,0,l),
(127,337,l)
);
},
{
closed = 1;
nodes = (
(429,333,l),
(429,706,l),
(64,706,l),
(64,666,l),
(389,666,l),
(389,333,l)
);
},
{
closed = 1;
nodes = (
(90,309,l),
(429,309,l),
(429,349,l),
(90,349,l)
);
}
);
width = 458;
}
);
metricRight = V;
},
